<?xml version="1.0" encoding="utf-8" standalone="no"?>
<!DOCTYPE svg PUBLIC "-//W3C//DTD SVG 1.1//EN"
  "http://www.w3.org/Graphics/SVG/1.1/DTD/svg11.dtd">
<svg xmlns:xlink="http://www.w3.org/1999/xlink" width="864pt" height="360pt" viewBox="0 0 864 360" xmlns="http://www.w3.org/2000/svg" version="1.1">
 <metadata>
  <rdf:RDF xmlns:dc="http://purl.org/dc/elements/1.1/" xmlns:cc="http://creativecommons.org/ns#" xmlns:rdf="http://www.w3.org/1999/02/22-rdf-syntax-ns#">
   <cc:Work>
    <dc:type rdf:resource="http://purl.org/dc/dcmitype/StillImage"/>
    <dc:date>2025-12-17T12:24:41.783415</dc:date>
    <dc:format>image/svg+xml</dc:format>
    <dc:creator>
     <cc:Agent>
      <dc:title>Matplotlib v3.10.1, https://matplotlib.org/</dc:title>
     </cc:Agent>
    </dc:creator>
   </cc:Work>
  </rdf:RDF>
 </metadata>
 <defs>
  <style type="text/css">*{stroke-linejoin: round; stroke-linecap: butt}</style>
 </defs>
 <g id="figure_1">
  <g id="patch_1">
   <path d="M 0 360 
L 864 360 
L 864 0 
L 0 0 
z
" style="fill: #ffffff"/>
  </g>
  <g id="axes_1">
   <g id="patch_2">
    <path d="M 108 320.4 
L 777.6 320.4 
L 777.6 43.2 
L 108 43.2 
z
" style="fill: #ffffff"/>
   </g>
   <g id="matplotlib.axis_1">
    <g id="xtick_1">
     <g id="line2d_1">
      <defs>
       <path id="me82ab142d2" d="M 0 0 
L 0 3.5 
" style="stroke: #000000; stroke-width: 0.8"/>
      </defs>
      <g>
       <use xlink:href="#me82ab142d2" x="128.925" y="320.4" style="stroke: #000000; stroke-width: 0.8"/>
      </g>
     </g>
     <g id="text_1">
      <!-- 0 -->
      <g transform="translate(125.74375 334.998438) scale(0.1 -0.1)">
       <defs>
        <path id="DejaVuSans-30" d="M 2034 4250 
Q 1547 4250 1301 3770 
Q 1056 3291 1056 2328 
Q 1056 1369 1301 889 
Q 1547 409 2034 409 
Q 2525 409 2770 889 
Q 3016 1369 3016 2328 
Q 3016 3291 2770 3770 
Q 2525 4250 2034 4250 
z
M 2034 4750 
Q 2819 4750 3233 4129 
Q 3647 3509 3647 2328 
Q 3647 1150 3233 529 
Q 2819 -91 2034 -91 
Q 1250 -91 836 529 
Q 422 1150 422 2328 
Q 422 3509 836 4129 
Q 1250 4750 2034 4750 
z
" transform="scale(0.015625)"/>
       </defs>
       <use xlink:href="#DejaVuSans-30"/>
      </g>
     </g>
    </g>
    <g id="xtick_2">
     <g id="line2d_2">
      <g>
       <use xlink:href="#me82ab142d2" x="233.55" y="320.4" style="stroke: #000000; stroke-width: 0.8"/>
      </g>
     </g>
     <g id="text_2">
      <!-- 5 -->
      <g transform="translate(230.36875 334.998438) scale(0.1 -0.1)">
       <defs>
        <path id="DejaVuSans-35" d="M 691 4666 
L 3169 4666 
L 3169 4134 
L 1269 4134 
L 1269 2991 
Q 1406 3038 1543 3061 
Q 1681 3084 1819 3084 
Q 2600 3084 3056 2656 
Q 3513 2228 3513 1497 
Q 3513 744 3044 326 
Q 2575 -91 1722 -91 
Q 1428 -91 1123 -41 
Q 819 9 494 109 
L 494 744 
Q 775 591 1075 516 
Q 1375 441 1709 441 
Q 2250 441 2565 725 
Q 2881 1009 2881 1497 
Q 2881 1984 2565 2268 
Q 2250 2553 1709 2553 
Q 1456 2553 1204 2497 
Q 953 2441 691 2322 
L 691 4666 
z
" transform="scale(0.015625)"/>
       </defs>
       <use xlink:href="#DejaVuSans-35"/>
      </g>
     </g>
    </g>
    <g id="xtick_3">
     <g id="line2d_3">
      <g>
       <use xlink:href="#me82ab142d2" x="338.175" y="320.4" style="stroke: #000000; stroke-width: 0.8"/>
      </g>
     </g>
     <g id="text_3">
      <!-- 10 -->
      <g transform="translate(331.8125 334.998438) scale(0.1 -0.1)">
       <defs>
        <path id="DejaVuSans-31" d="M 794 531 
L 1825 531 
L 1825 4091 
L 703 3866 
L 703 4441 
L 1819 4666 
L 2450 4666 
L 2450 531 
L 3481 531 
L 3481 0 
L 794 0 
L 794 531 
z
" transform="scale(0.015625)"/>
       </defs>
       <use xlink:href="#DejaVuSans-31"/>
       <use xlink:href="#DejaVuSans-30" transform="translate(63.623047 0)"/>
      </g>
     </g>
    </g>
    <g id="xtick_4">
     <g id="line2d_4">
      <g>
       <use xlink:href="#me82ab142d2" x="442.8" y="320.4" style="stroke: #000000; stroke-width: 0.8"/>
      </g>
     </g>
     <g id="text_4">
      <!-- 15 -->
      <g transform="translate(436.4375 334.998438) scale(0.1 -0.1)">
       <use xlink:href="#DejaVuSans-31"/>
       <use xlink:href="#DejaVuSans-35" transform="translate(63.623047 0)"/>
      </g>
     </g>
    </g>
    <g id="xtick_5">
     <g id="line2d_5">
      <g>
       <use xlink:href="#me82ab142d2" x="547.425" y="320.4" style="stroke: #000000; stroke-width: 0.8"/>
      </g>
     </g>
     <g id="text_5">
      <!-- 20 -->
      <g transform="translate(541.0625 334.998438) scale(0.1 -0.1)">
       <defs>
        <path id="DejaVuSans-32" d="M 1228 531 
L 3431 531 
L 3431 0 
L 469 0 
L 469 531 
Q 828 903 1448 1529 
Q 2069 2156 2228 2338 
Q 2531 2678 2651 2914 
Q 2772 3150 2772 3378 
Q 2772 3750 2511 3984 
Q 2250 4219 1831 4219 
Q 1534 4219 1204 4116 
Q 875 4013 500 3803 
L 500 4441 
Q 881 4594 1212 4672 
Q 1544 4750 1819 4750 
Q 2544 4750 2975 4387 
Q 3406 4025 3406 3419 
Q 3406 3131 3298 2873 
Q 3191 2616 2906 2266 
Q 2828 2175 2409 1742 
Q 1991 1309 1228 531 
z
" transform="scale(0.015625)"/>
       </defs>
       <use xlink:href="#DejaVuSans-32"/>
       <use xlink:href="#DejaVuSans-30" transform="translate(63.623047 0)"/>
      </g>
     </g>
    </g>
    <g id="xtick_6">
     <g id="line2d_6">
      <g>
       <use xlink:href="#me82ab142d2" x="652.05" y="320.4" style="stroke: #000000; stroke-width: 0.8"/>
      </g>
     </g>
     <g id="text_6">
      <!-- 25 -->
      <g transform="translate(645.6875 334.998438) scale(0.1 -0.1)">
       <use xlink:href="#DejaVuSans-32"/>
       <use xlink:href="#DejaVuSans-35" transform="translate(63.623047 0)"/>
      </g>
     </g>
    </g>
    <g id="xtick_7">
     <g id="line2d_7">
      <g>
       <use xlink:href="#me82ab142d2" x="756.675" y="320.4" style="stroke: #000000; stroke-width: 0.8"/>
      </g>
     </g>
     <g id="text_7">
      <!-- 30 -->
      <g transform="translate(750.3125 334.998438) scale(0.1 -0.1)">
       <defs>
        <path id="DejaVuSans-33" d="M 2597 2516 
Q 3050 2419 3304 2112 
Q 3559 1806 3559 1356 
Q 3559 666 3084 287 
Q 2609 -91 1734 -91 
Q 1441 -91 1130 -33 
Q 819 25 488 141 
L 488 750 
Q 750 597 1062 519 
Q 1375 441 1716 441 
Q 2309 441 2620 675 
Q 2931 909 2931 1356 
Q 2931 1769 2642 2001 
Q 2353 2234 1838 2234 
L 1294 2234 
L 1294 2753 
L 1863 2753 
Q 2328 2753 2575 2939 
Q 2822 3125 2822 3475 
Q 2822 3834 2567 4026 
Q 2313 4219 1838 4219 
Q 1578 4219 1281 4162 
Q 984 4106 628 3988 
L 628 4550 
Q 988 4650 1302 4700 
Q 1616 4750 1894 4750 
Q 2613 4750 3031 4423 
Q 3450 4097 3450 3541 
Q 3450 3153 3228 2886 
Q 3006 2619 2597 2516 
z
" transform="scale(0.015625)"/>
       </defs>
       <use xlink:href="#DejaVuSans-33"/>
       <use xlink:href="#DejaVuSans-30" transform="translate(63.623047 0)"/>
      </g>
     </g>
    </g>
    <g id="text_8">
     <!-- Aligned Time (s) -->
     <g transform="translate(402.089844 348.676562) scale(0.1 -0.1)">
      <defs>
       <path id="DejaVuSans-41" d="M 2188 4044 
L 1331 1722 
L 3047 1722 
L 2188 4044 
z
M 1831 4666 
L 2547 4666 
L 4325 0 
L 3669 0 
L 3244 1197 
L 1141 1197 
L 716 0 
L 50 0 
L 1831 4666 
z
" transform="scale(0.015625)"/>
       <path id="DejaVuSans-6c" d="M 603 4863 
L 1178 4863 
L 1178 0 
L 603 0 
L 603 4863 
z
" transform="scale(0.015625)"/>
       <path id="DejaVuSans-69" d="M 603 3500 
L 1178 3500 
L 1178 0 
L 603 0 
L 603 3500 
z
M 603 4863 
L 1178 4863 
L 1178 4134 
L 603 4134 
L 603 4863 
z
" transform="scale(0.015625)"/>
       <path id="DejaVuSans-67" d="M 2906 1791 
Q 2906 2416 2648 2759 
Q 2391 3103 1925 3103 
Q 1463 3103 1205 2759 
Q 947 2416 947 1791 
Q 947 1169 1205 825 
Q 1463 481 1925 481 
Q 2391 481 2648 825 
Q 2906 1169 2906 1791 
z
M 3481 434 
Q 3481 -459 3084 -895 
Q 2688 -1331 1869 -1331 
Q 1566 -1331 1297 -1286 
Q 1028 -1241 775 -1147 
L 775 -588 
Q 1028 -725 1275 -790 
Q 1522 -856 1778 -856 
Q 2344 -856 2625 -561 
Q 2906 -266 2906 331 
L 2906 616 
Q 2728 306 2450 153 
Q 2172 0 1784 0 
Q 1141 0 747 490 
Q 353 981 353 1791 
Q 353 2603 747 3093 
Q 1141 3584 1784 3584 
Q 2172 3584 2450 3431 
Q 2728 3278 2906 2969 
L 2906 3500 
L 3481 3500 
L 3481 434 
z
" transform="scale(0.015625)"/>
       <path id="DejaVuSans-6e" d="M 3513 2113 
L 3513 0 
L 2938 0 
L 2938 2094 
Q 2938 2591 2744 2837 
Q 2550 3084 2163 3084 
Q 1697 3084 1428 2787 
Q 1159 2491 1159 1978 
L 1159 0 
L 581 0 
L 581 3500 
L 1159 3500 
L 1159 2956 
Q 1366 3272 1645 3428 
Q 1925 3584 2291 3584 
Q 2894 3584 3203 3211 
Q 3513 2838 3513 2113 
z
" transform="scale(0.015625)"/>
       <path id="DejaVuSans-65" d="M 3597 1894 
L 3597 1613 
L 953 1613 
Q 991 1019 1311 708 
Q 1631 397 2203 397 
Q 2534 397 2845 478 
Q 3156 559 3463 722 
L 3463 178 
Q 3153 47 2828 -22 
Q 2503 -91 2169 -91 
Q 1331 -91 842 396 
Q 353 884 353 1716 
Q 353 2575 817 3079 
Q 1281 3584 2069 3584 
Q 2775 3584 3186 3129 
Q 3597 2675 3597 1894 
z
M 3022 2063 
Q 3016 2534 2758 2815 
Q 2500 3097 2075 3097 
Q 1594 3097 1305 2825 
Q 1016 2553 972 2059 
L 3022 2063 
z
" transform="scale(0.015625)"/>
       <path id="DejaVuSans-64" d="M 2906 2969 
L 2906 4863 
L 3481 4863 
L 3481 0 
L 2906 0 
L 2906 525 
Q 2725 213 2448 61 
Q 2172 -91 1784 -91 
Q 1150 -91 751 415 
Q 353 922 353 1747 
Q 353 2572 751 3078 
Q 1150 3584 1784 3584 
Q 2172 3584 2448 3432 
Q 2725 3281 2906 2969 
z
M 947 1747 
Q 947 1113 1208 752 
Q 1469 391 1925 391 
Q 2381 391 2643 752 
Q 2906 1113 2906 1747 
Q 2906 2381 2643 2742 
Q 2381 3103 1925 3103 
Q 1469 3103 1208 2742 
Q 947 2381 947 1747 
z
" transform="scale(0.015625)"/>
       <path id="DejaVuSans-20" transform="scale(0.015625)"/>
       <path id="DejaVuSans-54" d="M -19 4666 
L 3928 4666 
L 3928 4134 
L 2272 4134 
L 2272 0 
L 1638 0 
L 1638 4134 
L -19 4134 
L -19 4666 
z
" transform="scale(0.015625)"/>
       <path id="DejaVuSans-6d" d="M 3328 2828 
Q 3544 3216 3844 3400 
Q 4144 3584 4550 3584 
Q 5097 3584 5394 3201 
Q 5691 2819 5691 2113 
L 5691 0 
L 5113 0 
L 5113 2094 
Q 5113 2597 4934 2840 
Q 4756 3084 4391 3084 
Q 3944 3084 3684 2787 
Q 3425 2491 3425 1978 
L 3425 0 
L 2847 0 
L 2847 2094 
Q 2847 2600 2669 2842 
Q 2491 3084 2119 3084 
Q 1678 3084 1418 2786 
Q 1159 2488 1159 1978 
L 1159 0 
L 581 0 
L 581 3500 
L 1159 3500 
L 1159 2956 
Q 1356 3278 1631 3431 
Q 1906 3584 2284 3584 
Q 2666 3584 2933 3390 
Q 3200 3197 3328 2828 
z
" transform="scale(0.015625)"/>
       <path id="DejaVuSans-28" d="M 1984 4856 
Q 1566 4138 1362 3434 
Q 1159 2731 1159 2009 
Q 1159 1288 1364 580 
Q 1569 -128 1984 -844 
L 1484 -844 
Q 1016 -109 783 600 
Q 550 1309 550 2009 
Q 550 2706 781 3412 
Q 1013 4119 1484 4856 
L 1984 4856 
z
" transform="scale(0.015625)"/>
       <path id="DejaVuSans-73" d="M 2834 3397 
L 2834 2853 
Q 2591 2978 2328 3040 
Q 2066 3103 1784 3103 
Q 1356 3103 1142 2972 
Q 928 2841 928 2578 
Q 928 2378 1081 2264 
Q 1234 2150 1697 2047 
L 1894 2003 
Q 2506 1872 2764 1633 
Q 3022 1394 3022 966 
Q 3022 478 2636 193 
Q 2250 -91 1575 -91 
Q 1294 -91 989 -36 
Q 684 19 347 128 
L 347 722 
Q 666 556 975 473 
Q 1284 391 1588 391 
Q 1994 391 2212 530 
Q 2431 669 2431 922 
Q 2431 1156 2273 1281 
Q 2116 1406 1581 1522 
L 1381 1569 
Q 847 1681 609 1914 
Q 372 2147 372 2553 
Q 372 3047 722 3315 
Q 1072 3584 1716 3584 
Q 2034 3584 2315 3537 
Q 2597 3491 2834 3397 
z
" transform="scale(0.015625)"/>
       <path id="DejaVuSans-29" d="M 513 4856 
L 1013 4856 
Q 1481 4119 1714 3412 
Q 1947 2706 1947 2009 
Q 1947 1309 1714 600 
Q 1481 -109 1013 -844 
L 513 -844 
Q 928 -128 1133 580 
Q 1338 1288 1338 2009 
Q 1338 2731 1133 3434 
Q 928 4138 513 4856 
z
" transform="scale(0.015625)"/>
      </defs>
      <use xlink:href="#DejaVuSans-41"/>
      <use xlink:href="#DejaVuSans-6c" transform="translate(68.408203 0)"/>
      <use xlink:href="#DejaVuSans-69" transform="translate(96.191406 0)"/>
      <use xlink:href="#DejaVuSans-67" transform="translate(123.974609 0)"/>
      <use xlink:href="#DejaVuSans-6e" transform="translate(187.451172 0)"/>
      <use xlink:href="#DejaVuSans-65" transform="translate(250.830078 0)"/>
      <use xlink:href="#DejaVuSans-64" transform="translate(312.353516 0)"/>
      <use xlink:href="#DejaVuSans-20" transform="translate(375.830078 0)"/>
      <use xlink:href="#DejaVuSans-54" transform="translate(407.617188 0)"/>
      <use xlink:href="#DejaVuSans-69" transform="translate(465.576172 0)"/>
      <use xlink:href="#DejaVuSans-6d" transform="translate(493.359375 0)"/>
      <use xlink:href="#DejaVuSans-65" transform="translate(590.771484 0)"/>
      <use xlink:href="#DejaVuSans-20" transform="translate(652.294922 0)"/>
      <use xlink:href="#DejaVuSans-28" transform="translate(684.082031 0)"/>
      <use xlink:href="#DejaVuSans-73" transform="translate(723.095703 0)"/>
      <use xlink:href="#DejaVuSans-29" transform="translate(775.195312 0)"/>
     </g>
    </g>
   </g>
   <g id="matplotlib.axis_2">
    <g id="ytick_1">
     <g id="line2d_8">
      <defs>
       <path id="m6314de2f2d" d="M 0 0 
L -3.5 0 
" style="stroke: #000000; stroke-width: 0.8"/>
      </defs>
      <g>
       <use xlink:href="#m6314de2f2d" x="108" y="303.242919" style="stroke: #000000; stroke-width: 0.8"/>
      </g>
     </g>
     <g id="text_9">
      <!-- 32 -->
      <g style="fill: #808080" transform="translate(88.275 307.042138) scale(0.1 -0.1)">
       <use xlink:href="#DejaVuSans-33"/>
       <use xlink:href="#DejaVuSans-32" transform="translate(63.623047 0)"/>
      </g>
     </g>
    </g>
    <g id="ytick_2">
     <g id="line2d_9">
      <g>
       <use xlink:href="#m6314de2f2d" x="108" y="241.799129" style="stroke: #000000; stroke-width: 0.8"/>
      </g>
     </g>
     <g id="text_10">
      <!-- 34 -->
      <g style="fill: #808080" transform="translate(88.275 245.598348) scale(0.1 -0.1)">
       <defs>
        <path id="DejaVuSans-34" d="M 2419 4116 
L 825 1625 
L 2419 1625 
L 2419 4116 
z
M 2253 4666 
L 3047 4666 
L 3047 1625 
L 3713 1625 
L 3713 1100 
L 3047 1100 
L 3047 0 
L 2419 0 
L 2419 1100 
L 313 1100 
L 313 1709 
L 2253 4666 
z
" transform="scale(0.015625)"/>
       </defs>
       <use xlink:href="#DejaVuSans-33"/>
       <use xlink:href="#DejaVuSans-34" transform="translate(63.623047 0)"/>
      </g>
     </g>
    </g>
    <g id="ytick_3">
     <g id="line2d_10">
      <g>
       <use xlink:href="#m6314de2f2d" x="108" y="180.355339" style="stroke: #000000; stroke-width: 0.8"/>
      </g>
     </g>
     <g id="text_11">
      <!-- 36 -->
      <g style="fill: #808080" transform="translate(88.275 184.154558) scale(0.1 -0.1)">
       <defs>
        <path id="DejaVuSans-36" d="M 2113 2584 
Q 1688 2584 1439 2293 
Q 1191 2003 1191 1497 
Q 1191 994 1439 701 
Q 1688 409 2113 409 
Q 2538 409 2786 701 
Q 3034 994 3034 1497 
Q 3034 2003 2786 2293 
Q 2538 2584 2113 2584 
z
M 3366 4563 
L 3366 3988 
Q 3128 4100 2886 4159 
Q 2644 4219 2406 4219 
Q 1781 4219 1451 3797 
Q 1122 3375 1075 2522 
Q 1259 2794 1537 2939 
Q 1816 3084 2150 3084 
Q 2853 3084 3261 2657 
Q 3669 2231 3669 1497 
Q 3669 778 3244 343 
Q 2819 -91 2113 -91 
Q 1303 -91 875 529 
Q 447 1150 447 2328 
Q 447 3434 972 4092 
Q 1497 4750 2381 4750 
Q 2619 4750 2861 4703 
Q 3103 4656 3366 4563 
z
" transform="scale(0.015625)"/>
       </defs>
       <use xlink:href="#DejaVuSans-33"/>
       <use xlink:href="#DejaVuSans-36" transform="translate(63.623047 0)"/>
      </g>
     </g>
    </g>
    <g id="ytick_4">
     <g id="line2d_11">
      <g>
       <use xlink:href="#m6314de2f2d" x="108" y="118.91155" style="stroke: #000000; stroke-width: 0.8"/>
      </g>
     </g>
     <g id="text_12">
      <!-- 38 -->
      <g style="fill: #808080" transform="translate(88.275 122.710768) scale(0.1 -0.1)">
       <defs>
        <path id="DejaVuSans-38" d="M 2034 2216 
Q 1584 2216 1326 1975 
Q 1069 1734 1069 1313 
Q 1069 891 1326 650 
Q 1584 409 2034 409 
Q 2484 409 2743 651 
Q 3003 894 3003 1313 
Q 3003 1734 2745 1975 
Q 2488 2216 2034 2216 
z
M 1403 2484 
Q 997 2584 770 2862 
Q 544 3141 544 3541 
Q 544 4100 942 4425 
Q 1341 4750 2034 4750 
Q 2731 4750 3128 4425 
Q 3525 4100 3525 3541 
Q 3525 3141 3298 2862 
Q 3072 2584 2669 2484 
Q 3125 2378 3379 2068 
Q 3634 1759 3634 1313 
Q 3634 634 3220 271 
Q 2806 -91 2034 -91 
Q 1263 -91 848 271 
Q 434 634 434 1313 
Q 434 1759 690 2068 
Q 947 2378 1403 2484 
z
M 1172 3481 
Q 1172 3119 1398 2916 
Q 1625 2713 2034 2713 
Q 2441 2713 2670 2916 
Q 2900 3119 2900 3481 
Q 2900 3844 2670 4047 
Q 2441 4250 2034 4250 
Q 1625 4250 1398 4047 
Q 1172 3844 1172 3481 
z
" transform="scale(0.015625)"/>
       </defs>
       <use xlink:href="#DejaVuSans-33"/>
       <use xlink:href="#DejaVuSans-38" transform="translate(63.623047 0)"/>
      </g>
     </g>
    </g>
    <g id="ytick_5">
     <g id="line2d_12">
      <g>
       <use xlink:href="#m6314de2f2d" x="108" y="57.46776" style="stroke: #000000; stroke-width: 0.8"/>
      </g>
     </g>
     <g id="text_13">
      <!-- 40 -->
      <g style="fill: #808080" transform="translate(88.275 61.266979) scale(0.1 -0.1)">
       <use xlink:href="#DejaVuSans-34"/>
       <use xlink:href="#DejaVuSans-30" transform="translate(63.623047 0)"/>
      </g>
     </g>
    </g>
    <g id="text_14">
     <!-- Temperature (°C) -->
     <g style="fill: #808080" transform="translate(82.195312 224.951562) rotate(-90) scale(0.1 -0.1)">
      <defs>
       <path id="DejaVuSans-70" d="M 1159 525 
L 1159 -1331 
L 581 -1331 
L 581 3500 
L 1159 3500 
L 1159 2969 
Q 1341 3281 1617 3432 
Q 1894 3584 2278 3584 
Q 2916 3584 3314 3078 
Q 3713 2572 3713 1747 
Q 3713 922 3314 415 
Q 2916 -91 2278 -91 
Q 1894 -91 1617 61 
Q 1341 213 1159 525 
z
M 3116 1747 
Q 3116 2381 2855 2742 
Q 2594 3103 2138 3103 
Q 1681 3103 1420 2742 
Q 1159 2381 1159 1747 
Q 1159 1113 1420 752 
Q 1681 391 2138 391 
Q 2594 391 2855 752 
Q 3116 1113 3116 1747 
z
" transform="scale(0.015625)"/>
       <path id="DejaVuSans-72" d="M 2631 2963 
Q 2534 3019 2420 3045 
Q 2306 3072 2169 3072 
Q 1681 3072 1420 2755 
Q 1159 2438 1159 1844 
L 1159 0 
L 581 0 
L 581 3500 
L 1159 3500 
L 1159 2956 
Q 1341 3275 1631 3429 
Q 1922 3584 2338 3584 
Q 2397 3584 2469 3576 
Q 2541 3569 2628 3553 
L 2631 2963 
z
" transform="scale(0.015625)"/>
       <path id="DejaVuSans-61" d="M 2194 1759 
Q 1497 1759 1228 1600 
Q 959 1441 959 1056 
Q 959 750 1161 570 
Q 1363 391 1709 391 
Q 2188 391 2477 730 
Q 2766 1069 2766 1631 
L 2766 1759 
L 2194 1759 
z
M 3341 1997 
L 3341 0 
L 2766 0 
L 2766 531 
Q 2569 213 2275 61 
Q 1981 -91 1556 -91 
Q 1019 -91 701 211 
Q 384 513 384 1019 
Q 384 1609 779 1909 
Q 1175 2209 1959 2209 
L 2766 2209 
L 2766 2266 
Q 2766 2663 2505 2880 
Q 2244 3097 1772 3097 
Q 1472 3097 1187 3025 
Q 903 2953 641 2809 
L 641 3341 
Q 956 3463 1253 3523 
Q 1550 3584 1831 3584 
Q 2591 3584 2966 3190 
Q 3341 2797 3341 1997 
z
" transform="scale(0.015625)"/>
       <path id="DejaVuSans-74" d="M 1172 4494 
L 1172 3500 
L 2356 3500 
L 2356 3053 
L 1172 3053 
L 1172 1153 
Q 1172 725 1289 603 
Q 1406 481 1766 481 
L 2356 481 
L 2356 0 
L 1766 0 
Q 1100 0 847 248 
Q 594 497 594 1153 
L 594 3053 
L 172 3053 
L 172 3500 
L 594 3500 
L 594 4494 
L 1172 4494 
z
" transform="scale(0.015625)"/>
       <path id="DejaVuSans-75" d="M 544 1381 
L 544 3500 
L 1119 3500 
L 1119 1403 
Q 1119 906 1312 657 
Q 1506 409 1894 409 
Q 2359 409 2629 706 
Q 2900 1003 2900 1516 
L 2900 3500 
L 3475 3500 
L 3475 0 
L 2900 0 
L 2900 538 
Q 2691 219 2414 64 
Q 2138 -91 1772 -91 
Q 1169 -91 856 284 
Q 544 659 544 1381 
z
M 1991 3584 
L 1991 3584 
z
" transform="scale(0.015625)"/>
       <path id="DejaVuSans-b0" d="M 1600 4347 
Q 1350 4347 1178 4173 
Q 1006 4000 1006 3750 
Q 1006 3503 1178 3333 
Q 1350 3163 1600 3163 
Q 1850 3163 2022 3333 
Q 2194 3503 2194 3750 
Q 2194 3997 2020 4172 
Q 1847 4347 1600 4347 
z
M 1600 4750 
Q 1800 4750 1984 4673 
Q 2169 4597 2303 4453 
Q 2447 4313 2519 4134 
Q 2591 3956 2591 3750 
Q 2591 3338 2302 3052 
Q 2013 2766 1594 2766 
Q 1172 2766 890 3047 
Q 609 3328 609 3750 
Q 609 4169 896 4459 
Q 1184 4750 1600 4750 
z
" transform="scale(0.015625)"/>
       <path id="DejaVuSans-43" d="M 4122 4306 
L 4122 3641 
Q 3803 3938 3442 4084 
Q 3081 4231 2675 4231 
Q 1875 4231 1450 3742 
Q 1025 3253 1025 2328 
Q 1025 1406 1450 917 
Q 1875 428 2675 428 
Q 3081 428 3442 575 
Q 3803 722 4122 1019 
L 4122 359 
Q 3791 134 3420 21 
Q 3050 -91 2638 -91 
Q 1578 -91 968 557 
Q 359 1206 359 2328 
Q 359 3453 968 4101 
Q 1578 4750 2638 4750 
Q 3056 4750 3426 4639 
Q 3797 4528 4122 4306 
z
" transform="scale(0.015625)"/>
      </defs>
      <use xlink:href="#DejaVuSans-54"/>
      <use xlink:href="#DejaVuSans-65" transform="translate(44.083984 0)"/>
      <use xlink:href="#DejaVuSans-6d" transform="translate(105.607422 0)"/>
      <use xlink:href="#DejaVuSans-70" transform="translate(203.019531 0)"/>
      <use xlink:href="#DejaVuSans-65" transform="translate(266.496094 0)"/>
      <use xlink:href="#DejaVuSans-72" transform="translate(328.019531 0)"/>
      <use xlink:href="#DejaVuSans-61" transform="translate(369.132812 0)"/>
      <use xlink:href="#DejaVuSans-74" transform="translate(430.412109 0)"/>
      <use xlink:href="#DejaVuSans-75" transform="translate(469.621094 0)"/>
      <use xlink:href="#DejaVuSans-72" transform="translate(533 0)"/>
      <use xlink:href="#DejaVuSans-65" transform="translate(571.863281 0)"/>
      <use xlink:href="#DejaVuSans-20" transform="translate(633.386719 0)"/>
      <use xlink:href="#DejaVuSans-28" transform="translate(665.173828 0)"/>
      <use xlink:href="#DejaVuSans-b0" transform="translate(704.1875 0)"/>
      <use xlink:href="#DejaVuSans-43" transform="translate(754.1875 0)"/>
      <use xlink:href="#DejaVuSans-29" transform="translate(824.011719 0)"/>
     </g>
    </g>
   </g>
   <g id="line2d_13">
    <path d="M 105.9075 94.078018 
L 110.0925 85.168669 
L 112.185 80.114185 
L 114.2775 76.668944 
L 116.37 71.994827 
L 118.4625 67.810798 
L 120.555 63.970561 
L 122.6475 61.615216 
L 124.74 59.464683 
L 126.8325 58.44062 
L 128.925 57.006932 
L 131.0175 55.8 
L 133.11 56.019442 
L 135.2025 55.975554 
L 137.295 56.677768 
L 139.3875 56.458326 
L 143.5725 57.599425 
L 145.665 57.028876 
L 147.7575 57.160541 
L 149.85 56.853322 
L 151.9425 56.699713 
L 154.035 56.282773 
L 156.1275 56.282773 
L 158.22 56.809434 
L 162.405 57.072764 
L 164.4975 56.4949 
L 166.59 56.750916 
L 168.6825 56.341291 
L 170.775 56.955728 
L 172.8675 56.151107 
L 174.96 56.63388 
L 177.0525 56.853322 
L 179.145 57.511648 
L 181.2375 57.599425 
L 183.33 57.46776 
L 187.515 56.546103 
L 189.6075 57.160541 
L 191.7 57.109338 
L 193.7925 56.443697 
L 195.885 57.006932 
L 197.9775 58.338214 
L 200.07 57.994421 
L 202.1625 58.038309 
L 204.255 56.765545 
L 206.3475 57.028876 
L 208.44 56.63388 
L 210.5325 57.248318 
L 214.7175 57.314151 
L 216.81 57.46776 
L 218.9025 57.160541 
L 220.995 58.082198 
L 223.0875 57.511648 
L 225.18 57.211744 
L 227.2725 57.262947 
L 229.365 57.058135 
L 231.4575 57.672573 
L 233.55 57.416557 
L 237.735 56.443697 
L 239.8275 56.853322 
L 241.92 57.379983 
L 244.0125 57.643314 
L 246.105 57.621369 
L 248.1975 57.211744 
L 250.29 57.621369 
L 252.3825 57.109338 
L 256.5675 57.109338 
L 258.66 57.672573 
L 260.7525 57.46776 
L 262.845 56.984987 
L 264.9375 57.774979 
L 267.03 56.897211 
L 269.1225 56.589992 
L 273.3075 57.416557 
L 275.4 56.955728 
L 277.4925 57.672573 
L 279.585 56.853322 
L 281.6775 57.292206 
L 283.77 57.379983 
L 285.8625 57.599425 
L 287.955 56.941099 
L 292.14 57.314151 
L 294.2325 57.058135 
L 300.51 57.336095 
L 302.6025 57.774979 
L 304.695 57.160541 
L 306.7875 57.423872 
L 308.88 57.248318 
L 310.9725 57.248318 
L 313.065 57.379983 
L 315.1575 57.994421 
L 317.25 57.116653 
L 319.3425 57.160541 
L 321.435 57.46776 
L 323.5275 56.904525 
L 325.62 57.774979 
L 327.7125 58.521082 
L 331.8975 57.555537 
L 333.99 56.546103 
L 336.0825 57.160541 
L 338.175 57.46776 
L 340.2675 56.955728 
L 342.36 57.262947 
L 344.4525 57.160541 
L 346.545 56.809434 
L 348.6375 57.511648 
L 352.8225 57.116653 
L 357.0075 58.44062 
L 359.1 57.877385 
L 361.1925 57.723776 
L 363.285 56.802119 
L 365.3775 57.248318 
L 367.47 57.379983 
L 371.655 57.46776 
L 373.7475 57.511648 
L 375.84 57.379983 
L 377.9325 57.116653 
L 380.025 57.365354 
L 382.1175 57.365354 
L 384.21 56.984987 
L 386.3025 57.555537 
L 388.395 57.248318 
L 390.4875 58.433305 
L 392.58 57.723776 
L 394.6725 57.928588 
L 396.765 58.338214 
L 400.95 57.314151 
L 403.0425 57.211744 
L 407.2275 56.370549 
L 409.32 57.379983 
L 411.4125 57.687202 
L 413.505 57.336095 
L 415.5975 57.365354 
L 417.69 58.184604 
L 419.7825 57.774979 
L 421.875 57.518963 
L 423.9675 57.518963 
L 426.06 56.546103 
L 428.1525 56.546103 
L 430.245 56.853322 
L 432.3375 57.687202 
L 434.43 57.672573 
L 436.5225 56.750916 
L 440.7075 57.211744 
L 442.8 57.774979 
L 444.8925 57.336095 
L 446.985 58.608859 
L 449.0775 57.774979 
L 451.17 57.423872 
L 453.2625 57.262947 
L 455.355 56.904525 
L 457.4475 56.802119 
L 459.54 57.262947 
L 461.6325 57.570166 
L 463.725 56.984987 
L 465.8175 57.731091 
L 467.91 56.984987 
L 470.0025 56.941099 
L 472.095 57.204429 
L 474.1875 57.262947 
L 476.28 58.287011 
L 478.3725 57.314151 
L 480.465 57.928588 
L 482.5575 57.46776 
L 484.65 58.030995 
L 486.7425 58.213863 
L 488.835 57.643314 
L 490.9275 58.082198 
L 493.02 56.941099 
L 495.1125 58.038309 
L 497.205 56.955728 
L 499.2975 57.365354 
L 501.39 57.518963 
L 503.4825 57.336095 
L 505.575 57.818867 
L 507.6675 56.897211 
L 509.76 57.687202 
L 511.8525 57.028876 
L 513.945 57.46776 
L 516.0375 57.416557 
L 518.13 57.518963 
L 520.2225 57.774979 
L 522.315 57.006932 
L 526.5 57.336095 
L 528.5925 56.721657 
L 530.685 56.589992 
L 532.7775 57.774979 
L 534.87 57.072764 
L 536.9625 57.687202 
L 539.055 56.853322 
L 541.1475 58.082198 
L 543.24 58.133401 
L 547.425 57.46776 
L 553.7025 56.897211 
L 555.795 57.072764 
L 557.8875 57.109338 
L 559.98 56.648509 
L 564.165 57.599425 
L 566.2575 57.204429 
L 568.35 58.126086 
L 570.4425 58.477194 
L 572.535 58.477194 
L 574.6275 57.336095 
L 576.72 57.211744 
L 580.905 57.826182 
L 582.9975 57.262947 
L 585.09 57.416557 
L 587.1825 57.379983 
L 589.275 57.599425 
L 591.3675 58.082198 
L 593.46 58.038309 
L 595.5525 56.941099 
L 597.645 56.392494 
L 599.7375 56.955728 
L 603.9225 57.46776 
L 606.015 57.511648 
L 610.2 57.160541 
L 612.2925 57.672573 
L 614.385 57.877385 
L 616.4775 57.818867 
L 618.57 58.038309 
L 620.6625 56.326661 
L 622.755 56.721657 
L 624.8475 57.672573 
L 626.94 56.853322 
L 629.0325 56.597306 
L 631.125 57.826182 
L 633.2175 57.826182 
L 635.31 57.570166 
L 637.4025 57.731091 
L 639.495 57.292206 
L 645.7725 57.621369 
L 649.9575 57.058135 
L 652.05 58.287011 
L 654.1425 57.621369 
L 658.3275 56.63388 
L 660.42 57.46776 
L 662.5125 57.774979 
L 664.605 57.862756 
L 666.6975 56.648509 
L 668.79 57.46776 
L 670.8825 57.862756 
L 672.975 57.379983 
L 675.0675 58.082198 
L 677.16 57.262947 
L 679.2525 57.570166 
L 681.345 57.570166 
L 683.4375 57.211744 
L 685.53 57.599425 
L 689.715 57.687202 
L 691.8075 57.379983 
L 693.9 57.379983 
L 695.9925 56.941099 
L 700.1775 57.46776 
L 702.27 57.314151 
L 704.3625 57.928588 
L 706.455 56.443697 
L 708.5475 57.46776 
L 710.64 56.765545 
L 712.7325 57.643314 
L 714.825 57.643314 
L 719.01 57.160541 
L 721.1025 57.262947 
L 723.195 57.877385 
L 725.2875 57.928588 
L 727.38 57.365354 
L 729.4725 57.621369 
L 731.565 57.423872 
L 733.6575 57.774979 
L 735.75 57.379983 
L 737.8425 57.365354 
L 739.935 57.774979 
L 742.0275 58.338214 
L 744.12 57.211744 
L 748.305 57.687202 
L 750.3975 58.169975 
L 752.49 57.555537 
L 754.5825 57.336095 
L 756.675 57.599425 
L 758.7675 57.687202 
L 760.86 56.699713 
L 762.9525 58.338214 
L 765.045 63.868155 
L 767.1375 75.030443 
L 769.23 89.418531 
L 777.6 164.379954 
L 779.6925 182.154765 
L 779.6925 182.154765 
" clip-path="url(#p7d00532b0e)" style="fill: none; stroke: #808080; stroke-opacity: 0.7; stroke-width: 1.5; stroke-linecap: square"/>
   </g>
   <g id="patch_3">
    <path d="M 108 320.4 
L 108 43.2 
" style="fill: none; stroke: #000000; stroke-width: 0.8; stroke-linejoin: miter; stroke-linecap: square"/>
   </g>
   <g id="patch_4">
    <path d="M 777.6 320.4 
L 777.6 43.2 
" style="fill: none; stroke: #000000; stroke-width: 0.8; stroke-linejoin: miter; stroke-linecap: square"/>
   </g>
   <g id="patch_5">
    <path d="M 108 320.4 
L 777.6 320.4 
" style="fill: none; stroke: #000000; stroke-width: 0.8; stroke-linejoin: miter; stroke-linecap: square"/>
   </g>
   <g id="patch_6">
    <path d="M 108 43.2 
L 777.6 43.2 
" style="fill: none; stroke: #000000; stroke-width: 0.8; stroke-linejoin: miter; stroke-linecap: square"/>
   </g>
  </g>
  <g id="axes_2">
   <g id="matplotlib.axis_3">
    <g id="ytick_6">
     <g id="line2d_14">
      <defs>
       <path id="m1a39b24b3f" d="M 0 0 
L 3.5 0 
" style="stroke: #000000; stroke-width: 0.8"/>
      </defs>
      <g>
       <use xlink:href="#m1a39b24b3f" x="777.6" y="307.8" style="stroke: #000000; stroke-width: 0.8"/>
      </g>
     </g>
     <g id="text_15">
      <!-- 0 -->
      <g style="fill: #dc143c" transform="translate(784.6 311.599219) scale(0.1 -0.1)">
       <use xlink:href="#DejaVuSans-30"/>
      </g>
     </g>
    </g>
    <g id="ytick_7">
     <g id="line2d_15">
      <g>
       <use xlink:href="#m1a39b24b3f" x="777.6" y="249.195349" style="stroke: #000000; stroke-width: 0.8"/>
      </g>
     </g>
     <g id="text_16">
      <!-- 20 -->
      <g style="fill: #dc143c" transform="translate(784.6 252.994568) scale(0.1 -0.1)">
       <use xlink:href="#DejaVuSans-32"/>
       <use xlink:href="#DejaVuSans-30" transform="translate(63.623047 0)"/>
      </g>
     </g>
    </g>
    <g id="ytick_8">
     <g id="line2d_16">
      <g>
       <use xlink:href="#m1a39b24b3f" x="777.6" y="190.590698" style="stroke: #000000; stroke-width: 0.8"/>
      </g>
     </g>
     <g id="text_17">
      <!-- 40 -->
      <g style="fill: #dc143c" transform="translate(784.6 194.389916) scale(0.1 -0.1)">
       <use xlink:href="#DejaVuSans-34"/>
       <use xlink:href="#DejaVuSans-30" transform="translate(63.623047 0)"/>
      </g>
     </g>
    </g>
    <g id="ytick_9">
     <g id="line2d_17">
      <g>
       <use xlink:href="#m1a39b24b3f" x="777.6" y="131.986047" style="stroke: #000000; stroke-width: 0.8"/>
      </g>
     </g>
     <g id="text_18">
      <!-- 60 -->
      <g style="fill: #dc143c" transform="translate(784.6 135.785265) scale(0.1 -0.1)">
       <use xlink:href="#DejaVuSans-36"/>
       <use xlink:href="#DejaVuSans-30" transform="translate(63.623047 0)"/>
      </g>
     </g>
    </g>
    <g id="ytick_10">
     <g id="line2d_18">
      <g>
       <use xlink:href="#m1a39b24b3f" x="777.6" y="73.381395" style="stroke: #000000; stroke-width: 0.8"/>
      </g>
     </g>
     <g id="text_19">
      <!-- 80 -->
      <g style="fill: #dc143c" transform="translate(784.6 77.180614) scale(0.1 -0.1)">
       <use xlink:href="#DejaVuSans-38"/>
       <use xlink:href="#DejaVuSans-30" transform="translate(63.623047 0)"/>
      </g>
     </g>
    </g>
    <g id="text_20">
     <!-- Pain Rating -->
     <g style="fill: #dc143c" transform="translate(808.923438 209.91875) rotate(-90) scale(0.1 -0.1)">
      <defs>
       <path id="DejaVuSans-50" d="M 1259 4147 
L 1259 2394 
L 2053 2394 
Q 2494 2394 2734 2622 
Q 2975 2850 2975 3272 
Q 2975 3691 2734 3919 
Q 2494 4147 2053 4147 
L 1259 4147 
z
M 628 4666 
L 2053 4666 
Q 2838 4666 3239 4311 
Q 3641 3956 3641 3272 
Q 3641 2581 3239 2228 
Q 2838 1875 2053 1875 
L 1259 1875 
L 1259 0 
L 628 0 
L 628 4666 
z
" transform="scale(0.015625)"/>
       <path id="DejaVuSans-52" d="M 2841 2188 
Q 3044 2119 3236 1894 
Q 3428 1669 3622 1275 
L 4263 0 
L 3584 0 
L 2988 1197 
Q 2756 1666 2539 1819 
Q 2322 1972 1947 1972 
L 1259 1972 
L 1259 0 
L 628 0 
L 628 4666 
L 2053 4666 
Q 2853 4666 3247 4331 
Q 3641 3997 3641 3322 
Q 3641 2881 3436 2590 
Q 3231 2300 2841 2188 
z
M 1259 4147 
L 1259 2491 
L 2053 2491 
Q 2509 2491 2742 2702 
Q 2975 2913 2975 3322 
Q 2975 3731 2742 3939 
Q 2509 4147 2053 4147 
L 1259 4147 
z
" transform="scale(0.015625)"/>
      </defs>
      <use xlink:href="#DejaVuSans-50"/>
      <use xlink:href="#DejaVuSans-61" transform="translate(55.802734 0)"/>
      <use xlink:href="#DejaVuSans-69" transform="translate(117.082031 0)"/>
      <use xlink:href="#DejaVuSans-6e" transform="translate(144.865234 0)"/>
      <use xlink:href="#DejaVuSans-20" transform="translate(208.244141 0)"/>
      <use xlink:href="#DejaVuSans-52" transform="translate(240.03125 0)"/>
      <use xlink:href="#DejaVuSans-61" transform="translate(307.263672 0)"/>
      <use xlink:href="#DejaVuSans-74" transform="translate(368.542969 0)"/>
      <use xlink:href="#DejaVuSans-69" transform="translate(407.751953 0)"/>
      <use xlink:href="#DejaVuSans-6e" transform="translate(435.535156 0)"/>
      <use xlink:href="#DejaVuSans-67" transform="translate(498.914062 0)"/>
     </g>
    </g>
   </g>
   <g id="line2d_19">
    <path d="M 105.9075 92.427907 
L 108 92.427907 
L 110.0925 91.451163 
L 112.185 89.288372 
L 114.2775 93.404651 
L 116.37 91.8 
L 118.4625 90.962791 
L 120.555 92.427907 
L 124.74 92.427907 
L 126.8325 89.497674 
L 128.925 90.962791 
L 131.0175 91.8 
L 133.11 86.35814 
L 135.2025 72.125581 
L 137.295 63.753488 
L 139.3875 61.660465 
L 141.48 60.823256 
L 143.5725 57.474419 
L 145.665 56.218605 
L 147.7575 59.218605 
L 149.85 56.776744 
L 151.9425 58.730233 
L 154.035 59.148837 
L 156.1275 58.311628 
L 158.22 59.567442 
L 160.3125 57.474419 
L 162.405 57.055814 
L 164.4975 56.288372 
L 166.59 58.24186 
L 168.6825 58.730233 
L 170.775 60.195349 
L 172.8675 58.311628 
L 174.96 58.730233 
L 177.0525 57.893023 
L 179.145 58.311628 
L 181.2375 58.311628 
L 183.33 58.730233 
L 185.4225 58.730233 
L 187.515 59.218605 
L 189.6075 56.288372 
L 191.7 59.218605 
L 193.7925 59.706977 
L 195.885 58.730233 
L 197.9775 59.706977 
L 200.07 59.148837 
L 202.1625 58.311628 
L 206.3475 57.474419 
L 208.44 59.148837 
L 210.5325 55.8 
L 212.625 58.730233 
L 214.7175 59.706977 
L 216.81 58.24186 
L 220.995 59.148837 
L 223.0875 60.823256 
L 225.18 58.730233 
L 227.2725 60.195349 
L 229.365 57.265116 
L 231.4575 60.195349 
L 233.55 57.265116 
L 235.6425 60.195349 
L 237.735 57.265116 
L 239.8275 59.986047 
L 241.92 56.218605 
L 244.0125 59.567442 
L 246.105 58.730233 
L 248.1975 57.753488 
L 252.3825 60.683721 
L 254.475 57.265116 
L 256.5675 61.172093 
L 258.66 58.730233 
L 260.7525 61.660465 
L 262.845 57.474419 
L 264.9375 60.404651 
L 267.03 61.24186 
L 269.1225 56.637209 
L 271.215 58.730233 
L 273.3075 56.776744 
L 275.4 58.730233 
L 277.4925 56.288372 
L 279.585 57.265116 
L 281.6775 57.055814 
L 283.77 58.311628 
L 285.8625 58.311628 
L 287.955 55.8 
L 290.0475 56.288372 
L 292.14 60.683721 
L 294.2325 58.24186 
L 296.325 58.24186 
L 298.4175 57.753488 
L 300.51 60.823256 
L 302.6025 57.893023 
L 304.695 60.823256 
L 306.7875 59.148837 
L 308.88 55.8 
L 310.9725 57.893023 
L 313.065 58.311628 
L 315.1575 58.311628 
L 317.25 61.24186 
L 319.3425 56.776744 
L 321.435 59.218605 
L 325.62 57.265116 
L 327.7125 57.474419 
L 329.805 60.404651 
L 331.8975 59.986047 
L 333.99 58.730233 
L 338.175 55.8 
L 342.36 55.8 
L 344.4525 57.265116 
L 346.545 55.8 
L 350.73 55.8 
L 352.8225 59.567442 
L 354.915 58.730233 
L 357.0075 58.24186 
L 359.1 58.730233 
L 361.1925 56.776744 
L 363.285 61.172093 
L 367.47 57.055814 
L 369.5625 61.24186 
L 371.655 60.823256 
L 373.7475 58.730233 
L 375.84 56.218605 
L 377.9325 55.8 
L 380.025 55.8 
L 382.1175 58.24186 
L 384.21 59.148837 
L 386.3025 57.474419 
L 388.395 61.24186 
L 390.4875 73.381395 
L 392.58 80.218605 
L 396.765 83.148837 
L 398.8575 83.148837 
L 400.95 79.730233 
L 403.0425 83.637209 
L 405.135 80.497674 
L 407.2275 82.172093 
L 409.32 82.172093 
L 411.4125 83.846512 
L 413.505 84.265116 
L 415.5975 82.660465 
L 417.69 80.218605 
L 419.7825 84.613953 
L 421.875 83.148837 
L 423.9675 82.660465 
L 426.06 82.590698 
L 428.1525 84.683721 
L 430.245 82.172093 
L 432.3375 83.846512 
L 434.43 83.637209 
L 436.5225 83.637209 
L 438.615 85.102326 
L 444.8925 85.102326 
L 446.985 83.846512 
L 449.0775 83.846512 
L 451.17 84.683721 
L 453.2625 82.172093 
L 455.355 82.660465 
L 457.4475 85.102326 
L 459.54 84.125581 
L 461.6325 79.730233 
L 463.725 79.24186 
L 465.8175 80.916279 
L 467.91 83.427907 
L 470.0025 83.427907 
L 472.095 85.102326 
L 474.1875 84.125581 
L 476.28 82.172093 
L 478.3725 84.613953 
L 480.465 85.102326 
L 482.5575 83.637209 
L 484.65 85.102326 
L 486.7425 84.265116 
L 488.835 83.009302 
L 490.9275 85.102326 
L 493.02 85.102326 
L 495.1125 82.172093 
L 497.205 83.148837 
L 499.2975 81.683721 
L 501.39 81.683721 
L 503.4825 88.869767 
L 505.575 99.334884 
L 507.6675 113.148837 
L 509.76 124.869767 
L 511.8525 141.195349 
L 513.945 149.567442 
L 516.0375 166.660465 
L 518.13 171.055814 
L 520.2225 174.962791 
L 522.315 175.451163 
L 524.4075 171.753488 
L 526.5 173.427907 
L 528.5925 174.265116 
L 530.685 174.683721 
L 532.7775 175.939535 
L 534.87 173.009302 
L 536.9625 172.172093 
L 539.055 174.265116 
L 541.1475 174.474419 
L 543.24 175.939535 
L 545.3325 175.939535 
L 547.425 173.009302 
L 549.5175 171.544186 
L 551.61 173.009302 
L 553.7025 174.265116 
L 555.795 174.683721 
L 557.8875 174.474419 
L 559.98 175.451163 
L 562.0725 175.939535 
L 564.165 175.102326 
L 566.2575 176.35814 
L 568.35 173.009302 
L 570.4425 170.497674 
L 572.535 170.07907 
L 574.6275 170.07907 
L 576.72 173.986047 
L 578.8125 173.009302 
L 580.905 170.567442 
L 582.9975 173.497674 
L 585.09 172.52093 
L 587.1825 171.753488 
L 589.275 173.009302 
L 591.3675 170.916279 
L 595.5525 173.427907 
L 597.645 174.474419 
L 599.7375 171.544186 
L 601.83 172.52093 
L 603.9225 170.07907 
L 606.015 170.497674 
L 608.1075 173.009302 
L 610.2 174.474419 
L 612.2925 172.52093 
L 614.385 170.07907 
L 616.4775 171.753488 
L 618.57 172.590698 
L 620.6625 171.753488 
L 622.755 174.683721 
L 624.8475 173.009302 
L 626.94 171.544186 
L 629.0325 171.544186 
L 631.125 174.474419 
L 633.2175 175.939535 
L 635.31 175.939535 
L 637.4025 172.172093 
L 639.495 171.334884 
L 641.5875 173.009302 
L 643.68 171.055814 
L 645.7725 174.474419 
L 647.865 173.986047 
L 649.9575 175.939535 
L 652.05 173.497674 
L 654.1425 175.451163 
L 656.235 175.102326 
L 658.3275 172.172093 
L 660.42 172.590698 
L 662.5125 172.590698 
L 664.605 173.009302 
L 666.6975 172.032558 
L 668.79 174.962791 
L 670.8825 175.939535 
L 672.975 174.683721 
L 675.0675 172.590698 
L 677.16 174.474419 
L 679.2525 171.055814 
L 681.345 173.986047 
L 683.4375 173.497674 
L 685.53 170.07907 
L 687.6225 170.497674 
L 689.715 174.265116 
L 691.8075 170.916279 
L 693.9 175.102326 
L 695.9925 170.07907 
L 698.085 170.497674 
L 700.1775 171.544186 
L 704.3625 174.474419 
L 706.455 171.055814 
L 708.5475 170.497674 
L 710.64 171.753488 
L 712.7325 171.753488 
L 714.825 173.846512 
L 716.9175 171.544186 
L 719.01 174.474419 
L 723.195 171.544186 
L 725.2875 174.474419 
L 727.38 170.07907 
L 729.4725 173.009302 
L 731.565 174.683721 
L 733.6575 174.683721 
L 735.75 175.52093 
L 737.8425 175.939535 
L 739.935 172.52093 
L 742.0275 171.055814 
L 744.12 174.474419 
L 746.2125 170.567442 
L 748.305 171.753488 
L 750.3975 175.939535 
L 752.49 172.590698 
L 754.5825 175.102326 
L 756.675 170.497674 
L 758.7675 172.590698 
L 760.86 171.544186 
L 762.9525 173.009302 
L 765.045 171.544186 
L 767.1375 174.474419 
L 769.23 172.032558 
L 771.3225 171.544186 
L 773.415 174.962791 
L 775.5075 174.474419 
L 777.6 174.683721 
L 779.6925 173.846512 
L 779.6925 173.846512 
" clip-path="url(#p7d00532b0e)" style="fill: none; stroke: #dc143c; stroke-width: 2; stroke-linecap: square"/>
   </g>
   <g id="patch_7">
    <path d="M 108 320.4 
L 108 43.2 
" style="fill: none; stroke: #000000; stroke-width: 0.8; stroke-linejoin: miter; stroke-linecap: square"/>
   </g>
   <g id="patch_8">
    <path d="M 777.6 320.4 
L 777.6 43.2 
" style="fill: none; stroke: #000000; stroke-width: 0.8; stroke-linejoin: miter; stroke-linecap: square"/>
   </g>
   <g id="patch_9">
    <path d="M 108 320.4 
L 777.6 320.4 
" style="fill: none; stroke: #000000; stroke-width: 0.8; stroke-linejoin: miter; stroke-linecap: square"/>
   </g>
   <g id="patch_10">
    <path d="M 108 43.2 
L 777.6 43.2 
" style="fill: none; stroke: #000000; stroke-width: 0.8; stroke-linejoin: miter; stroke-linecap: square"/>
   </g>
   <g id="text_21">
    <g id="text_22">
     <g id="text_23">
      <!-- Example t2_hold (Subject 134, Trial 2) -->
      <g transform="translate(328.568438 37.2) scale(0.12 -0.12)">
       <defs>
        <path id="DejaVuSans-45" d="M 628 4666 
L 3578 4666 
L 3578 4134 
L 1259 4134 
L 1259 2753 
L 3481 2753 
L 3481 2222 
L 1259 2222 
L 1259 531 
L 3634 531 
L 3634 0 
L 628 0 
L 628 4666 
z
" transform="scale(0.015625)"/>
        <path id="DejaVuSans-78" d="M 3513 3500 
L 2247 1797 
L 3578 0 
L 2900 0 
L 1881 1375 
L 863 0 
L 184 0 
L 1544 1831 
L 300 3500 
L 978 3500 
L 1906 2253 
L 2834 3500 
L 3513 3500 
z
" transform="scale(0.015625)"/>
        <path id="DejaVuSans-5f" d="M 3263 -1063 
L 3263 -1509 
L -63 -1509 
L -63 -1063 
L 3263 -1063 
z
" transform="scale(0.015625)"/>
        <path id="DejaVuSans-68" d="M 3513 2113 
L 3513 0 
L 2938 0 
L 2938 2094 
Q 2938 2591 2744 2837 
Q 2550 3084 2163 3084 
Q 1697 3084 1428 2787 
Q 1159 2491 1159 1978 
L 1159 0 
L 581 0 
L 581 4863 
L 1159 4863 
L 1159 2956 
Q 1366 3272 1645 3428 
Q 1925 3584 2291 3584 
Q 2894 3584 3203 3211 
Q 3513 2838 3513 2113 
z
" transform="scale(0.015625)"/>
        <path id="DejaVuSans-6f" d="M 1959 3097 
Q 1497 3097 1228 2736 
Q 959 2375 959 1747 
Q 959 1119 1226 758 
Q 1494 397 1959 397 
Q 2419 397 2687 759 
Q 2956 1122 2956 1747 
Q 2956 2369 2687 2733 
Q 2419 3097 1959 3097 
z
M 1959 3584 
Q 2709 3584 3137 3096 
Q 3566 2609 3566 1747 
Q 3566 888 3137 398 
Q 2709 -91 1959 -91 
Q 1206 -91 779 398 
Q 353 888 353 1747 
Q 353 2609 779 3096 
Q 1206 3584 1959 3584 
z
" transform="scale(0.015625)"/>
        <path id="DejaVuSans-53" d="M 3425 4513 
L 3425 3897 
Q 3066 4069 2747 4153 
Q 2428 4238 2131 4238 
Q 1616 4238 1336 4038 
Q 1056 3838 1056 3469 
Q 1056 3159 1242 3001 
Q 1428 2844 1947 2747 
L 2328 2669 
Q 3034 2534 3370 2195 
Q 3706 1856 3706 1288 
Q 3706 609 3251 259 
Q 2797 -91 1919 -91 
Q 1588 -91 1214 -16 
Q 841 59 441 206 
L 441 856 
Q 825 641 1194 531 
Q 1563 422 1919 422 
Q 2459 422 2753 634 
Q 3047 847 3047 1241 
Q 3047 1584 2836 1778 
Q 2625 1972 2144 2069 
L 1759 2144 
Q 1053 2284 737 2584 
Q 422 2884 422 3419 
Q 422 4038 858 4394 
Q 1294 4750 2059 4750 
Q 2388 4750 2728 4690 
Q 3069 4631 3425 4513 
z
" transform="scale(0.015625)"/>
        <path id="DejaVuSans-62" d="M 3116 1747 
Q 3116 2381 2855 2742 
Q 2594 3103 2138 3103 
Q 1681 3103 1420 2742 
Q 1159 2381 1159 1747 
Q 1159 1113 1420 752 
Q 1681 391 2138 391 
Q 2594 391 2855 752 
Q 3116 1113 3116 1747 
z
M 1159 2969 
Q 1341 3281 1617 3432 
Q 1894 3584 2278 3584 
Q 2916 3584 3314 3078 
Q 3713 2572 3713 1747 
Q 3713 922 3314 415 
Q 2916 -91 2278 -91 
Q 1894 -91 1617 61 
Q 1341 213 1159 525 
L 1159 0 
L 581 0 
L 581 4863 
L 1159 4863 
L 1159 2969 
z
" transform="scale(0.015625)"/>
        <path id="DejaVuSans-6a" d="M 603 3500 
L 1178 3500 
L 1178 -63 
Q 1178 -731 923 -1031 
Q 669 -1331 103 -1331 
L -116 -1331 
L -116 -844 
L 38 -844 
Q 366 -844 484 -692 
Q 603 -541 603 -63 
L 603 3500 
z
M 603 4863 
L 1178 4863 
L 1178 4134 
L 603 4134 
L 603 4863 
z
" transform="scale(0.015625)"/>
        <path id="DejaVuSans-63" d="M 3122 3366 
L 3122 2828 
Q 2878 2963 2633 3030 
Q 2388 3097 2138 3097 
Q 1578 3097 1268 2742 
Q 959 2388 959 1747 
Q 959 1106 1268 751 
Q 1578 397 2138 397 
Q 2388 397 2633 464 
Q 2878 531 3122 666 
L 3122 134 
Q 2881 22 2623 -34 
Q 2366 -91 2075 -91 
Q 1284 -91 818 406 
Q 353 903 353 1747 
Q 353 2603 823 3093 
Q 1294 3584 2113 3584 
Q 2378 3584 2631 3529 
Q 2884 3475 3122 3366 
z
" transform="scale(0.015625)"/>
        <path id="DejaVuSans-2c" d="M 750 794 
L 1409 794 
L 1409 256 
L 897 -744 
L 494 -744 
L 750 256 
L 750 794 
z
" transform="scale(0.015625)"/>
       </defs>
       <use xlink:href="#DejaVuSans-45"/>
       <use xlink:href="#DejaVuSans-78" transform="translate(63.183594 0)"/>
       <use xlink:href="#DejaVuSans-61" transform="translate(122.363281 0)"/>
       <use xlink:href="#DejaVuSans-6d" transform="translate(183.642578 0)"/>
       <use xlink:href="#DejaVuSans-70" transform="translate(281.054688 0)"/>
       <use xlink:href="#DejaVuSans-6c" transform="translate(344.53125 0)"/>
       <use xlink:href="#DejaVuSans-65" transform="translate(372.314453 0)"/>
       <use xlink:href="#DejaVuSans-20" transform="translate(433.837891 0)"/>
       <use xlink:href="#DejaVuSans-74" transform="translate(465.625 0)"/>
       <use xlink:href="#DejaVuSans-32" transform="translate(504.833984 0)"/>
       <use xlink:href="#DejaVuSans-5f" transform="translate(568.457031 0)"/>
       <use xlink:href="#DejaVuSans-68" transform="translate(618.457031 0)"/>
       <use xlink:href="#DejaVuSans-6f" transform="translate(681.835938 0)"/>
       <use xlink:href="#DejaVuSans-6c" transform="translate(743.017578 0)"/>
       <use xlink:href="#DejaVuSans-64" transform="translate(770.800781 0)"/>
       <use xlink:href="#DejaVuSans-20" transform="translate(834.277344 0)"/>
       <use xlink:href="#DejaVuSans-28" transform="translate(866.064453 0)"/>
       <use xlink:href="#DejaVuSans-53" transform="translate(905.078125 0)"/>
       <use xlink:href="#DejaVuSans-75" transform="translate(968.554688 0)"/>
       <use xlink:href="#DejaVuSans-62" transform="translate(1031.933594 0)"/>
       <use xlink:href="#DejaVuSans-6a" transform="translate(1095.410156 0)"/>
       <use xlink:href="#DejaVuSans-65" transform="translate(1123.193359 0)"/>
       <use xlink:href="#DejaVuSans-63" transform="translate(1184.716797 0)"/>
       <use xlink:href="#DejaVuSans-74" transform="translate(1239.697266 0)"/>
       <use xlink:href="#DejaVuSans-20" transform="translate(1278.90625 0)"/>
       <use xlink:href="#DejaVuSans-31" transform="translate(1310.693359 0)"/>
       <use xlink:href="#DejaVuSans-33" transform="translate(1374.316406 0)"/>
       <use xlink:href="#DejaVuSans-34" transform="translate(1437.939453 0)"/>
       <use xlink:href="#DejaVuSans-2c" transform="translate(1501.5625 0)"/>
       <use xlink:href="#DejaVuSans-20" transform="translate(1533.349609 0)"/>
       <use xlink:href="#DejaVuSans-54" transform="translate(1565.136719 0)"/>
       <use xlink:href="#DejaVuSans-72" transform="translate(1611.470703 0)"/>
       <use xlink:href="#DejaVuSans-69" transform="translate(1652.583984 0)"/>
       <use xlink:href="#DejaVuSans-61" transform="translate(1680.367188 0)"/>
       <use xlink:href="#DejaVuSans-6c" transform="translate(1741.646484 0)"/>
       <use xlink:href="#DejaVuSans-20" transform="translate(1769.429688 0)"/>
       <use xlink:href="#DejaVuSans-32" transform="translate(1801.216797 0)"/>
       <use xlink:href="#DejaVuSans-29" transform="translate(1864.839844 0)"/>
      </g>
     </g>
     <g id="PathCollection_1">
      <defs>
       <path id="m1d366e15ca" d="M 0 3.872983 
C 1.027127 3.872983 2.012324 3.464901 2.738613 2.738613 
C 3.464901 2.012324 3.872983 1.027127 3.872983 0 
C 3.872983 -1.027127 3.464901 -2.012324 2.738613 -2.738613 
C 2.012324 -3.464901 1.027127 -3.872983 0 -3.872983 
C -1.027127 -3.872983 -2.012324 -3.464901 -2.738613 -2.738613 
C -3.464901 -2.012324 -3.872983 -1.027127 -3.872983 0 
C -3.872983 1.027127 -3.464901 2.012324 -2.738613 2.738613 
C -2.012324 3.464901 -1.027127 3.872983 0 3.872983 
z
" style="stroke: #000000"/>
      </defs>
      <g clip-path="url(#p7d00532b0e)"/>
     </g>
    </g>
   </g>
   <defs>
    <clipPath id="p7d00532b0e">
     <rect x="108" y="43.2" width="669.6" height="277.2"/>
    </clipPath>
   </defs>
  </g>
 </g>
</svg>
