<?xml version="1.0" encoding="utf-8" standalone="no"?>
<!DOCTYPE svg PUBLIC "-//W3C//DTD SVG 1.1//EN"
  "http://www.w3.org/Graphics/SVG/1.1/DTD/svg11.dtd">
<svg xmlns:xlink="http://www.w3.org/1999/xlink" width="864pt" height="360pt" viewBox="0 0 864 360" xmlns="http://www.w3.org/2000/svg" version="1.1">
 <metadata>
  <rdf:RDF xmlns:dc="http://purl.org/dc/elements/1.1/" xmlns:cc="http://creativecommons.org/ns#" xmlns:rdf="http://www.w3.org/1999/02/22-rdf-syntax-ns#">
   <cc:Work>
    <dc:type rdf:resource="http://purl.org/dc/dcmitype/StillImage"/>
    <dc:date>2025-12-17T12:24:40.635728</dc:date>
    <dc:format>image/svg+xml</dc:format>
    <dc:creator>
     <cc:Agent>
      <dc:title>Matplotlib v3.10.1, https://matplotlib.org/</dc:title>
     </cc:Agent>
    </dc:creator>
   </cc:Work>
  </rdf:RDF>
 </metadata>
 <defs>
  <style type="text/css">*{stroke-linejoin: round; stroke-linecap: butt}</style>
 </defs>
 <g id="figure_1">
  <g id="patch_1">
   <path d="M 0 360 
L 864 360 
L 864 0 
L 0 0 
z
" style="fill: #ffffff"/>
  </g>
  <g id="axes_1">
   <g id="patch_2">
    <path d="M 108 320.4 
L 777.6 320.4 
L 777.6 43.2 
L 108 43.2 
z
" style="fill: #ffffff"/>
   </g>
   <g id="matplotlib.axis_1">
    <g id="xtick_1">
     <g id="line2d_1">
      <defs>
       <path id="me02ca45ea2" d="M 0 0 
L 0 3.5 
" style="stroke: #000000; stroke-width: 0.8"/>
      </defs>
      <g>
       <use xlink:href="#me02ca45ea2" x="128.925" y="320.4" style="stroke: #000000; stroke-width: 0.8"/>
      </g>
     </g>
     <g id="text_1">
      <!-- 0 -->
      <g transform="translate(125.74375 334.998438) scale(0.1 -0.1)">
       <defs>
        <path id="DejaVuSans-30" d="M 2034 4250 
Q 1547 4250 1301 3770 
Q 1056 3291 1056 2328 
Q 1056 1369 1301 889 
Q 1547 409 2034 409 
Q 2525 409 2770 889 
Q 3016 1369 3016 2328 
Q 3016 3291 2770 3770 
Q 2525 4250 2034 4250 
z
M 2034 4750 
Q 2819 4750 3233 4129 
Q 3647 3509 3647 2328 
Q 3647 1150 3233 529 
Q 2819 -91 2034 -91 
Q 1250 -91 836 529 
Q 422 1150 422 2328 
Q 422 3509 836 4129 
Q 1250 4750 2034 4750 
z
" transform="scale(0.015625)"/>
       </defs>
       <use xlink:href="#DejaVuSans-30"/>
      </g>
     </g>
    </g>
    <g id="xtick_2">
     <g id="line2d_2">
      <g>
       <use xlink:href="#me02ca45ea2" x="233.55" y="320.4" style="stroke: #000000; stroke-width: 0.8"/>
      </g>
     </g>
     <g id="text_2">
      <!-- 5 -->
      <g transform="translate(230.36875 334.998438) scale(0.1 -0.1)">
       <defs>
        <path id="DejaVuSans-35" d="M 691 4666 
L 3169 4666 
L 3169 4134 
L 1269 4134 
L 1269 2991 
Q 1406 3038 1543 3061 
Q 1681 3084 1819 3084 
Q 2600 3084 3056 2656 
Q 3513 2228 3513 1497 
Q 3513 744 3044 326 
Q 2575 -91 1722 -91 
Q 1428 -91 1123 -41 
Q 819 9 494 109 
L 494 744 
Q 775 591 1075 516 
Q 1375 441 1709 441 
Q 2250 441 2565 725 
Q 2881 1009 2881 1497 
Q 2881 1984 2565 2268 
Q 2250 2553 1709 2553 
Q 1456 2553 1204 2497 
Q 953 2441 691 2322 
L 691 4666 
z
" transform="scale(0.015625)"/>
       </defs>
       <use xlink:href="#DejaVuSans-35"/>
      </g>
     </g>
    </g>
    <g id="xtick_3">
     <g id="line2d_3">
      <g>
       <use xlink:href="#me02ca45ea2" x="338.175" y="320.4" style="stroke: #000000; stroke-width: 0.8"/>
      </g>
     </g>
     <g id="text_3">
      <!-- 10 -->
      <g transform="translate(331.8125 334.998438) scale(0.1 -0.1)">
       <defs>
        <path id="DejaVuSans-31" d="M 794 531 
L 1825 531 
L 1825 4091 
L 703 3866 
L 703 4441 
L 1819 4666 
L 2450 4666 
L 2450 531 
L 3481 531 
L 3481 0 
L 794 0 
L 794 531 
z
" transform="scale(0.015625)"/>
       </defs>
       <use xlink:href="#DejaVuSans-31"/>
       <use xlink:href="#DejaVuSans-30" transform="translate(63.623047 0)"/>
      </g>
     </g>
    </g>
    <g id="xtick_4">
     <g id="line2d_4">
      <g>
       <use xlink:href="#me02ca45ea2" x="442.8" y="320.4" style="stroke: #000000; stroke-width: 0.8"/>
      </g>
     </g>
     <g id="text_4">
      <!-- 15 -->
      <g transform="translate(436.4375 334.998438) scale(0.1 -0.1)">
       <use xlink:href="#DejaVuSans-31"/>
       <use xlink:href="#DejaVuSans-35" transform="translate(63.623047 0)"/>
      </g>
     </g>
    </g>
    <g id="xtick_5">
     <g id="line2d_5">
      <g>
       <use xlink:href="#me02ca45ea2" x="547.425" y="320.4" style="stroke: #000000; stroke-width: 0.8"/>
      </g>
     </g>
     <g id="text_5">
      <!-- 20 -->
      <g transform="translate(541.0625 334.998438) scale(0.1 -0.1)">
       <defs>
        <path id="DejaVuSans-32" d="M 1228 531 
L 3431 531 
L 3431 0 
L 469 0 
L 469 531 
Q 828 903 1448 1529 
Q 2069 2156 2228 2338 
Q 2531 2678 2651 2914 
Q 2772 3150 2772 3378 
Q 2772 3750 2511 3984 
Q 2250 4219 1831 4219 
Q 1534 4219 1204 4116 
Q 875 4013 500 3803 
L 500 4441 
Q 881 4594 1212 4672 
Q 1544 4750 1819 4750 
Q 2544 4750 2975 4387 
Q 3406 4025 3406 3419 
Q 3406 3131 3298 2873 
Q 3191 2616 2906 2266 
Q 2828 2175 2409 1742 
Q 1991 1309 1228 531 
z
" transform="scale(0.015625)"/>
       </defs>
       <use xlink:href="#DejaVuSans-32"/>
       <use xlink:href="#DejaVuSans-30" transform="translate(63.623047 0)"/>
      </g>
     </g>
    </g>
    <g id="xtick_6">
     <g id="line2d_6">
      <g>
       <use xlink:href="#me02ca45ea2" x="652.05" y="320.4" style="stroke: #000000; stroke-width: 0.8"/>
      </g>
     </g>
     <g id="text_6">
      <!-- 25 -->
      <g transform="translate(645.6875 334.998438) scale(0.1 -0.1)">
       <use xlink:href="#DejaVuSans-32"/>
       <use xlink:href="#DejaVuSans-35" transform="translate(63.623047 0)"/>
      </g>
     </g>
    </g>
    <g id="xtick_7">
     <g id="line2d_7">
      <g>
       <use xlink:href="#me02ca45ea2" x="756.675" y="320.4" style="stroke: #000000; stroke-width: 0.8"/>
      </g>
     </g>
     <g id="text_7">
      <!-- 30 -->
      <g transform="translate(750.3125 334.998438) scale(0.1 -0.1)">
       <defs>
        <path id="DejaVuSans-33" d="M 2597 2516 
Q 3050 2419 3304 2112 
Q 3559 1806 3559 1356 
Q 3559 666 3084 287 
Q 2609 -91 1734 -91 
Q 1441 -91 1130 -33 
Q 819 25 488 141 
L 488 750 
Q 750 597 1062 519 
Q 1375 441 1716 441 
Q 2309 441 2620 675 
Q 2931 909 2931 1356 
Q 2931 1769 2642 2001 
Q 2353 2234 1838 2234 
L 1294 2234 
L 1294 2753 
L 1863 2753 
Q 2328 2753 2575 2939 
Q 2822 3125 2822 3475 
Q 2822 3834 2567 4026 
Q 2313 4219 1838 4219 
Q 1578 4219 1281 4162 
Q 984 4106 628 3988 
L 628 4550 
Q 988 4650 1302 4700 
Q 1616 4750 1894 4750 
Q 2613 4750 3031 4423 
Q 3450 4097 3450 3541 
Q 3450 3153 3228 2886 
Q 3006 2619 2597 2516 
z
" transform="scale(0.015625)"/>
       </defs>
       <use xlink:href="#DejaVuSans-33"/>
       <use xlink:href="#DejaVuSans-30" transform="translate(63.623047 0)"/>
      </g>
     </g>
    </g>
    <g id="text_8">
     <!-- Aligned Time (s) -->
     <g transform="translate(402.089844 348.676562) scale(0.1 -0.1)">
      <defs>
       <path id="DejaVuSans-41" d="M 2188 4044 
L 1331 1722 
L 3047 1722 
L 2188 4044 
z
M 1831 4666 
L 2547 4666 
L 4325 0 
L 3669 0 
L 3244 1197 
L 1141 1197 
L 716 0 
L 50 0 
L 1831 4666 
z
" transform="scale(0.015625)"/>
       <path id="DejaVuSans-6c" d="M 603 4863 
L 1178 4863 
L 1178 0 
L 603 0 
L 603 4863 
z
" transform="scale(0.015625)"/>
       <path id="DejaVuSans-69" d="M 603 3500 
L 1178 3500 
L 1178 0 
L 603 0 
L 603 3500 
z
M 603 4863 
L 1178 4863 
L 1178 4134 
L 603 4134 
L 603 4863 
z
" transform="scale(0.015625)"/>
       <path id="DejaVuSans-67" d="M 2906 1791 
Q 2906 2416 2648 2759 
Q 2391 3103 1925 3103 
Q 1463 3103 1205 2759 
Q 947 2416 947 1791 
Q 947 1169 1205 825 
Q 1463 481 1925 481 
Q 2391 481 2648 825 
Q 2906 1169 2906 1791 
z
M 3481 434 
Q 3481 -459 3084 -895 
Q 2688 -1331 1869 -1331 
Q 1566 -1331 1297 -1286 
Q 1028 -1241 775 -1147 
L 775 -588 
Q 1028 -725 1275 -790 
Q 1522 -856 1778 -856 
Q 2344 -856 2625 -561 
Q 2906 -266 2906 331 
L 2906 616 
Q 2728 306 2450 153 
Q 2172 0 1784 0 
Q 1141 0 747 490 
Q 353 981 353 1791 
Q 353 2603 747 3093 
Q 1141 3584 1784 3584 
Q 2172 3584 2450 3431 
Q 2728 3278 2906 2969 
L 2906 3500 
L 3481 3500 
L 3481 434 
z
" transform="scale(0.015625)"/>
       <path id="DejaVuSans-6e" d="M 3513 2113 
L 3513 0 
L 2938 0 
L 2938 2094 
Q 2938 2591 2744 2837 
Q 2550 3084 2163 3084 
Q 1697 3084 1428 2787 
Q 1159 2491 1159 1978 
L 1159 0 
L 581 0 
L 581 3500 
L 1159 3500 
L 1159 2956 
Q 1366 3272 1645 3428 
Q 1925 3584 2291 3584 
Q 2894 3584 3203 3211 
Q 3513 2838 3513 2113 
z
" transform="scale(0.015625)"/>
       <path id="DejaVuSans-65" d="M 3597 1894 
L 3597 1613 
L 953 1613 
Q 991 1019 1311 708 
Q 1631 397 2203 397 
Q 2534 397 2845 478 
Q 3156 559 3463 722 
L 3463 178 
Q 3153 47 2828 -22 
Q 2503 -91 2169 -91 
Q 1331 -91 842 396 
Q 353 884 353 1716 
Q 353 2575 817 3079 
Q 1281 3584 2069 3584 
Q 2775 3584 3186 3129 
Q 3597 2675 3597 1894 
z
M 3022 2063 
Q 3016 2534 2758 2815 
Q 2500 3097 2075 3097 
Q 1594 3097 1305 2825 
Q 1016 2553 972 2059 
L 3022 2063 
z
" transform="scale(0.015625)"/>
       <path id="DejaVuSans-64" d="M 2906 2969 
L 2906 4863 
L 3481 4863 
L 3481 0 
L 2906 0 
L 2906 525 
Q 2725 213 2448 61 
Q 2172 -91 1784 -91 
Q 1150 -91 751 415 
Q 353 922 353 1747 
Q 353 2572 751 3078 
Q 1150 3584 1784 3584 
Q 2172 3584 2448 3432 
Q 2725 3281 2906 2969 
z
M 947 1747 
Q 947 1113 1208 752 
Q 1469 391 1925 391 
Q 2381 391 2643 752 
Q 2906 1113 2906 1747 
Q 2906 2381 2643 2742 
Q 2381 3103 1925 3103 
Q 1469 3103 1208 2742 
Q 947 2381 947 1747 
z
" transform="scale(0.015625)"/>
       <path id="DejaVuSans-20" transform="scale(0.015625)"/>
       <path id="DejaVuSans-54" d="M -19 4666 
L 3928 4666 
L 3928 4134 
L 2272 4134 
L 2272 0 
L 1638 0 
L 1638 4134 
L -19 4134 
L -19 4666 
z
" transform="scale(0.015625)"/>
       <path id="DejaVuSans-6d" d="M 3328 2828 
Q 3544 3216 3844 3400 
Q 4144 3584 4550 3584 
Q 5097 3584 5394 3201 
Q 5691 2819 5691 2113 
L 5691 0 
L 5113 0 
L 5113 2094 
Q 5113 2597 4934 2840 
Q 4756 3084 4391 3084 
Q 3944 3084 3684 2787 
Q 3425 2491 3425 1978 
L 3425 0 
L 2847 0 
L 2847 2094 
Q 2847 2600 2669 2842 
Q 2491 3084 2119 3084 
Q 1678 3084 1418 2786 
Q 1159 2488 1159 1978 
L 1159 0 
L 581 0 
L 581 3500 
L 1159 3500 
L 1159 2956 
Q 1356 3278 1631 3431 
Q 1906 3584 2284 3584 
Q 2666 3584 2933 3390 
Q 3200 3197 3328 2828 
z
" transform="scale(0.015625)"/>
       <path id="DejaVuSans-28" d="M 1984 4856 
Q 1566 4138 1362 3434 
Q 1159 2731 1159 2009 
Q 1159 1288 1364 580 
Q 1569 -128 1984 -844 
L 1484 -844 
Q 1016 -109 783 600 
Q 550 1309 550 2009 
Q 550 2706 781 3412 
Q 1013 4119 1484 4856 
L 1984 4856 
z
" transform="scale(0.015625)"/>
       <path id="DejaVuSans-73" d="M 2834 3397 
L 2834 2853 
Q 2591 2978 2328 3040 
Q 2066 3103 1784 3103 
Q 1356 3103 1142 2972 
Q 928 2841 928 2578 
Q 928 2378 1081 2264 
Q 1234 2150 1697 2047 
L 1894 2003 
Q 2506 1872 2764 1633 
Q 3022 1394 3022 966 
Q 3022 478 2636 193 
Q 2250 -91 1575 -91 
Q 1294 -91 989 -36 
Q 684 19 347 128 
L 347 722 
Q 666 556 975 473 
Q 1284 391 1588 391 
Q 1994 391 2212 530 
Q 2431 669 2431 922 
Q 2431 1156 2273 1281 
Q 2116 1406 1581 1522 
L 1381 1569 
Q 847 1681 609 1914 
Q 372 2147 372 2553 
Q 372 3047 722 3315 
Q 1072 3584 1716 3584 
Q 2034 3584 2315 3537 
Q 2597 3491 2834 3397 
z
" transform="scale(0.015625)"/>
       <path id="DejaVuSans-29" d="M 513 4856 
L 1013 4856 
Q 1481 4119 1714 3412 
Q 1947 2706 1947 2009 
Q 1947 1309 1714 600 
Q 1481 -109 1013 -844 
L 513 -844 
Q 928 -128 1133 580 
Q 1338 1288 1338 2009 
Q 1338 2731 1133 3434 
Q 928 4138 513 4856 
z
" transform="scale(0.015625)"/>
      </defs>
      <use xlink:href="#DejaVuSans-41"/>
      <use xlink:href="#DejaVuSans-6c" transform="translate(68.408203 0)"/>
      <use xlink:href="#DejaVuSans-69" transform="translate(96.191406 0)"/>
      <use xlink:href="#DejaVuSans-67" transform="translate(123.974609 0)"/>
      <use xlink:href="#DejaVuSans-6e" transform="translate(187.451172 0)"/>
      <use xlink:href="#DejaVuSans-65" transform="translate(250.830078 0)"/>
      <use xlink:href="#DejaVuSans-64" transform="translate(312.353516 0)"/>
      <use xlink:href="#DejaVuSans-20" transform="translate(375.830078 0)"/>
      <use xlink:href="#DejaVuSans-54" transform="translate(407.617188 0)"/>
      <use xlink:href="#DejaVuSans-69" transform="translate(465.576172 0)"/>
      <use xlink:href="#DejaVuSans-6d" transform="translate(493.359375 0)"/>
      <use xlink:href="#DejaVuSans-65" transform="translate(590.771484 0)"/>
      <use xlink:href="#DejaVuSans-20" transform="translate(652.294922 0)"/>
      <use xlink:href="#DejaVuSans-28" transform="translate(684.082031 0)"/>
      <use xlink:href="#DejaVuSans-73" transform="translate(723.095703 0)"/>
      <use xlink:href="#DejaVuSans-29" transform="translate(775.195312 0)"/>
     </g>
    </g>
   </g>
   <g id="matplotlib.axis_2">
    <g id="ytick_1">
     <g id="line2d_8">
      <defs>
       <path id="mf7edd8bc15" d="M 0 0 
L -3.5 0 
" style="stroke: #000000; stroke-width: 0.8"/>
      </defs>
      <g>
       <use xlink:href="#mf7edd8bc15" x="108" y="303.008149" style="stroke: #000000; stroke-width: 0.8"/>
      </g>
     </g>
     <g id="text_9">
      <!-- 32 -->
      <g style="fill: #808080" transform="translate(88.275 306.807368) scale(0.1 -0.1)">
       <use xlink:href="#DejaVuSans-33"/>
       <use xlink:href="#DejaVuSans-32" transform="translate(63.623047 0)"/>
      </g>
     </g>
    </g>
    <g id="ytick_2">
     <g id="line2d_9">
      <g>
       <use xlink:href="#mf7edd8bc15" x="108" y="270.336441" style="stroke: #000000; stroke-width: 0.8"/>
      </g>
     </g>
     <g id="text_10">
      <!-- 34 -->
      <g style="fill: #808080" transform="translate(88.275 274.13566) scale(0.1 -0.1)">
       <defs>
        <path id="DejaVuSans-34" d="M 2419 4116 
L 825 1625 
L 2419 1625 
L 2419 4116 
z
M 2253 4666 
L 3047 4666 
L 3047 1625 
L 3713 1625 
L 3713 1100 
L 3047 1100 
L 3047 0 
L 2419 0 
L 2419 1100 
L 313 1100 
L 313 1709 
L 2253 4666 
z
" transform="scale(0.015625)"/>
       </defs>
       <use xlink:href="#DejaVuSans-33"/>
       <use xlink:href="#DejaVuSans-34" transform="translate(63.623047 0)"/>
      </g>
     </g>
    </g>
    <g id="ytick_3">
     <g id="line2d_10">
      <g>
       <use xlink:href="#mf7edd8bc15" x="108" y="237.664732" style="stroke: #000000; stroke-width: 0.8"/>
      </g>
     </g>
     <g id="text_11">
      <!-- 36 -->
      <g style="fill: #808080" transform="translate(88.275 241.463951) scale(0.1 -0.1)">
       <defs>
        <path id="DejaVuSans-36" d="M 2113 2584 
Q 1688 2584 1439 2293 
Q 1191 2003 1191 1497 
Q 1191 994 1439 701 
Q 1688 409 2113 409 
Q 2538 409 2786 701 
Q 3034 994 3034 1497 
Q 3034 2003 2786 2293 
Q 2538 2584 2113 2584 
z
M 3366 4563 
L 3366 3988 
Q 3128 4100 2886 4159 
Q 2644 4219 2406 4219 
Q 1781 4219 1451 3797 
Q 1122 3375 1075 2522 
Q 1259 2794 1537 2939 
Q 1816 3084 2150 3084 
Q 2853 3084 3261 2657 
Q 3669 2231 3669 1497 
Q 3669 778 3244 343 
Q 2819 -91 2113 -91 
Q 1303 -91 875 529 
Q 447 1150 447 2328 
Q 447 3434 972 4092 
Q 1497 4750 2381 4750 
Q 2619 4750 2861 4703 
Q 3103 4656 3366 4563 
z
" transform="scale(0.015625)"/>
       </defs>
       <use xlink:href="#DejaVuSans-33"/>
       <use xlink:href="#DejaVuSans-36" transform="translate(63.623047 0)"/>
      </g>
     </g>
    </g>
    <g id="ytick_4">
     <g id="line2d_11">
      <g>
       <use xlink:href="#mf7edd8bc15" x="108" y="204.993024" style="stroke: #000000; stroke-width: 0.8"/>
      </g>
     </g>
     <g id="text_12">
      <!-- 38 -->
      <g style="fill: #808080" transform="translate(88.275 208.792242) scale(0.1 -0.1)">
       <defs>
        <path id="DejaVuSans-38" d="M 2034 2216 
Q 1584 2216 1326 1975 
Q 1069 1734 1069 1313 
Q 1069 891 1326 650 
Q 1584 409 2034 409 
Q 2484 409 2743 651 
Q 3003 894 3003 1313 
Q 3003 1734 2745 1975 
Q 2488 2216 2034 2216 
z
M 1403 2484 
Q 997 2584 770 2862 
Q 544 3141 544 3541 
Q 544 4100 942 4425 
Q 1341 4750 2034 4750 
Q 2731 4750 3128 4425 
Q 3525 4100 3525 3541 
Q 3525 3141 3298 2862 
Q 3072 2584 2669 2484 
Q 3125 2378 3379 2068 
Q 3634 1759 3634 1313 
Q 3634 634 3220 271 
Q 2806 -91 2034 -91 
Q 1263 -91 848 271 
Q 434 634 434 1313 
Q 434 1759 690 2068 
Q 947 2378 1403 2484 
z
M 1172 3481 
Q 1172 3119 1398 2916 
Q 1625 2713 2034 2713 
Q 2441 2713 2670 2916 
Q 2900 3119 2900 3481 
Q 2900 3844 2670 4047 
Q 2441 4250 2034 4250 
Q 1625 4250 1398 4047 
Q 1172 3844 1172 3481 
z
" transform="scale(0.015625)"/>
       </defs>
       <use xlink:href="#DejaVuSans-33"/>
       <use xlink:href="#DejaVuSans-38" transform="translate(63.623047 0)"/>
      </g>
     </g>
    </g>
    <g id="ytick_5">
     <g id="line2d_12">
      <g>
       <use xlink:href="#mf7edd8bc15" x="108" y="172.321315" style="stroke: #000000; stroke-width: 0.8"/>
      </g>
     </g>
     <g id="text_13">
      <!-- 40 -->
      <g style="fill: #808080" transform="translate(88.275 176.120534) scale(0.1 -0.1)">
       <use xlink:href="#DejaVuSans-34"/>
       <use xlink:href="#DejaVuSans-30" transform="translate(63.623047 0)"/>
      </g>
     </g>
    </g>
    <g id="ytick_6">
     <g id="line2d_13">
      <g>
       <use xlink:href="#mf7edd8bc15" x="108" y="139.649606" style="stroke: #000000; stroke-width: 0.8"/>
      </g>
     </g>
     <g id="text_14">
      <!-- 42 -->
      <g style="fill: #808080" transform="translate(88.275 143.448825) scale(0.1 -0.1)">
       <use xlink:href="#DejaVuSans-34"/>
       <use xlink:href="#DejaVuSans-32" transform="translate(63.623047 0)"/>
      </g>
     </g>
    </g>
    <g id="ytick_7">
     <g id="line2d_14">
      <g>
       <use xlink:href="#mf7edd8bc15" x="108" y="106.977898" style="stroke: #000000; stroke-width: 0.8"/>
      </g>
     </g>
     <g id="text_15">
      <!-- 44 -->
      <g style="fill: #808080" transform="translate(88.275 110.777117) scale(0.1 -0.1)">
       <use xlink:href="#DejaVuSans-34"/>
       <use xlink:href="#DejaVuSans-34" transform="translate(63.623047 0)"/>
      </g>
     </g>
    </g>
    <g id="ytick_8">
     <g id="line2d_15">
      <g>
       <use xlink:href="#mf7edd8bc15" x="108" y="74.306189" style="stroke: #000000; stroke-width: 0.8"/>
      </g>
     </g>
     <g id="text_16">
      <!-- 46 -->
      <g style="fill: #808080" transform="translate(88.275 78.105408) scale(0.1 -0.1)">
       <use xlink:href="#DejaVuSans-34"/>
       <use xlink:href="#DejaVuSans-36" transform="translate(63.623047 0)"/>
      </g>
     </g>
    </g>
    <g id="text_17">
     <!-- Temperature (°C) -->
     <g style="fill: #808080" transform="translate(82.195312 224.951562) rotate(-90) scale(0.1 -0.1)">
      <defs>
       <path id="DejaVuSans-70" d="M 1159 525 
L 1159 -1331 
L 581 -1331 
L 581 3500 
L 1159 3500 
L 1159 2969 
Q 1341 3281 1617 3432 
Q 1894 3584 2278 3584 
Q 2916 3584 3314 3078 
Q 3713 2572 3713 1747 
Q 3713 922 3314 415 
Q 2916 -91 2278 -91 
Q 1894 -91 1617 61 
Q 1341 213 1159 525 
z
M 3116 1747 
Q 3116 2381 2855 2742 
Q 2594 3103 2138 3103 
Q 1681 3103 1420 2742 
Q 1159 2381 1159 1747 
Q 1159 1113 1420 752 
Q 1681 391 2138 391 
Q 2594 391 2855 752 
Q 3116 1113 3116 1747 
z
" transform="scale(0.015625)"/>
       <path id="DejaVuSans-72" d="M 2631 2963 
Q 2534 3019 2420 3045 
Q 2306 3072 2169 3072 
Q 1681 3072 1420 2755 
Q 1159 2438 1159 1844 
L 1159 0 
L 581 0 
L 581 3500 
L 1159 3500 
L 1159 2956 
Q 1341 3275 1631 3429 
Q 1922 3584 2338 3584 
Q 2397 3584 2469 3576 
Q 2541 3569 2628 3553 
L 2631 2963 
z
" transform="scale(0.015625)"/>
       <path id="DejaVuSans-61" d="M 2194 1759 
Q 1497 1759 1228 1600 
Q 959 1441 959 1056 
Q 959 750 1161 570 
Q 1363 391 1709 391 
Q 2188 391 2477 730 
Q 2766 1069 2766 1631 
L 2766 1759 
L 2194 1759 
z
M 3341 1997 
L 3341 0 
L 2766 0 
L 2766 531 
Q 2569 213 2275 61 
Q 1981 -91 1556 -91 
Q 1019 -91 701 211 
Q 384 513 384 1019 
Q 384 1609 779 1909 
Q 1175 2209 1959 2209 
L 2766 2209 
L 2766 2266 
Q 2766 2663 2505 2880 
Q 2244 3097 1772 3097 
Q 1472 3097 1187 3025 
Q 903 2953 641 2809 
L 641 3341 
Q 956 3463 1253 3523 
Q 1550 3584 1831 3584 
Q 2591 3584 2966 3190 
Q 3341 2797 3341 1997 
z
" transform="scale(0.015625)"/>
       <path id="DejaVuSans-74" d="M 1172 4494 
L 1172 3500 
L 2356 3500 
L 2356 3053 
L 1172 3053 
L 1172 1153 
Q 1172 725 1289 603 
Q 1406 481 1766 481 
L 2356 481 
L 2356 0 
L 1766 0 
Q 1100 0 847 248 
Q 594 497 594 1153 
L 594 3053 
L 172 3053 
L 172 3500 
L 594 3500 
L 594 4494 
L 1172 4494 
z
" transform="scale(0.015625)"/>
       <path id="DejaVuSans-75" d="M 544 1381 
L 544 3500 
L 1119 3500 
L 1119 1403 
Q 1119 906 1312 657 
Q 1506 409 1894 409 
Q 2359 409 2629 706 
Q 2900 1003 2900 1516 
L 2900 3500 
L 3475 3500 
L 3475 0 
L 2900 0 
L 2900 538 
Q 2691 219 2414 64 
Q 2138 -91 1772 -91 
Q 1169 -91 856 284 
Q 544 659 544 1381 
z
M 1991 3584 
L 1991 3584 
z
" transform="scale(0.015625)"/>
       <path id="DejaVuSans-b0" d="M 1600 4347 
Q 1350 4347 1178 4173 
Q 1006 4000 1006 3750 
Q 1006 3503 1178 3333 
Q 1350 3163 1600 3163 
Q 1850 3163 2022 3333 
Q 2194 3503 2194 3750 
Q 2194 3997 2020 4172 
Q 1847 4347 1600 4347 
z
M 1600 4750 
Q 1800 4750 1984 4673 
Q 2169 4597 2303 4453 
Q 2447 4313 2519 4134 
Q 2591 3956 2591 3750 
Q 2591 3338 2302 3052 
Q 2013 2766 1594 2766 
Q 1172 2766 890 3047 
Q 609 3328 609 3750 
Q 609 4169 896 4459 
Q 1184 4750 1600 4750 
z
" transform="scale(0.015625)"/>
       <path id="DejaVuSans-43" d="M 4122 4306 
L 4122 3641 
Q 3803 3938 3442 4084 
Q 3081 4231 2675 4231 
Q 1875 4231 1450 3742 
Q 1025 3253 1025 2328 
Q 1025 1406 1450 917 
Q 1875 428 2675 428 
Q 3081 428 3442 575 
Q 3803 722 4122 1019 
L 4122 359 
Q 3791 134 3420 21 
Q 3050 -91 2638 -91 
Q 1578 -91 968 557 
Q 359 1206 359 2328 
Q 359 3453 968 4101 
Q 1578 4750 2638 4750 
Q 3056 4750 3426 4639 
Q 3797 4528 4122 4306 
z
" transform="scale(0.015625)"/>
      </defs>
      <use xlink:href="#DejaVuSans-54"/>
      <use xlink:href="#DejaVuSans-65" transform="translate(44.083984 0)"/>
      <use xlink:href="#DejaVuSans-6d" transform="translate(105.607422 0)"/>
      <use xlink:href="#DejaVuSans-70" transform="translate(203.019531 0)"/>
      <use xlink:href="#DejaVuSans-65" transform="translate(266.496094 0)"/>
      <use xlink:href="#DejaVuSans-72" transform="translate(328.019531 0)"/>
      <use xlink:href="#DejaVuSans-61" transform="translate(369.132812 0)"/>
      <use xlink:href="#DejaVuSans-74" transform="translate(430.412109 0)"/>
      <use xlink:href="#DejaVuSans-75" transform="translate(469.621094 0)"/>
      <use xlink:href="#DejaVuSans-72" transform="translate(533 0)"/>
      <use xlink:href="#DejaVuSans-65" transform="translate(571.863281 0)"/>
      <use xlink:href="#DejaVuSans-20" transform="translate(633.386719 0)"/>
      <use xlink:href="#DejaVuSans-28" transform="translate(665.173828 0)"/>
      <use xlink:href="#DejaVuSans-b0" transform="translate(704.1875 0)"/>
      <use xlink:href="#DejaVuSans-43" transform="translate(754.1875 0)"/>
      <use xlink:href="#DejaVuSans-29" transform="translate(824.011719 0)"/>
     </g>
    </g>
   </g>
   <g id="line2d_16">
    <path d="M 107.37225 88.518382 
L 111.55725 83.6643 
L 113.64975 81.797345 
L 115.74225 79.261398 
L 117.83475 78.145115 
L 119.92725 76.184812 
L 122.01975 75.231888 
L 124.11225 74.026146 
L 126.20475 73.46606 
L 128.29725 73.092669 
L 134.57475 73.84334 
L 136.66725 73.952246 
L 138.75975 73.788887 
L 140.85225 74.049483 
L 145.03725 74.212841 
L 147.12975 74.07282 
L 149.22225 74.189505 
L 151.31475 73.302701 
L 153.40725 73.571076 
L 155.49975 73.707208 
L 157.59225 73.516623 
L 159.68475 73.442723 
L 161.77725 73.092669 
L 163.86975 73.816114 
L 165.96225 73.652755 
L 168.05475 74.251736 
L 170.14725 74.119494 
L 172.23975 73.816114 
L 174.33225 74.049483 
L 176.42475 73.792777 
L 178.51725 73.932798 
L 180.60975 73.932798 
L 182.70225 73.788887 
L 184.79475 74.088378 
L 186.88725 74.033925 
L 188.97975 74.170057 
L 191.07225 74.422874 
L 193.16475 74.026146 
L 197.34975 73.932798 
L 199.44225 74.609569 
L 201.53475 74.142831 
L 205.71975 74.088378 
L 209.90475 74.049483 
L 211.99725 73.839451 
L 216.18225 74.399537 
L 218.27475 74.07282 
L 222.45975 74.170057 
L 224.55225 73.84334 
L 226.64475 74.278963 
L 228.73725 73.979472 
L 230.82975 73.349375 
L 232.92225 72.159191 
L 235.01475 69.73215 
L 237.10725 66.931718 
L 241.29225 61.809261 
L 243.38475 58.950486 
L 247.56975 56.173391 
L 249.66225 55.846674 
L 251.75475 55.8 
L 255.93975 57.013521 
L 258.03225 58.343726 
L 260.12475 58.732675 
L 264.30975 59.113845 
L 266.40225 59.086618 
L 268.49475 58.351505 
L 270.58725 58.367063 
L 272.67975 57.806976 
L 274.77225 57.946998 
L 276.86475 57.371354 
L 278.95725 57.643618 
L 281.04975 57.099089 
L 283.14225 57.39858 
L 285.23475 57.480259 
L 289.41975 57.806976 
L 291.51225 57.433585 
L 293.60475 57.77975 
L 295.69725 57.861429 
L 297.78975 58.297052 
L 299.88225 57.943109 
L 301.97475 58.052014 
L 304.06725 57.526933 
L 306.15975 58.250378 
L 308.25225 57.834203 
L 310.34475 58.052014 
L 312.43725 57.616391 
L 314.52975 57.752524 
L 316.62225 57.425806 
L 318.71475 58.079241 
L 322.89975 57.946998 
L 327.08475 57.526933 
L 329.17725 58.017009 
L 331.26975 57.453033 
L 333.36225 57.480259 
L 335.45475 58.320389 
L 337.54725 58.203704 
L 339.63975 57.55027 
L 341.73225 57.85365 
L 343.82475 57.760303 
L 345.91725 58.133693 
L 352.19475 57.752524 
L 354.28725 58.69378 
L 356.37975 60.023985 
L 358.47225 61.89094 
L 362.65725 67.491804 
L 366.84225 73.434944 
L 368.93475 74.823491 
L 371.02725 75.939775 
L 373.11975 76.239265 
L 375.21225 75.356351 
L 377.30475 74.189505 
L 379.39725 73.256027 
L 381.48975 72.92931 
L 383.58225 72.155302 
L 387.76725 72.944868 
L 389.85975 73.722766 
L 391.95225 74.142831 
L 394.04475 74.877944 
L 396.13725 75.449699 
L 398.22975 74.959623 
L 400.32225 75.313567 
L 402.41475 74.387868 
L 404.50725 74.415095 
L 406.59975 74.251736 
L 408.69225 73.862787 
L 412.87725 74.166168 
L 414.96975 74.469548 
L 417.06225 74.212841 
L 419.15475 74.387868 
L 421.24725 74.823491 
L 423.33975 74.823491 
L 425.43225 74.442321 
L 427.52475 74.496774 
L 429.61725 73.870566 
L 431.70975 74.22451 
L 435.89475 74.049483 
L 437.98725 74.492885 
L 442.17225 74.360642 
L 444.26475 74.115604 
L 448.44975 74.492885 
L 450.54225 74.096157 
L 452.63475 74.096157 
L 454.72725 74.236178 
L 461.00475 74.197284 
L 463.09725 74.415095 
L 467.28225 74.282852 
L 469.37475 74.586232 
L 471.46725 74.329526 
L 475.65225 74.142831 
L 477.74475 74.660133 
L 479.83725 74.033925 
L 481.92975 74.469548 
L 484.02225 74.524001 
L 486.11475 74.278963 
L 488.20725 74.469548 
L 492.39225 74.352863 
L 498.66975 74.306189 
L 500.76225 74.142831 
L 502.85475 73.746103 
L 504.94725 74.07282 
L 507.03975 73.979472 
L 509.13225 74.492885 
L 511.22475 73.932798 
L 513.31725 73.952246 
L 515.40975 74.714586 
L 517.50225 74.251736 
L 519.59475 74.061151 
L 521.68725 74.061151 
L 525.87225 74.3762 
L 527.96475 73.862787 
L 530.05725 74.189505 
L 534.24225 74.306189 
L 538.42725 74.088378 
L 540.51975 74.115604 
L 542.61225 74.333416 
L 544.70475 74.823491 
L 546.79725 74.446211 
L 548.88975 74.236178 
L 550.98225 74.166168 
L 553.07475 74.516222 
L 557.25975 73.979472 
L 563.53725 73.886124 
L 565.62975 74.096157 
L 567.72225 74.492885 
L 569.81475 74.061151 
L 571.90725 73.952246 
L 573.99975 74.088378 
L 576.09225 74.442321 
L 578.18475 74.212841 
L 580.27725 74.539559 
L 582.36975 74.026146 
L 586.55475 74.360642 
L 592.83225 73.925019 
L 594.92475 74.170057 
L 605.38725 74.632906 
L 607.47975 74.189505 
L 609.57225 73.886124 
L 611.66475 74.115604 
L 613.75725 74.006699 
L 615.84975 74.524001 
L 617.94225 74.399537 
L 620.03475 74.632906 
L 622.12725 74.259515 
L 624.21975 74.442321 
L 626.31225 73.979472 
L 628.40475 74.442321 
L 630.49725 74.524001 
L 632.58975 74.061151 
L 634.68225 74.251736 
L 636.77475 74.212841 
L 638.86725 74.586232 
L 640.95975 74.819602 
L 643.05225 74.67958 
L 645.14475 74.660133 
L 647.23725 74.251736 
L 649.32975 74.142831 
L 651.42225 74.387868 
L 653.51475 73.897793 
L 655.60725 74.306189 
L 657.69975 74.442321 
L 659.79225 73.979472 
L 661.88475 74.212841 
L 663.97725 74.749591 
L 666.06975 74.306189 
L 668.16225 74.197284 
L 670.25475 74.442321 
L 672.34725 74.278963 
L 674.43975 73.870566 
L 676.53225 74.142831 
L 678.62475 74.189505 
L 680.71725 73.792777 
L 682.80975 74.329526 
L 684.90225 74.197284 
L 686.99475 74.769038 
L 689.08725 74.251736 
L 691.17975 74.088378 
L 693.27225 74.446211 
L 695.36475 74.049483 
L 697.45725 74.399537 
L 701.64225 74.088378 
L 703.73475 74.496774 
L 705.82725 74.088378 
L 707.91975 74.714586 
L 710.01225 74.236178 
L 712.10475 74.259515 
L 714.19725 74.026146 
L 716.28975 74.399537 
L 718.38225 74.189505 
L 728.84475 74.562896 
L 730.93725 74.166168 
L 733.02975 74.562896 
L 737.21475 73.925019 
L 739.30725 74.469548 
L 741.39975 74.360642 
L 743.49225 74.442321 
L 747.67725 73.629418 
L 749.76975 74.352863 
L 751.86225 74.632906 
L 756.04725 73.979472 
L 760.23225 74.632906 
L 762.32475 74.741812 
L 764.41725 74.415095 
L 768.60225 74.632906 
L 770.69475 74.469548 
L 776.97225 74.333416 
L 779.06475 74.212841 
L 779.06475 74.212841 
" clip-path="url(#p8dbde2ff61)" style="fill: none; stroke: #808080; stroke-opacity: 0.7; stroke-width: 1.5; stroke-linecap: square"/>
   </g>
   <g id="patch_3">
    <path d="M 108 320.4 
L 108 43.2 
" style="fill: none; stroke: #000000; stroke-width: 0.8; stroke-linejoin: miter; stroke-linecap: square"/>
   </g>
   <g id="patch_4">
    <path d="M 777.6 320.4 
L 777.6 43.2 
" style="fill: none; stroke: #000000; stroke-width: 0.8; stroke-linejoin: miter; stroke-linecap: square"/>
   </g>
   <g id="patch_5">
    <path d="M 108 320.4 
L 777.6 320.4 
" style="fill: none; stroke: #000000; stroke-width: 0.8; stroke-linejoin: miter; stroke-linecap: square"/>
   </g>
   <g id="patch_6">
    <path d="M 108 43.2 
L 777.6 43.2 
" style="fill: none; stroke: #000000; stroke-width: 0.8; stroke-linejoin: miter; stroke-linecap: square"/>
   </g>
  </g>
  <g id="axes_2">
   <g id="matplotlib.axis_3">
    <g id="ytick_9">
     <g id="line2d_17">
      <defs>
       <path id="m6e60073b8c" d="M 0 0 
L 3.5 0 
" style="stroke: #000000; stroke-width: 0.8"/>
      </defs>
      <g>
       <use xlink:href="#m6e60073b8c" x="777.6" y="307.8" style="stroke: #000000; stroke-width: 0.8"/>
      </g>
     </g>
     <g id="text_18">
      <!-- 0 -->
      <g style="fill: #dc143c" transform="translate(784.6 311.599219) scale(0.1 -0.1)">
       <use xlink:href="#DejaVuSans-30"/>
      </g>
     </g>
    </g>
    <g id="ytick_10">
     <g id="line2d_18">
      <g>
       <use xlink:href="#m6e60073b8c" x="777.6" y="252.415385" style="stroke: #000000; stroke-width: 0.8"/>
      </g>
     </g>
     <g id="text_19">
      <!-- 10 -->
      <g style="fill: #dc143c" transform="translate(784.6 256.214603) scale(0.1 -0.1)">
       <use xlink:href="#DejaVuSans-31"/>
       <use xlink:href="#DejaVuSans-30" transform="translate(63.623047 0)"/>
      </g>
     </g>
    </g>
    <g id="ytick_11">
     <g id="line2d_19">
      <g>
       <use xlink:href="#m6e60073b8c" x="777.6" y="197.030769" style="stroke: #000000; stroke-width: 0.8"/>
      </g>
     </g>
     <g id="text_20">
      <!-- 20 -->
      <g style="fill: #dc143c" transform="translate(784.6 200.829988) scale(0.1 -0.1)">
       <use xlink:href="#DejaVuSans-32"/>
       <use xlink:href="#DejaVuSans-30" transform="translate(63.623047 0)"/>
      </g>
     </g>
    </g>
    <g id="ytick_12">
     <g id="line2d_20">
      <g>
       <use xlink:href="#m6e60073b8c" x="777.6" y="141.646154" style="stroke: #000000; stroke-width: 0.8"/>
      </g>
     </g>
     <g id="text_21">
      <!-- 30 -->
      <g style="fill: #dc143c" transform="translate(784.6 145.445373) scale(0.1 -0.1)">
       <use xlink:href="#DejaVuSans-33"/>
       <use xlink:href="#DejaVuSans-30" transform="translate(63.623047 0)"/>
      </g>
     </g>
    </g>
    <g id="ytick_13">
     <g id="line2d_21">
      <g>
       <use xlink:href="#m6e60073b8c" x="777.6" y="86.261538" style="stroke: #000000; stroke-width: 0.8"/>
      </g>
     </g>
     <g id="text_22">
      <!-- 40 -->
      <g style="fill: #dc143c" transform="translate(784.6 90.060757) scale(0.1 -0.1)">
       <use xlink:href="#DejaVuSans-34"/>
       <use xlink:href="#DejaVuSans-30" transform="translate(63.623047 0)"/>
      </g>
     </g>
    </g>
    <g id="text_23">
     <!-- Pain Rating -->
     <g style="fill: #dc143c" transform="translate(808.923438 209.91875) rotate(-90) scale(0.1 -0.1)">
      <defs>
       <path id="DejaVuSans-50" d="M 1259 4147 
L 1259 2394 
L 2053 2394 
Q 2494 2394 2734 2622 
Q 2975 2850 2975 3272 
Q 2975 3691 2734 3919 
Q 2494 4147 2053 4147 
L 1259 4147 
z
M 628 4666 
L 2053 4666 
Q 2838 4666 3239 4311 
Q 3641 3956 3641 3272 
Q 3641 2581 3239 2228 
Q 2838 1875 2053 1875 
L 1259 1875 
L 1259 0 
L 628 0 
L 628 4666 
z
" transform="scale(0.015625)"/>
       <path id="DejaVuSans-52" d="M 2841 2188 
Q 3044 2119 3236 1894 
Q 3428 1669 3622 1275 
L 4263 0 
L 3584 0 
L 2988 1197 
Q 2756 1666 2539 1819 
Q 2322 1972 1947 1972 
L 1259 1972 
L 1259 0 
L 628 0 
L 628 4666 
L 2053 4666 
Q 2853 4666 3247 4331 
Q 3641 3997 3641 3322 
Q 3641 2881 3436 2590 
Q 3231 2300 2841 2188 
z
M 1259 4147 
L 1259 2491 
L 2053 2491 
Q 2509 2491 2742 2702 
Q 2975 2913 2975 3322 
Q 2975 3731 2742 3939 
Q 2509 4147 2053 4147 
L 1259 4147 
z
" transform="scale(0.015625)"/>
      </defs>
      <use xlink:href="#DejaVuSans-50"/>
      <use xlink:href="#DejaVuSans-61" transform="translate(55.802734 0)"/>
      <use xlink:href="#DejaVuSans-69" transform="translate(117.082031 0)"/>
      <use xlink:href="#DejaVuSans-6e" transform="translate(144.865234 0)"/>
      <use xlink:href="#DejaVuSans-20" transform="translate(208.244141 0)"/>
      <use xlink:href="#DejaVuSans-52" transform="translate(240.03125 0)"/>
      <use xlink:href="#DejaVuSans-61" transform="translate(307.263672 0)"/>
      <use xlink:href="#DejaVuSans-74" transform="translate(368.542969 0)"/>
      <use xlink:href="#DejaVuSans-69" transform="translate(407.751953 0)"/>
      <use xlink:href="#DejaVuSans-6e" transform="translate(435.535156 0)"/>
      <use xlink:href="#DejaVuSans-67" transform="translate(498.914062 0)"/>
     </g>
    </g>
   </g>
   <g id="line2d_22">
    <path d="M 107.37225 307.8 
L 272.67975 307.8 
L 274.77225 296.723077 
L 276.86475 296.723077 
L 278.95725 257.953846 
L 283.14225 197.030769 
L 285.23475 164.591209 
L 287.32725 142.437363 
L 289.41975 128.195604 
L 291.51225 111.58022 
L 293.60475 102.876923 
L 295.69725 91.8 
L 297.78975 89.030769 
L 299.88225 87.184615 
L 301.97475 83.492308 
L 304.06725 88.635165 
L 306.15975 82.305495 
L 308.25225 87.184615 
L 310.34475 82.569231 
L 312.43725 83.492308 
L 314.52975 82.569231 
L 316.62225 80.723077 
L 318.71475 75.184615 
L 320.80725 77.953846 
L 322.89975 77.558242 
L 324.99225 75.975824 
L 327.08475 76.767033 
L 329.17725 75.184615 
L 331.26975 67.8 
L 333.36225 66.876923 
L 335.45475 64.898901 
L 337.54725 68.854945 
L 339.63975 65.69011 
L 341.73225 59.36044 
L 343.82475 63.316484 
L 345.91725 58.569231 
L 348.00975 61.338462 
L 352.19475 61.338462 
L 354.28725 61.734066 
L 356.37975 67.272527 
L 358.47225 58.569231 
L 360.56475 61.734066 
L 362.65725 58.569231 
L 364.74975 60.942857 
L 366.84225 58.569231 
L 368.93475 58.569231 
L 371.02725 55.8 
L 373.11975 61.338462 
L 375.21225 67.272527 
L 377.30475 58.569231 
L 379.39725 64.107692 
L 381.48975 60.942857 
L 383.58225 58.569231 
L 385.67475 62.261538 
L 387.76725 62.261538 
L 389.85975 63.316484 
L 391.95225 60.151648 
L 394.04475 66.876923 
L 396.13725 59.492308 
L 398.22975 62.261538 
L 400.32225 59.492308 
L 402.41475 62.261538 
L 404.50725 65.953846 
L 406.59975 63.184615 
L 408.69225 65.69011 
L 410.78475 60.151648 
L 412.87725 58.569231 
L 414.96975 64.107692 
L 417.06225 57.778022 
L 419.15475 61.338462 
L 421.24725 60.415385 
L 423.33975 62.261538 
L 425.43225 59.492308 
L 427.52475 62.261538 
L 429.61725 59.492308 
L 431.70975 61.338462 
L 433.80225 62.525275 
L 435.89475 56.195604 
L 437.98725 59.36044 
L 440.07975 64.107692 
L 442.17225 61.338462 
L 444.26475 61.338462 
L 446.35725 61.734066 
L 448.44975 58.569231 
L 450.54225 60.942857 
L 452.63475 64.107692 
L 454.72725 58.569231 
L 456.81975 61.338462 
L 458.91225 58.569231 
L 461.00475 61.338462 
L 463.09725 58.569231 
L 465.18975 64.107692 
L 467.28225 60.942857 
L 469.37475 61.734066 
L 471.46725 64.107692 
L 473.55975 58.569231 
L 475.65225 60.415385 
L 477.74475 63.184615 
L 479.83725 60.415385 
L 481.92975 58.569231 
L 486.11475 64.107692 
L 488.20725 60.942857 
L 490.29975 60.151648 
L 492.39225 63.316484 
L 494.48475 61.734066 
L 496.57725 61.338462 
L 500.76225 63.184615 
L 502.85475 56.195604 
L 504.94725 60.151648 
L 507.03975 62.525275 
L 509.13225 57.778022 
L 511.22475 63.316484 
L 513.31725 62.261538 
L 515.40975 63.184615 
L 517.50225 58.569231 
L 519.59475 59.492308 
L 521.68725 63.184615 
L 523.77975 60.942857 
L 527.96475 60.942857 
L 530.05725 56.986813 
L 532.14975 60.942857 
L 534.24225 58.569231 
L 536.33475 61.338462 
L 538.42725 61.338462 
L 540.51975 64.107692 
L 542.61225 58.569231 
L 544.70475 66.876923 
L 546.79725 66.481319 
L 548.88975 61.734066 
L 553.07475 61.734066 
L 555.16725 60.942857 
L 557.25975 61.338462 
L 559.35225 61.338462 
L 561.44475 60.942857 
L 563.53725 61.734066 
L 567.72225 61.734066 
L 569.81475 65.953846 
L 571.90725 63.184615 
L 573.99975 61.338462 
L 576.09225 61.338462 
L 578.18475 61.734066 
L 580.27725 60.151648 
L 582.36975 60.942857 
L 584.46225 60.151648 
L 586.55475 60.415385 
L 588.64725 61.338462 
L 590.73975 58.569231 
L 592.83225 62.261538 
L 594.92475 61.338462 
L 597.01725 57.646154 
L 599.10975 61.338462 
L 601.20225 59.36044 
L 603.29475 60.942857 
L 605.38725 64.898901 
L 607.47975 65.69011 
L 609.57225 57.778022 
L 611.66475 62.261538 
L 613.75725 63.184615 
L 615.84975 63.184615 
L 617.94225 59.36044 
L 620.03475 65.69011 
L 622.12725 60.942857 
L 624.21975 58.569231 
L 626.31225 64.107692 
L 628.40475 66.876923 
L 630.49725 61.338462 
L 632.58975 61.338462 
L 634.68225 64.107692 
L 638.86725 59.36044 
L 640.95975 61.734066 
L 643.05225 60.942857 
L 645.14475 66.876923 
L 647.23725 61.338462 
L 655.60725 61.338462 
L 657.69975 58.569231 
L 661.88475 63.316484 
L 663.97725 60.942857 
L 666.06975 60.415385 
L 668.16225 62.261538 
L 670.25475 61.338462 
L 672.34725 63.184615 
L 674.43975 62.261538 
L 676.53225 60.151648 
L 678.62475 61.734066 
L 680.71725 58.569231 
L 682.80975 59.36044 
L 684.90225 65.953846 
L 686.99475 65.030769 
L 689.08725 65.030769 
L 691.17975 69.646154 
L 695.36475 71.228571 
L 697.45725 71.228571 
L 699.54975 72.810989 
L 701.64225 75.184615 
L 703.73475 75.184615 
L 705.82725 73.338462 
L 707.91975 75.184615 
L 710.01225 73.602198 
L 714.19725 76.767033 
L 716.28975 69.646154 
L 718.38225 72.01978 
L 720.47475 75.184615 
L 722.56725 75.184615 
L 724.65975 72.415385 
L 726.75225 75.184615 
L 728.84475 69.646154 
L 730.93725 74.393407 
L 733.02975 75.184615 
L 735.12225 69.646154 
L 741.39975 77.953846 
L 743.49225 72.415385 
L 745.58475 72.415385 
L 747.67725 74.393407 
L 749.76975 74.393407 
L 751.86225 72.01978 
L 753.95475 77.558242 
L 756.04725 74.393407 
L 758.13975 72.01978 
L 760.23225 71.492308 
L 762.32475 76.107692 
L 764.41725 75.184615 
L 766.50975 69.646154 
L 768.60225 69.646154 
L 770.69475 71.492308 
L 772.78725 75.184615 
L 774.87975 72.415385 
L 776.97225 73.338462 
L 779.06475 75.184615 
L 779.06475 75.184615 
" clip-path="url(#p8dbde2ff61)" style="fill: none; stroke: #dc143c; stroke-width: 2; stroke-linecap: square"/>
   </g>
   <g id="patch_7">
    <path d="M 108 320.4 
L 108 43.2 
" style="fill: none; stroke: #000000; stroke-width: 0.8; stroke-linejoin: miter; stroke-linecap: square"/>
   </g>
   <g id="patch_8">
    <path d="M 777.6 320.4 
L 777.6 43.2 
" style="fill: none; stroke: #000000; stroke-width: 0.8; stroke-linejoin: miter; stroke-linecap: square"/>
   </g>
   <g id="patch_9">
    <path d="M 108 320.4 
L 777.6 320.4 
" style="fill: none; stroke: #000000; stroke-width: 0.8; stroke-linejoin: miter; stroke-linecap: square"/>
   </g>
   <g id="patch_10">
    <path d="M 108 43.2 
L 777.6 43.2 
" style="fill: none; stroke: #000000; stroke-width: 0.8; stroke-linejoin: miter; stroke-linecap: square"/>
   </g>
   <g id="text_24">
    <!-- Min Value -->
    <g transform="translate(686.152875 75.874159) scale(0.1 -0.1)">
     <defs>
      <path id="DejaVuSans-Bold-4d" d="M 588 4666 
L 2119 4666 
L 3181 2169 
L 4250 4666 
L 5778 4666 
L 5778 0 
L 4641 0 
L 4641 3413 
L 3566 897 
L 2803 897 
L 1728 3413 
L 1728 0 
L 588 0 
L 588 4666 
z
" transform="scale(0.015625)"/>
      <path id="DejaVuSans-Bold-69" d="M 538 3500 
L 1656 3500 
L 1656 0 
L 538 0 
L 538 3500 
z
M 538 4863 
L 1656 4863 
L 1656 3950 
L 538 3950 
L 538 4863 
z
" transform="scale(0.015625)"/>
      <path id="DejaVuSans-Bold-6e" d="M 4056 2131 
L 4056 0 
L 2931 0 
L 2931 347 
L 2931 1631 
Q 2931 2084 2911 2256 
Q 2891 2428 2841 2509 
Q 2775 2619 2662 2680 
Q 2550 2741 2406 2741 
Q 2056 2741 1856 2470 
Q 1656 2200 1656 1722 
L 1656 0 
L 538 0 
L 538 3500 
L 1656 3500 
L 1656 2988 
Q 1909 3294 2193 3439 
Q 2478 3584 2822 3584 
Q 3428 3584 3742 3212 
Q 4056 2841 4056 2131 
z
" transform="scale(0.015625)"/>
      <path id="DejaVuSans-Bold-20" transform="scale(0.015625)"/>
      <path id="DejaVuSans-Bold-56" d="M 31 4666 
L 1241 4666 
L 2478 1222 
L 3713 4666 
L 4922 4666 
L 3194 0 
L 1759 0 
L 31 4666 
z
" transform="scale(0.015625)"/>
      <path id="DejaVuSans-Bold-61" d="M 2106 1575 
Q 1756 1575 1579 1456 
Q 1403 1338 1403 1106 
Q 1403 894 1545 773 
Q 1688 653 1941 653 
Q 2256 653 2472 879 
Q 2688 1106 2688 1447 
L 2688 1575 
L 2106 1575 
z
M 3816 1997 
L 3816 0 
L 2688 0 
L 2688 519 
Q 2463 200 2181 54 
Q 1900 -91 1497 -91 
Q 953 -91 614 226 
Q 275 544 275 1050 
Q 275 1666 698 1953 
Q 1122 2241 2028 2241 
L 2688 2241 
L 2688 2328 
Q 2688 2594 2478 2717 
Q 2269 2841 1825 2841 
Q 1466 2841 1156 2769 
Q 847 2697 581 2553 
L 581 3406 
Q 941 3494 1303 3539 
Q 1666 3584 2028 3584 
Q 2975 3584 3395 3211 
Q 3816 2838 3816 1997 
z
" transform="scale(0.015625)"/>
      <path id="DejaVuSans-Bold-6c" d="M 538 4863 
L 1656 4863 
L 1656 0 
L 538 0 
L 538 4863 
z
" transform="scale(0.015625)"/>
      <path id="DejaVuSans-Bold-75" d="M 500 1363 
L 500 3500 
L 1625 3500 
L 1625 3150 
Q 1625 2866 1622 2436 
Q 1619 2006 1619 1863 
Q 1619 1441 1641 1255 
Q 1663 1069 1716 984 
Q 1784 875 1895 815 
Q 2006 756 2150 756 
Q 2500 756 2700 1025 
Q 2900 1294 2900 1772 
L 2900 3500 
L 4019 3500 
L 4019 0 
L 2900 0 
L 2900 506 
Q 2647 200 2364 54 
Q 2081 -91 1741 -91 
Q 1134 -91 817 281 
Q 500 653 500 1363 
z
" transform="scale(0.015625)"/>
      <path id="DejaVuSans-Bold-65" d="M 4031 1759 
L 4031 1441 
L 1416 1441 
Q 1456 1047 1700 850 
Q 1944 653 2381 653 
Q 2734 653 3104 758 
Q 3475 863 3866 1075 
L 3866 213 
Q 3469 63 3072 -14 
Q 2675 -91 2278 -91 
Q 1328 -91 801 392 
Q 275 875 275 1747 
Q 275 2603 792 3093 
Q 1309 3584 2216 3584 
Q 3041 3584 3536 3087 
Q 4031 2591 4031 1759 
z
M 2881 2131 
Q 2881 2450 2695 2645 
Q 2509 2841 2209 2841 
Q 1884 2841 1681 2658 
Q 1478 2475 1428 2131 
L 2881 2131 
z
" transform="scale(0.015625)"/>
     </defs>
     <use xlink:href="#DejaVuSans-Bold-4d"/>
     <use xlink:href="#DejaVuSans-Bold-69" transform="translate(99.511719 0)"/>
     <use xlink:href="#DejaVuSans-Bold-6e" transform="translate(133.789062 0)"/>
     <use xlink:href="#DejaVuSans-Bold-20" transform="translate(204.980469 0)"/>
     <use xlink:href="#DejaVuSans-Bold-56" transform="translate(239.794922 0)"/>
     <use xlink:href="#DejaVuSans-Bold-61" transform="translate(311.6875 0)"/>
     <use xlink:href="#DejaVuSans-Bold-6c" transform="translate(379.167969 0)"/>
     <use xlink:href="#DejaVuSans-Bold-75" transform="translate(413.445312 0)"/>
     <use xlink:href="#DejaVuSans-Bold-65" transform="translate(484.636719 0)"/>
    </g>
   </g>
   <g id="text_25">
    <!-- Max Value -->
    <g transform="translate(371.02725 53.720312) scale(0.1 -0.1)">
     <defs>
      <path id="DejaVuSans-Bold-78" d="M 1422 1791 
L 159 3500 
L 1344 3500 
L 2059 2463 
L 2784 3500 
L 3969 3500 
L 2706 1797 
L 4031 0 
L 2847 0 
L 2059 1106 
L 1281 0 
L 97 0 
L 1422 1791 
z
" transform="scale(0.015625)"/>
     </defs>
     <use xlink:href="#DejaVuSans-Bold-4d"/>
     <use xlink:href="#DejaVuSans-Bold-61" transform="translate(99.511719 0)"/>
     <use xlink:href="#DejaVuSans-Bold-78" transform="translate(166.992188 0)"/>
     <use xlink:href="#DejaVuSans-Bold-20" transform="translate(231.494141 0)"/>
     <use xlink:href="#DejaVuSans-Bold-56" transform="translate(266.308594 0)"/>
     <use xlink:href="#DejaVuSans-Bold-61" transform="translate(338.201172 0)"/>
     <use xlink:href="#DejaVuSans-Bold-6c" transform="translate(405.681641 0)"/>
     <use xlink:href="#DejaVuSans-Bold-75" transform="translate(439.958984 0)"/>
     <use xlink:href="#DejaVuSans-Bold-65" transform="translate(511.150391 0)"/>
    </g>
   </g>
   <g id="text_26">
    <!-- Example offset (Subject 141, Trial 5) -->
    <g transform="translate(333.6225 37.2) scale(0.12 -0.12)">
     <defs>
      <path id="DejaVuSans-45" d="M 628 4666 
L 3578 4666 
L 3578 4134 
L 1259 4134 
L 1259 2753 
L 3481 2753 
L 3481 2222 
L 1259 2222 
L 1259 531 
L 3634 531 
L 3634 0 
L 628 0 
L 628 4666 
z
" transform="scale(0.015625)"/>
      <path id="DejaVuSans-78" d="M 3513 3500 
L 2247 1797 
L 3578 0 
L 2900 0 
L 1881 1375 
L 863 0 
L 184 0 
L 1544 1831 
L 300 3500 
L 978 3500 
L 1906 2253 
L 2834 3500 
L 3513 3500 
z
" transform="scale(0.015625)"/>
      <path id="DejaVuSans-6f" d="M 1959 3097 
Q 1497 3097 1228 2736 
Q 959 2375 959 1747 
Q 959 1119 1226 758 
Q 1494 397 1959 397 
Q 2419 397 2687 759 
Q 2956 1122 2956 1747 
Q 2956 2369 2687 2733 
Q 2419 3097 1959 3097 
z
M 1959 3584 
Q 2709 3584 3137 3096 
Q 3566 2609 3566 1747 
Q 3566 888 3137 398 
Q 2709 -91 1959 -91 
Q 1206 -91 779 398 
Q 353 888 353 1747 
Q 353 2609 779 3096 
Q 1206 3584 1959 3584 
z
" transform="scale(0.015625)"/>
      <path id="DejaVuSans-66" d="M 2375 4863 
L 2375 4384 
L 1825 4384 
Q 1516 4384 1395 4259 
Q 1275 4134 1275 3809 
L 1275 3500 
L 2222 3500 
L 2222 3053 
L 1275 3053 
L 1275 0 
L 697 0 
L 697 3053 
L 147 3053 
L 147 3500 
L 697 3500 
L 697 3744 
Q 697 4328 969 4595 
Q 1241 4863 1831 4863 
L 2375 4863 
z
" transform="scale(0.015625)"/>
      <path id="DejaVuSans-53" d="M 3425 4513 
L 3425 3897 
Q 3066 4069 2747 4153 
Q 2428 4238 2131 4238 
Q 1616 4238 1336 4038 
Q 1056 3838 1056 3469 
Q 1056 3159 1242 3001 
Q 1428 2844 1947 2747 
L 2328 2669 
Q 3034 2534 3370 2195 
Q 3706 1856 3706 1288 
Q 3706 609 3251 259 
Q 2797 -91 1919 -91 
Q 1588 -91 1214 -16 
Q 841 59 441 206 
L 441 856 
Q 825 641 1194 531 
Q 1563 422 1919 422 
Q 2459 422 2753 634 
Q 3047 847 3047 1241 
Q 3047 1584 2836 1778 
Q 2625 1972 2144 2069 
L 1759 2144 
Q 1053 2284 737 2584 
Q 422 2884 422 3419 
Q 422 4038 858 4394 
Q 1294 4750 2059 4750 
Q 2388 4750 2728 4690 
Q 3069 4631 3425 4513 
z
" transform="scale(0.015625)"/>
      <path id="DejaVuSans-62" d="M 3116 1747 
Q 3116 2381 2855 2742 
Q 2594 3103 2138 3103 
Q 1681 3103 1420 2742 
Q 1159 2381 1159 1747 
Q 1159 1113 1420 752 
Q 1681 391 2138 391 
Q 2594 391 2855 752 
Q 3116 1113 3116 1747 
z
M 1159 2969 
Q 1341 3281 1617 3432 
Q 1894 3584 2278 3584 
Q 2916 3584 3314 3078 
Q 3713 2572 3713 1747 
Q 3713 922 3314 415 
Q 2916 -91 2278 -91 
Q 1894 -91 1617 61 
Q 1341 213 1159 525 
L 1159 0 
L 581 0 
L 581 4863 
L 1159 4863 
L 1159 2969 
z
" transform="scale(0.015625)"/>
      <path id="DejaVuSans-6a" d="M 603 3500 
L 1178 3500 
L 1178 -63 
Q 1178 -731 923 -1031 
Q 669 -1331 103 -1331 
L -116 -1331 
L -116 -844 
L 38 -844 
Q 366 -844 484 -692 
Q 603 -541 603 -63 
L 603 3500 
z
M 603 4863 
L 1178 4863 
L 1178 4134 
L 603 4134 
L 603 4863 
z
" transform="scale(0.015625)"/>
      <path id="DejaVuSans-63" d="M 3122 3366 
L 3122 2828 
Q 2878 2963 2633 3030 
Q 2388 3097 2138 3097 
Q 1578 3097 1268 2742 
Q 959 2388 959 1747 
Q 959 1106 1268 751 
Q 1578 397 2138 397 
Q 2388 397 2633 464 
Q 2878 531 3122 666 
L 3122 134 
Q 2881 22 2623 -34 
Q 2366 -91 2075 -91 
Q 1284 -91 818 406 
Q 353 903 353 1747 
Q 353 2603 823 3093 
Q 1294 3584 2113 3584 
Q 2378 3584 2631 3529 
Q 2884 3475 3122 3366 
z
" transform="scale(0.015625)"/>
      <path id="DejaVuSans-2c" d="M 750 794 
L 1409 794 
L 1409 256 
L 897 -744 
L 494 -744 
L 750 256 
L 750 794 
z
" transform="scale(0.015625)"/>
     </defs>
     <use xlink:href="#DejaVuSans-45"/>
     <use xlink:href="#DejaVuSans-78" transform="translate(63.183594 0)"/>
     <use xlink:href="#DejaVuSans-61" transform="translate(122.363281 0)"/>
     <use xlink:href="#DejaVuSans-6d" transform="translate(183.642578 0)"/>
     <use xlink:href="#DejaVuSans-70" transform="translate(281.054688 0)"/>
     <use xlink:href="#DejaVuSans-6c" transform="translate(344.53125 0)"/>
     <use xlink:href="#DejaVuSans-65" transform="translate(372.314453 0)"/>
     <use xlink:href="#DejaVuSans-20" transform="translate(433.837891 0)"/>
     <use xlink:href="#DejaVuSans-6f" transform="translate(465.625 0)"/>
     <use xlink:href="#DejaVuSans-66" transform="translate(526.806641 0)"/>
     <use xlink:href="#DejaVuSans-66" transform="translate(562.011719 0)"/>
     <use xlink:href="#DejaVuSans-73" transform="translate(597.216797 0)"/>
     <use xlink:href="#DejaVuSans-65" transform="translate(649.316406 0)"/>
     <use xlink:href="#DejaVuSans-74" transform="translate(710.839844 0)"/>
     <use xlink:href="#DejaVuSans-20" transform="translate(750.048828 0)"/>
     <use xlink:href="#DejaVuSans-28" transform="translate(781.835938 0)"/>
     <use xlink:href="#DejaVuSans-53" transform="translate(820.849609 0)"/>
     <use xlink:href="#DejaVuSans-75" transform="translate(884.326172 0)"/>
     <use xlink:href="#DejaVuSans-62" transform="translate(947.705078 0)"/>
     <use xlink:href="#DejaVuSans-6a" transform="translate(1011.181641 0)"/>
     <use xlink:href="#DejaVuSans-65" transform="translate(1038.964844 0)"/>
     <use xlink:href="#DejaVuSans-63" transform="translate(1100.488281 0)"/>
     <use xlink:href="#DejaVuSans-74" transform="translate(1155.46875 0)"/>
     <use xlink:href="#DejaVuSans-20" transform="translate(1194.677734 0)"/>
     <use xlink:href="#DejaVuSans-31" transform="translate(1226.464844 0)"/>
     <use xlink:href="#DejaVuSans-34" transform="translate(1290.087891 0)"/>
     <use xlink:href="#DejaVuSans-31" transform="translate(1353.710938 0)"/>
     <use xlink:href="#DejaVuSans-2c" transform="translate(1417.333984 0)"/>
     <use xlink:href="#DejaVuSans-20" transform="translate(1449.121094 0)"/>
     <use xlink:href="#DejaVuSans-54" transform="translate(1480.908203 0)"/>
     <use xlink:href="#DejaVuSans-72" transform="translate(1527.242188 0)"/>
     <use xlink:href="#DejaVuSans-69" transform="translate(1568.355469 0)"/>
     <use xlink:href="#DejaVuSans-61" transform="translate(1596.138672 0)"/>
     <use xlink:href="#DejaVuSans-6c" transform="translate(1657.417969 0)"/>
     <use xlink:href="#DejaVuSans-20" transform="translate(1685.201172 0)"/>
     <use xlink:href="#DejaVuSans-35" transform="translate(1716.988281 0)"/>
     <use xlink:href="#DejaVuSans-29" transform="translate(1780.611328 0)"/>
    </g>
   </g>
   <g id="PathCollection_1">
    <defs>
     <path id="ma55e460f05" d="M 0 3.872983 
C 1.027127 3.872983 2.012324 3.464901 2.738613 2.738613 
C 3.464901 2.012324 3.872983 1.027127 3.872983 0 
C 3.872983 -1.027127 3.464901 -2.012324 2.738613 -2.738613 
C 2.012324 -3.464901 1.027127 -3.872983 0 -3.872983 
C -1.027127 -3.872983 -2.012324 -3.464901 -2.738613 -2.738613 
C -3.464901 -2.012324 -3.872983 -1.027127 -3.872983 0 
C -3.872983 1.027127 -3.464901 2.012324 -2.738613 2.738613 
C -2.012324 3.464901 -1.027127 3.872983 0 3.872983 
z
" style="stroke: #000000"/>
    </defs>
    <g clip-path="url(#p8dbde2ff61)">
     <use xlink:href="#ma55e460f05" x="741.39975" y="77.953846" style="stroke: #000000"/>
     <use xlink:href="#ma55e460f05" x="371.02725" y="55.8" style="stroke: #000000"/>
    </g>
   </g>
  </g>
 </g>
 <defs>
  <clipPath id="p8dbde2ff61">
   <rect x="108" y="43.2" width="669.6" height="277.2"/>
  </clipPath>
 </defs>
</svg>
