<?xml version="1.0" encoding="utf-8" standalone="no"?>
<!DOCTYPE svg PUBLIC "-//W3C//DTD SVG 1.1//EN"
  "http://www.w3.org/Graphics/SVG/1.1/DTD/svg11.dtd">
<svg xmlns:xlink="http://www.w3.org/1999/xlink" width="864pt" height="360pt" viewBox="0 0 864 360" xmlns="http://www.w3.org/2000/svg" version="1.1">
 <metadata>
  <rdf:RDF xmlns:dc="http://purl.org/dc/elements/1.1/" xmlns:cc="http://creativecommons.org/ns#" xmlns:rdf="http://www.w3.org/1999/02/22-rdf-syntax-ns#">
   <cc:Work>
    <dc:type rdf:resource="http://purl.org/dc/dcmitype/StillImage"/>
    <dc:date>2025-12-17T12:24:39.913380</dc:date>
    <dc:format>image/svg+xml</dc:format>
    <dc:creator>
     <cc:Agent>
      <dc:title>Matplotlib v3.10.1, https://matplotlib.org/</dc:title>
     </cc:Agent>
    </dc:creator>
   </cc:Work>
  </rdf:RDF>
 </metadata>
 <defs>
  <style type="text/css">*{stroke-linejoin: round; stroke-linecap: butt}</style>
 </defs>
 <g id="figure_1">
  <g id="patch_1">
   <path d="M 0 360 
L 864 360 
L 864 0 
L 0 0 
z
" style="fill: #ffffff"/>
  </g>
  <g id="axes_1">
   <g id="patch_2">
    <path d="M 108 320.4 
L 777.6 320.4 
L 777.6 43.2 
L 108 43.2 
z
" style="fill: #ffffff"/>
   </g>
   <g id="matplotlib.axis_1">
    <g id="xtick_1">
     <g id="line2d_1">
      <defs>
       <path id="m63d6066305" d="M 0 0 
L 0 3.5 
" style="stroke: #000000; stroke-width: 0.8"/>
      </defs>
      <g>
       <use xlink:href="#m63d6066305" x="128.925" y="320.4" style="stroke: #000000; stroke-width: 0.8"/>
      </g>
     </g>
     <g id="text_1">
      <!-- 0 -->
      <g transform="translate(125.74375 334.998438) scale(0.1 -0.1)">
       <defs>
        <path id="DejaVuSans-30" d="M 2034 4250 
Q 1547 4250 1301 3770 
Q 1056 3291 1056 2328 
Q 1056 1369 1301 889 
Q 1547 409 2034 409 
Q 2525 409 2770 889 
Q 3016 1369 3016 2328 
Q 3016 3291 2770 3770 
Q 2525 4250 2034 4250 
z
M 2034 4750 
Q 2819 4750 3233 4129 
Q 3647 3509 3647 2328 
Q 3647 1150 3233 529 
Q 2819 -91 2034 -91 
Q 1250 -91 836 529 
Q 422 1150 422 2328 
Q 422 3509 836 4129 
Q 1250 4750 2034 4750 
z
" transform="scale(0.015625)"/>
       </defs>
       <use xlink:href="#DejaVuSans-30"/>
      </g>
     </g>
    </g>
    <g id="xtick_2">
     <g id="line2d_2">
      <g>
       <use xlink:href="#m63d6066305" x="233.55" y="320.4" style="stroke: #000000; stroke-width: 0.8"/>
      </g>
     </g>
     <g id="text_2">
      <!-- 5 -->
      <g transform="translate(230.36875 334.998438) scale(0.1 -0.1)">
       <defs>
        <path id="DejaVuSans-35" d="M 691 4666 
L 3169 4666 
L 3169 4134 
L 1269 4134 
L 1269 2991 
Q 1406 3038 1543 3061 
Q 1681 3084 1819 3084 
Q 2600 3084 3056 2656 
Q 3513 2228 3513 1497 
Q 3513 744 3044 326 
Q 2575 -91 1722 -91 
Q 1428 -91 1123 -41 
Q 819 9 494 109 
L 494 744 
Q 775 591 1075 516 
Q 1375 441 1709 441 
Q 2250 441 2565 725 
Q 2881 1009 2881 1497 
Q 2881 1984 2565 2268 
Q 2250 2553 1709 2553 
Q 1456 2553 1204 2497 
Q 953 2441 691 2322 
L 691 4666 
z
" transform="scale(0.015625)"/>
       </defs>
       <use xlink:href="#DejaVuSans-35"/>
      </g>
     </g>
    </g>
    <g id="xtick_3">
     <g id="line2d_3">
      <g>
       <use xlink:href="#m63d6066305" x="338.175" y="320.4" style="stroke: #000000; stroke-width: 0.8"/>
      </g>
     </g>
     <g id="text_3">
      <!-- 10 -->
      <g transform="translate(331.8125 334.998438) scale(0.1 -0.1)">
       <defs>
        <path id="DejaVuSans-31" d="M 794 531 
L 1825 531 
L 1825 4091 
L 703 3866 
L 703 4441 
L 1819 4666 
L 2450 4666 
L 2450 531 
L 3481 531 
L 3481 0 
L 794 0 
L 794 531 
z
" transform="scale(0.015625)"/>
       </defs>
       <use xlink:href="#DejaVuSans-31"/>
       <use xlink:href="#DejaVuSans-30" transform="translate(63.623047 0)"/>
      </g>
     </g>
    </g>
    <g id="xtick_4">
     <g id="line2d_4">
      <g>
       <use xlink:href="#m63d6066305" x="442.8" y="320.4" style="stroke: #000000; stroke-width: 0.8"/>
      </g>
     </g>
     <g id="text_4">
      <!-- 15 -->
      <g transform="translate(436.4375 334.998438) scale(0.1 -0.1)">
       <use xlink:href="#DejaVuSans-31"/>
       <use xlink:href="#DejaVuSans-35" transform="translate(63.623047 0)"/>
      </g>
     </g>
    </g>
    <g id="xtick_5">
     <g id="line2d_5">
      <g>
       <use xlink:href="#m63d6066305" x="547.425" y="320.4" style="stroke: #000000; stroke-width: 0.8"/>
      </g>
     </g>
     <g id="text_5">
      <!-- 20 -->
      <g transform="translate(541.0625 334.998438) scale(0.1 -0.1)">
       <defs>
        <path id="DejaVuSans-32" d="M 1228 531 
L 3431 531 
L 3431 0 
L 469 0 
L 469 531 
Q 828 903 1448 1529 
Q 2069 2156 2228 2338 
Q 2531 2678 2651 2914 
Q 2772 3150 2772 3378 
Q 2772 3750 2511 3984 
Q 2250 4219 1831 4219 
Q 1534 4219 1204 4116 
Q 875 4013 500 3803 
L 500 4441 
Q 881 4594 1212 4672 
Q 1544 4750 1819 4750 
Q 2544 4750 2975 4387 
Q 3406 4025 3406 3419 
Q 3406 3131 3298 2873 
Q 3191 2616 2906 2266 
Q 2828 2175 2409 1742 
Q 1991 1309 1228 531 
z
" transform="scale(0.015625)"/>
       </defs>
       <use xlink:href="#DejaVuSans-32"/>
       <use xlink:href="#DejaVuSans-30" transform="translate(63.623047 0)"/>
      </g>
     </g>
    </g>
    <g id="xtick_6">
     <g id="line2d_6">
      <g>
       <use xlink:href="#m63d6066305" x="652.05" y="320.4" style="stroke: #000000; stroke-width: 0.8"/>
      </g>
     </g>
     <g id="text_6">
      <!-- 25 -->
      <g transform="translate(645.6875 334.998438) scale(0.1 -0.1)">
       <use xlink:href="#DejaVuSans-32"/>
       <use xlink:href="#DejaVuSans-35" transform="translate(63.623047 0)"/>
      </g>
     </g>
    </g>
    <g id="xtick_7">
     <g id="line2d_7">
      <g>
       <use xlink:href="#m63d6066305" x="756.675" y="320.4" style="stroke: #000000; stroke-width: 0.8"/>
      </g>
     </g>
     <g id="text_7">
      <!-- 30 -->
      <g transform="translate(750.3125 334.998438) scale(0.1 -0.1)">
       <defs>
        <path id="DejaVuSans-33" d="M 2597 2516 
Q 3050 2419 3304 2112 
Q 3559 1806 3559 1356 
Q 3559 666 3084 287 
Q 2609 -91 1734 -91 
Q 1441 -91 1130 -33 
Q 819 25 488 141 
L 488 750 
Q 750 597 1062 519 
Q 1375 441 1716 441 
Q 2309 441 2620 675 
Q 2931 909 2931 1356 
Q 2931 1769 2642 2001 
Q 2353 2234 1838 2234 
L 1294 2234 
L 1294 2753 
L 1863 2753 
Q 2328 2753 2575 2939 
Q 2822 3125 2822 3475 
Q 2822 3834 2567 4026 
Q 2313 4219 1838 4219 
Q 1578 4219 1281 4162 
Q 984 4106 628 3988 
L 628 4550 
Q 988 4650 1302 4700 
Q 1616 4750 1894 4750 
Q 2613 4750 3031 4423 
Q 3450 4097 3450 3541 
Q 3450 3153 3228 2886 
Q 3006 2619 2597 2516 
z
" transform="scale(0.015625)"/>
       </defs>
       <use xlink:href="#DejaVuSans-33"/>
       <use xlink:href="#DejaVuSans-30" transform="translate(63.623047 0)"/>
      </g>
     </g>
    </g>
    <g id="text_8">
     <!-- Aligned Time (s) -->
     <g transform="translate(402.089844 348.676562) scale(0.1 -0.1)">
      <defs>
       <path id="DejaVuSans-41" d="M 2188 4044 
L 1331 1722 
L 3047 1722 
L 2188 4044 
z
M 1831 4666 
L 2547 4666 
L 4325 0 
L 3669 0 
L 3244 1197 
L 1141 1197 
L 716 0 
L 50 0 
L 1831 4666 
z
" transform="scale(0.015625)"/>
       <path id="DejaVuSans-6c" d="M 603 4863 
L 1178 4863 
L 1178 0 
L 603 0 
L 603 4863 
z
" transform="scale(0.015625)"/>
       <path id="DejaVuSans-69" d="M 603 3500 
L 1178 3500 
L 1178 0 
L 603 0 
L 603 3500 
z
M 603 4863 
L 1178 4863 
L 1178 4134 
L 603 4134 
L 603 4863 
z
" transform="scale(0.015625)"/>
       <path id="DejaVuSans-67" d="M 2906 1791 
Q 2906 2416 2648 2759 
Q 2391 3103 1925 3103 
Q 1463 3103 1205 2759 
Q 947 2416 947 1791 
Q 947 1169 1205 825 
Q 1463 481 1925 481 
Q 2391 481 2648 825 
Q 2906 1169 2906 1791 
z
M 3481 434 
Q 3481 -459 3084 -895 
Q 2688 -1331 1869 -1331 
Q 1566 -1331 1297 -1286 
Q 1028 -1241 775 -1147 
L 775 -588 
Q 1028 -725 1275 -790 
Q 1522 -856 1778 -856 
Q 2344 -856 2625 -561 
Q 2906 -266 2906 331 
L 2906 616 
Q 2728 306 2450 153 
Q 2172 0 1784 0 
Q 1141 0 747 490 
Q 353 981 353 1791 
Q 353 2603 747 3093 
Q 1141 3584 1784 3584 
Q 2172 3584 2450 3431 
Q 2728 3278 2906 2969 
L 2906 3500 
L 3481 3500 
L 3481 434 
z
" transform="scale(0.015625)"/>
       <path id="DejaVuSans-6e" d="M 3513 2113 
L 3513 0 
L 2938 0 
L 2938 2094 
Q 2938 2591 2744 2837 
Q 2550 3084 2163 3084 
Q 1697 3084 1428 2787 
Q 1159 2491 1159 1978 
L 1159 0 
L 581 0 
L 581 3500 
L 1159 3500 
L 1159 2956 
Q 1366 3272 1645 3428 
Q 1925 3584 2291 3584 
Q 2894 3584 3203 3211 
Q 3513 2838 3513 2113 
z
" transform="scale(0.015625)"/>
       <path id="DejaVuSans-65" d="M 3597 1894 
L 3597 1613 
L 953 1613 
Q 991 1019 1311 708 
Q 1631 397 2203 397 
Q 2534 397 2845 478 
Q 3156 559 3463 722 
L 3463 178 
Q 3153 47 2828 -22 
Q 2503 -91 2169 -91 
Q 1331 -91 842 396 
Q 353 884 353 1716 
Q 353 2575 817 3079 
Q 1281 3584 2069 3584 
Q 2775 3584 3186 3129 
Q 3597 2675 3597 1894 
z
M 3022 2063 
Q 3016 2534 2758 2815 
Q 2500 3097 2075 3097 
Q 1594 3097 1305 2825 
Q 1016 2553 972 2059 
L 3022 2063 
z
" transform="scale(0.015625)"/>
       <path id="DejaVuSans-64" d="M 2906 2969 
L 2906 4863 
L 3481 4863 
L 3481 0 
L 2906 0 
L 2906 525 
Q 2725 213 2448 61 
Q 2172 -91 1784 -91 
Q 1150 -91 751 415 
Q 353 922 353 1747 
Q 353 2572 751 3078 
Q 1150 3584 1784 3584 
Q 2172 3584 2448 3432 
Q 2725 3281 2906 2969 
z
M 947 1747 
Q 947 1113 1208 752 
Q 1469 391 1925 391 
Q 2381 391 2643 752 
Q 2906 1113 2906 1747 
Q 2906 2381 2643 2742 
Q 2381 3103 1925 3103 
Q 1469 3103 1208 2742 
Q 947 2381 947 1747 
z
" transform="scale(0.015625)"/>
       <path id="DejaVuSans-20" transform="scale(0.015625)"/>
       <path id="DejaVuSans-54" d="M -19 4666 
L 3928 4666 
L 3928 4134 
L 2272 4134 
L 2272 0 
L 1638 0 
L 1638 4134 
L -19 4134 
L -19 4666 
z
" transform="scale(0.015625)"/>
       <path id="DejaVuSans-6d" d="M 3328 2828 
Q 3544 3216 3844 3400 
Q 4144 3584 4550 3584 
Q 5097 3584 5394 3201 
Q 5691 2819 5691 2113 
L 5691 0 
L 5113 0 
L 5113 2094 
Q 5113 2597 4934 2840 
Q 4756 3084 4391 3084 
Q 3944 3084 3684 2787 
Q 3425 2491 3425 1978 
L 3425 0 
L 2847 0 
L 2847 2094 
Q 2847 2600 2669 2842 
Q 2491 3084 2119 3084 
Q 1678 3084 1418 2786 
Q 1159 2488 1159 1978 
L 1159 0 
L 581 0 
L 581 3500 
L 1159 3500 
L 1159 2956 
Q 1356 3278 1631 3431 
Q 1906 3584 2284 3584 
Q 2666 3584 2933 3390 
Q 3200 3197 3328 2828 
z
" transform="scale(0.015625)"/>
       <path id="DejaVuSans-28" d="M 1984 4856 
Q 1566 4138 1362 3434 
Q 1159 2731 1159 2009 
Q 1159 1288 1364 580 
Q 1569 -128 1984 -844 
L 1484 -844 
Q 1016 -109 783 600 
Q 550 1309 550 2009 
Q 550 2706 781 3412 
Q 1013 4119 1484 4856 
L 1984 4856 
z
" transform="scale(0.015625)"/>
       <path id="DejaVuSans-73" d="M 2834 3397 
L 2834 2853 
Q 2591 2978 2328 3040 
Q 2066 3103 1784 3103 
Q 1356 3103 1142 2972 
Q 928 2841 928 2578 
Q 928 2378 1081 2264 
Q 1234 2150 1697 2047 
L 1894 2003 
Q 2506 1872 2764 1633 
Q 3022 1394 3022 966 
Q 3022 478 2636 193 
Q 2250 -91 1575 -91 
Q 1294 -91 989 -36 
Q 684 19 347 128 
L 347 722 
Q 666 556 975 473 
Q 1284 391 1588 391 
Q 1994 391 2212 530 
Q 2431 669 2431 922 
Q 2431 1156 2273 1281 
Q 2116 1406 1581 1522 
L 1381 1569 
Q 847 1681 609 1914 
Q 372 2147 372 2553 
Q 372 3047 722 3315 
Q 1072 3584 1716 3584 
Q 2034 3584 2315 3537 
Q 2597 3491 2834 3397 
z
" transform="scale(0.015625)"/>
       <path id="DejaVuSans-29" d="M 513 4856 
L 1013 4856 
Q 1481 4119 1714 3412 
Q 1947 2706 1947 2009 
Q 1947 1309 1714 600 
Q 1481 -109 1013 -844 
L 513 -844 
Q 928 -128 1133 580 
Q 1338 1288 1338 2009 
Q 1338 2731 1133 3434 
Q 928 4138 513 4856 
z
" transform="scale(0.015625)"/>
      </defs>
      <use xlink:href="#DejaVuSans-41"/>
      <use xlink:href="#DejaVuSans-6c" transform="translate(68.408203 0)"/>
      <use xlink:href="#DejaVuSans-69" transform="translate(96.191406 0)"/>
      <use xlink:href="#DejaVuSans-67" transform="translate(123.974609 0)"/>
      <use xlink:href="#DejaVuSans-6e" transform="translate(187.451172 0)"/>
      <use xlink:href="#DejaVuSans-65" transform="translate(250.830078 0)"/>
      <use xlink:href="#DejaVuSans-64" transform="translate(312.353516 0)"/>
      <use xlink:href="#DejaVuSans-20" transform="translate(375.830078 0)"/>
      <use xlink:href="#DejaVuSans-54" transform="translate(407.617188 0)"/>
      <use xlink:href="#DejaVuSans-69" transform="translate(465.576172 0)"/>
      <use xlink:href="#DejaVuSans-6d" transform="translate(493.359375 0)"/>
      <use xlink:href="#DejaVuSans-65" transform="translate(590.771484 0)"/>
      <use xlink:href="#DejaVuSans-20" transform="translate(652.294922 0)"/>
      <use xlink:href="#DejaVuSans-28" transform="translate(684.082031 0)"/>
      <use xlink:href="#DejaVuSans-73" transform="translate(723.095703 0)"/>
      <use xlink:href="#DejaVuSans-29" transform="translate(775.195312 0)"/>
     </g>
    </g>
   </g>
   <g id="matplotlib.axis_2">
    <g id="ytick_1">
     <g id="line2d_8">
      <defs>
       <path id="m125f8f6f05" d="M 0 0 
L -3.5 0 
" style="stroke: #000000; stroke-width: 0.8"/>
      </defs>
      <g>
       <use xlink:href="#m125f8f6f05" x="108" y="296.56237" style="stroke: #000000; stroke-width: 0.8"/>
      </g>
     </g>
     <g id="text_9">
      <!-- 32.5 -->
      <g style="fill: #808080" transform="translate(78.734375 300.361589) scale(0.1 -0.1)">
       <defs>
        <path id="DejaVuSans-2e" d="M 684 794 
L 1344 794 
L 1344 0 
L 684 0 
L 684 794 
z
" transform="scale(0.015625)"/>
       </defs>
       <use xlink:href="#DejaVuSans-33"/>
       <use xlink:href="#DejaVuSans-32" transform="translate(63.623047 0)"/>
       <use xlink:href="#DejaVuSans-2e" transform="translate(127.246094 0)"/>
       <use xlink:href="#DejaVuSans-35" transform="translate(159.033203 0)"/>
      </g>
     </g>
    </g>
    <g id="ytick_2">
     <g id="line2d_9">
      <g>
       <use xlink:href="#m125f8f6f05" x="108" y="258.077337" style="stroke: #000000; stroke-width: 0.8"/>
      </g>
     </g>
     <g id="text_10">
      <!-- 35.0 -->
      <g style="fill: #808080" transform="translate(78.734375 261.876555) scale(0.1 -0.1)">
       <use xlink:href="#DejaVuSans-33"/>
       <use xlink:href="#DejaVuSans-35" transform="translate(63.623047 0)"/>
       <use xlink:href="#DejaVuSans-2e" transform="translate(127.246094 0)"/>
       <use xlink:href="#DejaVuSans-30" transform="translate(159.033203 0)"/>
      </g>
     </g>
    </g>
    <g id="ytick_3">
     <g id="line2d_10">
      <g>
       <use xlink:href="#m125f8f6f05" x="108" y="219.592303" style="stroke: #000000; stroke-width: 0.8"/>
      </g>
     </g>
     <g id="text_11">
      <!-- 37.5 -->
      <g style="fill: #808080" transform="translate(78.734375 223.391522) scale(0.1 -0.1)">
       <defs>
        <path id="DejaVuSans-37" d="M 525 4666 
L 3525 4666 
L 3525 4397 
L 1831 0 
L 1172 0 
L 2766 4134 
L 525 4134 
L 525 4666 
z
" transform="scale(0.015625)"/>
       </defs>
       <use xlink:href="#DejaVuSans-33"/>
       <use xlink:href="#DejaVuSans-37" transform="translate(63.623047 0)"/>
       <use xlink:href="#DejaVuSans-2e" transform="translate(127.246094 0)"/>
       <use xlink:href="#DejaVuSans-35" transform="translate(159.033203 0)"/>
      </g>
     </g>
    </g>
    <g id="ytick_4">
     <g id="line2d_11">
      <g>
       <use xlink:href="#m125f8f6f05" x="108" y="181.107269" style="stroke: #000000; stroke-width: 0.8"/>
      </g>
     </g>
     <g id="text_12">
      <!-- 40.0 -->
      <g style="fill: #808080" transform="translate(78.734375 184.906488) scale(0.1 -0.1)">
       <defs>
        <path id="DejaVuSans-34" d="M 2419 4116 
L 825 1625 
L 2419 1625 
L 2419 4116 
z
M 2253 4666 
L 3047 4666 
L 3047 1625 
L 3713 1625 
L 3713 1100 
L 3047 1100 
L 3047 0 
L 2419 0 
L 2419 1100 
L 313 1100 
L 313 1709 
L 2253 4666 
z
" transform="scale(0.015625)"/>
       </defs>
       <use xlink:href="#DejaVuSans-34"/>
       <use xlink:href="#DejaVuSans-30" transform="translate(63.623047 0)"/>
       <use xlink:href="#DejaVuSans-2e" transform="translate(127.246094 0)"/>
       <use xlink:href="#DejaVuSans-30" transform="translate(159.033203 0)"/>
      </g>
     </g>
    </g>
    <g id="ytick_5">
     <g id="line2d_12">
      <g>
       <use xlink:href="#m125f8f6f05" x="108" y="142.622236" style="stroke: #000000; stroke-width: 0.8"/>
      </g>
     </g>
     <g id="text_13">
      <!-- 42.5 -->
      <g style="fill: #808080" transform="translate(78.734375 146.421455) scale(0.1 -0.1)">
       <use xlink:href="#DejaVuSans-34"/>
       <use xlink:href="#DejaVuSans-32" transform="translate(63.623047 0)"/>
       <use xlink:href="#DejaVuSans-2e" transform="translate(127.246094 0)"/>
       <use xlink:href="#DejaVuSans-35" transform="translate(159.033203 0)"/>
      </g>
     </g>
    </g>
    <g id="ytick_6">
     <g id="line2d_13">
      <g>
       <use xlink:href="#m125f8f6f05" x="108" y="104.137202" style="stroke: #000000; stroke-width: 0.8"/>
      </g>
     </g>
     <g id="text_14">
      <!-- 45.0 -->
      <g style="fill: #808080" transform="translate(78.734375 107.936421) scale(0.1 -0.1)">
       <use xlink:href="#DejaVuSans-34"/>
       <use xlink:href="#DejaVuSans-35" transform="translate(63.623047 0)"/>
       <use xlink:href="#DejaVuSans-2e" transform="translate(127.246094 0)"/>
       <use xlink:href="#DejaVuSans-30" transform="translate(159.033203 0)"/>
      </g>
     </g>
    </g>
    <g id="ytick_7">
     <g id="line2d_14">
      <g>
       <use xlink:href="#m125f8f6f05" x="108" y="65.652169" style="stroke: #000000; stroke-width: 0.8"/>
      </g>
     </g>
     <g id="text_15">
      <!-- 47.5 -->
      <g style="fill: #808080" transform="translate(78.734375 69.451387) scale(0.1 -0.1)">
       <use xlink:href="#DejaVuSans-34"/>
       <use xlink:href="#DejaVuSans-37" transform="translate(63.623047 0)"/>
       <use xlink:href="#DejaVuSans-2e" transform="translate(127.246094 0)"/>
       <use xlink:href="#DejaVuSans-35" transform="translate(159.033203 0)"/>
      </g>
     </g>
    </g>
    <g id="text_16">
     <!-- Temperature (°C) -->
     <g style="fill: #808080" transform="translate(72.654687 224.951562) rotate(-90) scale(0.1 -0.1)">
      <defs>
       <path id="DejaVuSans-70" d="M 1159 525 
L 1159 -1331 
L 581 -1331 
L 581 3500 
L 1159 3500 
L 1159 2969 
Q 1341 3281 1617 3432 
Q 1894 3584 2278 3584 
Q 2916 3584 3314 3078 
Q 3713 2572 3713 1747 
Q 3713 922 3314 415 
Q 2916 -91 2278 -91 
Q 1894 -91 1617 61 
Q 1341 213 1159 525 
z
M 3116 1747 
Q 3116 2381 2855 2742 
Q 2594 3103 2138 3103 
Q 1681 3103 1420 2742 
Q 1159 2381 1159 1747 
Q 1159 1113 1420 752 
Q 1681 391 2138 391 
Q 2594 391 2855 752 
Q 3116 1113 3116 1747 
z
" transform="scale(0.015625)"/>
       <path id="DejaVuSans-72" d="M 2631 2963 
Q 2534 3019 2420 3045 
Q 2306 3072 2169 3072 
Q 1681 3072 1420 2755 
Q 1159 2438 1159 1844 
L 1159 0 
L 581 0 
L 581 3500 
L 1159 3500 
L 1159 2956 
Q 1341 3275 1631 3429 
Q 1922 3584 2338 3584 
Q 2397 3584 2469 3576 
Q 2541 3569 2628 3553 
L 2631 2963 
z
" transform="scale(0.015625)"/>
       <path id="DejaVuSans-61" d="M 2194 1759 
Q 1497 1759 1228 1600 
Q 959 1441 959 1056 
Q 959 750 1161 570 
Q 1363 391 1709 391 
Q 2188 391 2477 730 
Q 2766 1069 2766 1631 
L 2766 1759 
L 2194 1759 
z
M 3341 1997 
L 3341 0 
L 2766 0 
L 2766 531 
Q 2569 213 2275 61 
Q 1981 -91 1556 -91 
Q 1019 -91 701 211 
Q 384 513 384 1019 
Q 384 1609 779 1909 
Q 1175 2209 1959 2209 
L 2766 2209 
L 2766 2266 
Q 2766 2663 2505 2880 
Q 2244 3097 1772 3097 
Q 1472 3097 1187 3025 
Q 903 2953 641 2809 
L 641 3341 
Q 956 3463 1253 3523 
Q 1550 3584 1831 3584 
Q 2591 3584 2966 3190 
Q 3341 2797 3341 1997 
z
" transform="scale(0.015625)"/>
       <path id="DejaVuSans-74" d="M 1172 4494 
L 1172 3500 
L 2356 3500 
L 2356 3053 
L 1172 3053 
L 1172 1153 
Q 1172 725 1289 603 
Q 1406 481 1766 481 
L 2356 481 
L 2356 0 
L 1766 0 
Q 1100 0 847 248 
Q 594 497 594 1153 
L 594 3053 
L 172 3053 
L 172 3500 
L 594 3500 
L 594 4494 
L 1172 4494 
z
" transform="scale(0.015625)"/>
       <path id="DejaVuSans-75" d="M 544 1381 
L 544 3500 
L 1119 3500 
L 1119 1403 
Q 1119 906 1312 657 
Q 1506 409 1894 409 
Q 2359 409 2629 706 
Q 2900 1003 2900 1516 
L 2900 3500 
L 3475 3500 
L 3475 0 
L 2900 0 
L 2900 538 
Q 2691 219 2414 64 
Q 2138 -91 1772 -91 
Q 1169 -91 856 284 
Q 544 659 544 1381 
z
M 1991 3584 
L 1991 3584 
z
" transform="scale(0.015625)"/>
       <path id="DejaVuSans-b0" d="M 1600 4347 
Q 1350 4347 1178 4173 
Q 1006 4000 1006 3750 
Q 1006 3503 1178 3333 
Q 1350 3163 1600 3163 
Q 1850 3163 2022 3333 
Q 2194 3503 2194 3750 
Q 2194 3997 2020 4172 
Q 1847 4347 1600 4347 
z
M 1600 4750 
Q 1800 4750 1984 4673 
Q 2169 4597 2303 4453 
Q 2447 4313 2519 4134 
Q 2591 3956 2591 3750 
Q 2591 3338 2302 3052 
Q 2013 2766 1594 2766 
Q 1172 2766 890 3047 
Q 609 3328 609 3750 
Q 609 4169 896 4459 
Q 1184 4750 1600 4750 
z
" transform="scale(0.015625)"/>
       <path id="DejaVuSans-43" d="M 4122 4306 
L 4122 3641 
Q 3803 3938 3442 4084 
Q 3081 4231 2675 4231 
Q 1875 4231 1450 3742 
Q 1025 3253 1025 2328 
Q 1025 1406 1450 917 
Q 1875 428 2675 428 
Q 3081 428 3442 575 
Q 3803 722 4122 1019 
L 4122 359 
Q 3791 134 3420 21 
Q 3050 -91 2638 -91 
Q 1578 -91 968 557 
Q 359 1206 359 2328 
Q 359 3453 968 4101 
Q 1578 4750 2638 4750 
Q 3056 4750 3426 4639 
Q 3797 4528 4122 4306 
z
" transform="scale(0.015625)"/>
      </defs>
      <use xlink:href="#DejaVuSans-54"/>
      <use xlink:href="#DejaVuSans-65" transform="translate(44.083984 0)"/>
      <use xlink:href="#DejaVuSans-6d" transform="translate(105.607422 0)"/>
      <use xlink:href="#DejaVuSans-70" transform="translate(203.019531 0)"/>
      <use xlink:href="#DejaVuSans-65" transform="translate(266.496094 0)"/>
      <use xlink:href="#DejaVuSans-72" transform="translate(328.019531 0)"/>
      <use xlink:href="#DejaVuSans-61" transform="translate(369.132812 0)"/>
      <use xlink:href="#DejaVuSans-74" transform="translate(430.412109 0)"/>
      <use xlink:href="#DejaVuSans-75" transform="translate(469.621094 0)"/>
      <use xlink:href="#DejaVuSans-72" transform="translate(533 0)"/>
      <use xlink:href="#DejaVuSans-65" transform="translate(571.863281 0)"/>
      <use xlink:href="#DejaVuSans-20" transform="translate(633.386719 0)"/>
      <use xlink:href="#DejaVuSans-28" transform="translate(665.173828 0)"/>
      <use xlink:href="#DejaVuSans-b0" transform="translate(704.1875 0)"/>
      <use xlink:href="#DejaVuSans-43" transform="translate(754.1875 0)"/>
      <use xlink:href="#DejaVuSans-29" transform="translate(824.011719 0)"/>
     </g>
    </g>
   </g>
   <g id="line2d_15">
    <path d="M 105.9075 77.329627 
L 108 75.09383 
L 110.0925 72.682101 
L 112.185 70.83482 
L 114.2775 68.243494 
L 116.37 65.894075 
L 120.555 62.4854 
L 122.6475 60.880024 
L 124.74 59.494563 
L 126.8325 58.365669 
L 133.11 56.908369 
L 135.2025 57.416371 
L 137.295 57.603299 
L 139.3875 57.544655 
L 141.48 57.878192 
L 143.5725 57.889188 
L 145.665 58.021136 
L 147.7575 58.021136 
L 149.85 57.823213 
L 151.9425 57.075504 
L 154.035 57.647282 
L 156.1275 57.515333 
L 158.22 56.987538 
L 162.405 57.16347 
L 164.4975 57.570312 
L 166.59 57.427367 
L 168.6825 57.647282 
L 170.775 57.713256 
L 172.8675 58.078314 
L 174.96 57.47135 
L 177.0525 57.93317 
L 179.145 57.749908 
L 181.2375 57.16347 
L 189.6075 57.929505 
L 191.7 57.845205 
L 195.885 58.131093 
L 197.9775 57.62529 
L 200.07 57.544655 
L 202.1625 57.62529 
L 204.255 58.006475 
L 206.3475 57.713256 
L 208.44 57.616494 
L 210.5325 58.021136 
L 212.625 57.698595 
L 216.81 57.980819 
L 218.9025 57.449359 
L 220.995 58.032132 
L 223.0875 57.889188 
L 227.2725 58.109102 
L 229.365 57.621625 
L 231.4575 57.621625 
L 233.55 58.131093 
L 235.6425 59.252657 
L 237.735 60.726084 
L 239.8275 63.650947 
L 241.92 66.223946 
L 244.0125 69.456689 
L 246.105 72.007697 
L 248.1975 73.701038 
L 250.29 75.222114 
L 252.3825 75.529994 
L 254.475 74.250825 
L 258.66 72.425535 
L 260.7525 71.369945 
L 262.845 70.91179 
L 264.9375 71.168357 
L 267.03 71.758461 
L 269.1225 72.836042 
L 271.215 73.682712 
L 273.3075 74.316799 
L 277.4925 74.580696 
L 281.6775 73.327184 
L 283.77 73.118265 
L 285.8625 72.656445 
L 287.955 72.759071 
L 290.0475 72.605131 
L 292.14 73.118265 
L 294.2325 73.107269 
L 300.51 74.096885 
L 302.6025 74.041906 
L 304.695 73.836652 
L 306.7875 73.759682 
L 308.88 73.063286 
L 310.9725 73.107269 
L 315.1575 72.843372 
L 317.25 73.151252 
L 319.3425 73.085278 
L 321.435 73.657056 
L 323.5275 73.528772 
L 325.62 73.143922 
L 327.7125 73.400489 
L 329.805 73.217227 
L 331.8975 73.459133 
L 333.99 73.26121 
L 336.0825 73.393158 
L 338.175 72.989982 
L 340.2675 73.477459 
L 342.36 73.169578 
L 346.545 73.964936 
L 348.6375 73.525107 
L 354.915 73.283201 
L 357.0075 72.989982 
L 359.1 72.015027 
L 361.1925 70.75785 
L 363.285 68.448748 
L 365.3775 66.355895 
L 367.47 63.453024 
L 371.655 58.647892 
L 373.7475 56.621014 
L 375.84 55.8 
L 377.9325 56.133537 
L 380.025 55.8 
L 382.1175 56.943555 
L 384.21 57.361393 
L 386.3025 58.016738 
L 388.395 58.519609 
L 390.4875 59.340623 
L 392.58 59.494563 
L 396.765 58.702871 
L 398.8575 58.394991 
L 403.0425 57.339401 
L 405.135 57.005864 
L 407.2275 56.877581 
L 409.32 57.082834 
L 411.4125 57.134148 
L 413.505 56.826268 
L 417.69 58.131093 
L 419.7825 57.77923 
L 421.875 57.977153 
L 423.9675 58.288699 
L 426.06 57.852535 
L 428.1525 58.314356 
L 430.245 57.878192 
L 436.5225 57.735247 
L 438.615 58.351008 
L 440.7075 58.065119 
L 442.8 57.647282 
L 444.8925 57.749908 
L 446.985 57.544655 
L 449.0775 57.698595 
L 451.17 57.647282 
L 453.2625 57.980819 
L 457.4475 58.021136 
L 459.54 58.021136 
L 461.6325 58.438974 
L 463.725 58.211729 
L 465.8175 58.288699 
L 467.91 57.724252 
L 470.0025 57.929505 
L 472.095 57.442028 
L 474.1875 57.911179 
L 476.28 57.735247 
L 478.3725 57.977153 
L 484.65 57.903849 
L 486.7425 57.698595 
L 490.9275 57.955162 
L 493.02 57.911179 
L 495.1125 57.669273 
L 501.39 57.955162 
L 503.4825 57.442028 
L 507.6675 58.134759 
L 511.8525 57.691265 
L 513.945 57.999145 
L 516.0375 58.087111 
L 518.13 57.955162 
L 522.315 58.134759 
L 528.5925 57.903849 
L 532.7775 58.160415 
L 534.87 58.131093 
L 536.9625 57.669273 
L 539.055 58.087111 
L 541.1475 58.186072 
L 543.24 57.775565 
L 545.3325 57.878192 
L 547.425 57.724252 
L 549.5175 58.237385 
L 551.61 57.955162 
L 553.7025 58.043128 
L 555.795 57.845205 
L 557.8875 57.775565 
L 559.98 58.237385 
L 562.0725 58.057789 
L 564.165 58.083445 
L 566.2575 57.672938 
L 568.35 58.032132 
L 570.4425 57.713256 
L 572.535 58.109102 
L 574.6275 57.47135 
L 576.72 58.087111 
L 580.905 57.775565 
L 582.9975 58.109102 
L 585.09 58.083445 
L 587.1825 57.878192 
L 589.275 58.032132 
L 591.3675 57.999145 
L 593.46 58.241051 
L 595.5525 57.449359 
L 597.645 58.109102 
L 599.7375 57.647282 
L 603.9225 58.134759 
L 606.015 57.826878 
L 608.1075 58.263042 
L 610.2 57.889188 
L 612.2925 58.131093 
L 616.4775 58.032132 
L 618.57 57.544655 
L 620.6625 58.391326 
L 622.755 57.889188 
L 624.8475 57.955162 
L 626.94 57.735247 
L 629.0325 58.021136 
L 633.2175 57.47135 
L 637.4025 58.134759 
L 639.495 57.724252 
L 641.5875 57.929505 
L 643.68 58.006475 
L 645.7725 58.314356 
L 647.865 57.647282 
L 649.9575 57.603299 
L 652.05 58.043128 
L 654.1425 57.621625 
L 656.235 57.955162 
L 658.3275 57.878192 
L 660.42 58.032132 
L 662.5125 57.801222 
L 664.605 57.735247 
L 666.6975 57.977153 
L 675.0675 58.175076 
L 677.16 57.862798 
L 679.2525 57.955162 
L 681.345 58.160415 
L 683.4375 57.955162 
L 687.6225 58.109102 
L 689.715 57.889188 
L 691.8075 58.351008 
L 693.9 58.197068 
L 695.9925 58.394991 
L 700.1775 58.211729 
L 702.27 57.903849 
L 704.3625 57.801222 
L 706.455 58.134759 
L 708.5475 57.603299 
L 710.64 58.197068 
L 712.7325 57.955162 
L 714.825 57.980819 
L 716.9175 57.749908 
L 719.01 57.867196 
L 721.1025 57.867196 
L 723.195 58.351008 
L 725.2875 57.801222 
L 727.38 58.006475 
L 729.4725 58.416982 
L 731.565 57.980819 
L 733.6575 58.160415 
L 735.75 57.801222 
L 739.935 58.021136 
L 742.0275 57.735247 
L 744.12 57.826878 
L 746.2125 57.775565 
L 750.3975 57.826878 
L 752.49 57.698595 
L 756.675 57.775565 
L 758.7675 58.175076 
L 760.86 57.669273 
L 762.9525 58.175076 
L 765.045 58.065119 
L 767.1375 58.134759 
L 769.23 57.775565 
L 771.3225 57.724252 
L 773.415 57.801222 
L 775.5075 58.083445 
L 777.6 58.021136 
L 779.6925 58.131093 
L 779.6925 58.131093 
" clip-path="url(#pb720a65a07)" style="fill: none; stroke: #808080; stroke-opacity: 0.7; stroke-width: 1.5; stroke-linecap: square"/>
   </g>
   <g id="patch_3">
    <path d="M 108 320.4 
L 108 43.2 
" style="fill: none; stroke: #000000; stroke-width: 0.8; stroke-linejoin: miter; stroke-linecap: square"/>
   </g>
   <g id="patch_4">
    <path d="M 777.6 320.4 
L 777.6 43.2 
" style="fill: none; stroke: #000000; stroke-width: 0.8; stroke-linejoin: miter; stroke-linecap: square"/>
   </g>
   <g id="patch_5">
    <path d="M 108 320.4 
L 777.6 320.4 
" style="fill: none; stroke: #000000; stroke-width: 0.8; stroke-linejoin: miter; stroke-linecap: square"/>
   </g>
   <g id="patch_6">
    <path d="M 108 43.2 
L 777.6 43.2 
" style="fill: none; stroke: #000000; stroke-width: 0.8; stroke-linejoin: miter; stroke-linecap: square"/>
   </g>
  </g>
  <g id="axes_2">
   <g id="matplotlib.axis_3">
    <g id="ytick_8">
     <g id="line2d_16">
      <defs>
       <path id="mf1ef7ecce2" d="M 0 0 
L 3.5 0 
" style="stroke: #000000; stroke-width: 0.8"/>
      </defs>
      <g>
       <use xlink:href="#mf1ef7ecce2" x="777.6" y="307.8" style="stroke: #000000; stroke-width: 0.8"/>
      </g>
     </g>
     <g id="text_17">
      <!-- 0.0 -->
      <g style="fill: #dc143c" transform="translate(784.6 311.599219) scale(0.1 -0.1)">
       <use xlink:href="#DejaVuSans-30"/>
       <use xlink:href="#DejaVuSans-2e" transform="translate(63.623047 0)"/>
       <use xlink:href="#DejaVuSans-30" transform="translate(95.410156 0)"/>
      </g>
     </g>
    </g>
    <g id="ytick_9">
     <g id="line2d_17">
      <g>
       <use xlink:href="#mf1ef7ecce2" x="777.6" y="269.782759" style="stroke: #000000; stroke-width: 0.8"/>
      </g>
     </g>
     <g id="text_18">
      <!-- 2.5 -->
      <g style="fill: #dc143c" transform="translate(784.6 273.581977) scale(0.1 -0.1)">
       <use xlink:href="#DejaVuSans-32"/>
       <use xlink:href="#DejaVuSans-2e" transform="translate(63.623047 0)"/>
       <use xlink:href="#DejaVuSans-35" transform="translate(95.410156 0)"/>
      </g>
     </g>
    </g>
    <g id="ytick_10">
     <g id="line2d_18">
      <g>
       <use xlink:href="#mf1ef7ecce2" x="777.6" y="231.765517" style="stroke: #000000; stroke-width: 0.8"/>
      </g>
     </g>
     <g id="text_19">
      <!-- 5.0 -->
      <g style="fill: #dc143c" transform="translate(784.6 235.564736) scale(0.1 -0.1)">
       <use xlink:href="#DejaVuSans-35"/>
       <use xlink:href="#DejaVuSans-2e" transform="translate(63.623047 0)"/>
       <use xlink:href="#DejaVuSans-30" transform="translate(95.410156 0)"/>
      </g>
     </g>
    </g>
    <g id="ytick_11">
     <g id="line2d_19">
      <g>
       <use xlink:href="#mf1ef7ecce2" x="777.6" y="193.748276" style="stroke: #000000; stroke-width: 0.8"/>
      </g>
     </g>
     <g id="text_20">
      <!-- 7.5 -->
      <g style="fill: #dc143c" transform="translate(784.6 197.547495) scale(0.1 -0.1)">
       <use xlink:href="#DejaVuSans-37"/>
       <use xlink:href="#DejaVuSans-2e" transform="translate(63.623047 0)"/>
       <use xlink:href="#DejaVuSans-35" transform="translate(95.410156 0)"/>
      </g>
     </g>
    </g>
    <g id="ytick_12">
     <g id="line2d_20">
      <g>
       <use xlink:href="#mf1ef7ecce2" x="777.6" y="155.731034" style="stroke: #000000; stroke-width: 0.8"/>
      </g>
     </g>
     <g id="text_21">
      <!-- 10.0 -->
      <g style="fill: #dc143c" transform="translate(784.6 159.530253) scale(0.1 -0.1)">
       <use xlink:href="#DejaVuSans-31"/>
       <use xlink:href="#DejaVuSans-30" transform="translate(63.623047 0)"/>
       <use xlink:href="#DejaVuSans-2e" transform="translate(127.246094 0)"/>
       <use xlink:href="#DejaVuSans-30" transform="translate(159.033203 0)"/>
      </g>
     </g>
    </g>
    <g id="ytick_13">
     <g id="line2d_21">
      <g>
       <use xlink:href="#mf1ef7ecce2" x="777.6" y="117.713793" style="stroke: #000000; stroke-width: 0.8"/>
      </g>
     </g>
     <g id="text_22">
      <!-- 12.5 -->
      <g style="fill: #dc143c" transform="translate(784.6 121.513012) scale(0.1 -0.1)">
       <use xlink:href="#DejaVuSans-31"/>
       <use xlink:href="#DejaVuSans-32" transform="translate(63.623047 0)"/>
       <use xlink:href="#DejaVuSans-2e" transform="translate(127.246094 0)"/>
       <use xlink:href="#DejaVuSans-35" transform="translate(159.033203 0)"/>
      </g>
     </g>
    </g>
    <g id="ytick_14">
     <g id="line2d_22">
      <g>
       <use xlink:href="#mf1ef7ecce2" x="777.6" y="79.696552" style="stroke: #000000; stroke-width: 0.8"/>
      </g>
     </g>
     <g id="text_23">
      <!-- 15.0 -->
      <g style="fill: #dc143c" transform="translate(784.6 83.49577) scale(0.1 -0.1)">
       <use xlink:href="#DejaVuSans-31"/>
       <use xlink:href="#DejaVuSans-35" transform="translate(63.623047 0)"/>
       <use xlink:href="#DejaVuSans-2e" transform="translate(127.246094 0)"/>
       <use xlink:href="#DejaVuSans-30" transform="translate(159.033203 0)"/>
      </g>
     </g>
    </g>
    <g id="text_24">
     <!-- Pain Rating -->
     <g style="fill: #dc143c" transform="translate(818.464063 209.91875) rotate(-90) scale(0.1 -0.1)">
      <defs>
       <path id="DejaVuSans-50" d="M 1259 4147 
L 1259 2394 
L 2053 2394 
Q 2494 2394 2734 2622 
Q 2975 2850 2975 3272 
Q 2975 3691 2734 3919 
Q 2494 4147 2053 4147 
L 1259 4147 
z
M 628 4666 
L 2053 4666 
Q 2838 4666 3239 4311 
Q 3641 3956 3641 3272 
Q 3641 2581 3239 2228 
Q 2838 1875 2053 1875 
L 1259 1875 
L 1259 0 
L 628 0 
L 628 4666 
z
" transform="scale(0.015625)"/>
       <path id="DejaVuSans-52" d="M 2841 2188 
Q 3044 2119 3236 1894 
Q 3428 1669 3622 1275 
L 4263 0 
L 3584 0 
L 2988 1197 
Q 2756 1666 2539 1819 
Q 2322 1972 1947 1972 
L 1259 1972 
L 1259 0 
L 628 0 
L 628 4666 
L 2053 4666 
Q 2853 4666 3247 4331 
Q 3641 3997 3641 3322 
Q 3641 2881 3436 2590 
Q 3231 2300 2841 2188 
z
M 1259 4147 
L 1259 2491 
L 2053 2491 
Q 2509 2491 2742 2702 
Q 2975 2913 2975 3322 
Q 2975 3731 2742 3939 
Q 2509 4147 2053 4147 
L 1259 4147 
z
" transform="scale(0.015625)"/>
      </defs>
      <use xlink:href="#DejaVuSans-50"/>
      <use xlink:href="#DejaVuSans-61" transform="translate(55.802734 0)"/>
      <use xlink:href="#DejaVuSans-69" transform="translate(117.082031 0)"/>
      <use xlink:href="#DejaVuSans-6e" transform="translate(144.865234 0)"/>
      <use xlink:href="#DejaVuSans-20" transform="translate(208.244141 0)"/>
      <use xlink:href="#DejaVuSans-52" transform="translate(240.03125 0)"/>
      <use xlink:href="#DejaVuSans-61" transform="translate(307.263672 0)"/>
      <use xlink:href="#DejaVuSans-74" transform="translate(368.542969 0)"/>
      <use xlink:href="#DejaVuSans-69" transform="translate(407.751953 0)"/>
      <use xlink:href="#DejaVuSans-6e" transform="translate(435.535156 0)"/>
      <use xlink:href="#DejaVuSans-67" transform="translate(498.914062 0)"/>
     </g>
    </g>
   </g>
   <g id="line2d_23">
    <path d="M 105.9075 307.8 
L 246.105 307.8 
L 248.1975 303.455172 
L 250.29 295.127586 
L 252.3825 307.8 
L 258.66 307.8 
L 260.7525 299.110345 
L 262.845 307.8 
L 275.4 307.8 
L 277.4925 299.110345 
L 279.585 301.282759 
L 281.6775 307.8 
L 287.955 307.8 
L 290.0475 300.196552 
L 292.14 307.8 
L 331.8975 307.8 
L 333.99 303.455172 
L 336.0825 303.455172 
L 338.175 307.8 
L 340.2675 300.196552 
L 342.36 307.8 
L 369.5625 307.8 
L 371.655 300.196552 
L 373.7475 307.8 
L 380.025 307.8 
L 382.1175 290.42069 
L 384.21 307.8 
L 390.4875 307.8 
L 392.58 302.731034 
L 394.6725 305.627586 
L 396.765 307.8 
L 398.8575 307.8 
L 400.95 303.455172 
L 405.135 307.8 
L 419.7825 307.8 
L 421.875 303.455172 
L 423.9675 302.731034 
L 426.06 307.8 
L 428.1525 287.524138 
L 430.245 241.903448 
L 432.3375 138.351724 
L 434.43 142.696552 
L 436.5225 131.834483 
L 438.615 157.903448 
L 440.7075 142.696552 
L 442.8 158.265517 
L 444.8925 163.334483 
L 446.985 148.127586 
L 451.17 143.058621 
L 453.2625 132.92069 
L 455.355 168.765517 
L 457.4475 164.42069 
L 459.54 166.593103 
L 461.6325 138.351724 
L 463.725 148.127586 
L 465.8175 163.334483 
L 470.0025 163.334483 
L 472.095 132.92069 
L 474.1875 131.834483 
L 476.28 164.42069 
L 478.3725 125.317241 
L 480.465 140.524138 
L 482.5575 143.058621 
L 484.65 158.265517 
L 486.7425 130.386207 
L 488.835 147.041379 
L 493.02 134.006897 
L 495.1125 149.213793 
L 497.205 142.696552 
L 499.2975 164.42069 
L 501.39 163.334483 
L 503.4825 145.593103 
L 505.575 125.317241 
L 507.6675 158.265517 
L 509.76 149.213793 
L 513.945 170.937931 
L 516.0375 155.731034 
L 520.2225 155.731034 
L 522.315 163.334483 
L 526.5 132.92069 
L 528.5925 163.334483 
L 530.685 140.524138 
L 532.7775 153.196552 
L 534.87 155.731034 
L 536.9625 166.593103 
L 539.055 142.696552 
L 541.1475 155.731034 
L 543.24 160.8 
L 545.3325 145.593103 
L 547.425 163.334483 
L 549.5175 165.868966 
L 551.61 155.731034 
L 553.7025 147.041379 
L 555.795 142.696552 
L 557.8875 163.334483 
L 559.98 163.334483 
L 562.0725 125.317241 
L 564.165 132.92069 
L 568.35 132.92069 
L 570.4425 131.834483 
L 572.535 134.006897 
L 574.6275 131.834483 
L 576.72 125.317241 
L 578.8125 134.006897 
L 580.905 163.334483 
L 582.9975 137.989655 
L 585.09 148.127586 
L 587.1825 143.058621 
L 589.275 153.196552 
L 591.3675 149.213793 
L 593.46 164.42069 
L 595.5525 168.765517 
L 597.645 158.265517 
L 599.7375 132.92069 
L 601.83 110.110345 
L 603.9225 105.041379 
L 606.015 64.489655 
L 608.1075 73.17931 
L 610.2 86.213793 
L 612.2925 81.868966 
L 614.385 72.093103 
L 616.4775 59.42069 
L 618.57 67.024138 
L 620.6625 84.765517 
L 622.755 90.558621 
L 624.8475 105.765517 
L 626.94 84.041379 
L 629.0325 77.524138 
L 633.2175 94.903448 
L 635.31 79.696552 
L 637.4025 89.834483 
L 639.495 67.024138 
L 641.5875 92.368966 
L 643.68 97.437931 
L 645.7725 79.696552 
L 647.865 71.006897 
L 649.9575 77.524138 
L 652.05 71.006897 
L 654.1425 94.903448 
L 656.235 72.093103 
L 658.3275 87.3 
L 660.42 72.093103 
L 662.5125 94.903448 
L 664.605 77.524138 
L 666.6975 64.489655 
L 668.79 64.489655 
L 670.8825 88.386207 
L 672.975 103.593103 
L 675.0675 86.213793 
L 677.16 94.903448 
L 679.2525 77.162069 
L 681.345 82.231034 
L 683.4375 67.024138 
L 685.53 88.386207 
L 687.6225 66.662069 
L 689.715 77.524138 
L 691.8075 66.662069 
L 693.9 77.524138 
L 695.9925 71.006897 
L 698.085 87.3 
L 700.1775 79.696552 
L 702.27 79.696552 
L 704.3625 64.489655 
L 706.455 89.834483 
L 710.64 60.144828 
L 712.7325 67.024138 
L 714.825 97.437931 
L 716.9175 82.231034 
L 719.01 88.386207 
L 721.1025 55.8 
L 723.195 90.558621 
L 725.2875 77.162069 
L 727.38 97.437931 
L 729.4725 99.972414 
L 731.565 97.437931 
L 733.6575 99.972414 
L 735.75 77.162069 
L 737.8425 92.731034 
L 739.935 68.834483 
L 742.0275 94.903448 
L 744.12 87.3 
L 746.2125 94.903448 
L 748.305 64.489655 
L 750.3975 64.489655 
L 752.49 87.3 
L 754.5825 87.3 
L 756.675 72.093103 
L 758.7675 79.696552 
L 760.86 94.903448 
L 762.9525 64.489655 
L 765.045 97.075862 
L 767.1375 87.3 
L 769.23 82.231034 
L 771.3225 69.558621 
L 773.415 105.041379 
L 775.5075 97.437931 
L 777.6 73.17931 
L 779.6925 79.696552 
L 779.6925 79.696552 
" clip-path="url(#pb720a65a07)" style="fill: none; stroke: #dc143c; stroke-width: 2; stroke-linecap: square"/>
   </g>
   <g id="patch_7">
    <path d="M 108 320.4 
L 108 43.2 
" style="fill: none; stroke: #000000; stroke-width: 0.8; stroke-linejoin: miter; stroke-linecap: square"/>
   </g>
   <g id="patch_8">
    <path d="M 777.6 320.4 
L 777.6 43.2 
" style="fill: none; stroke: #000000; stroke-width: 0.8; stroke-linejoin: miter; stroke-linecap: square"/>
   </g>
   <g id="patch_9">
    <path d="M 108 320.4 
L 777.6 320.4 
" style="fill: none; stroke: #000000; stroke-width: 0.8; stroke-linejoin: miter; stroke-linecap: square"/>
   </g>
   <g id="patch_10">
    <path d="M 108 43.2 
L 777.6 43.2 
" style="fill: none; stroke: #000000; stroke-width: 0.8; stroke-linejoin: miter; stroke-linecap: square"/>
   </g>
   <g id="text_25">
    <!-- Min Value -->
    <g transform="translate(207.598125 305.720312) scale(0.1 -0.1)">
     <defs>
      <path id="DejaVuSans-Bold-4d" d="M 588 4666 
L 2119 4666 
L 3181 2169 
L 4250 4666 
L 5778 4666 
L 5778 0 
L 4641 0 
L 4641 3413 
L 3566 897 
L 2803 897 
L 1728 3413 
L 1728 0 
L 588 0 
L 588 4666 
z
" transform="scale(0.015625)"/>
      <path id="DejaVuSans-Bold-69" d="M 538 3500 
L 1656 3500 
L 1656 0 
L 538 0 
L 538 3500 
z
M 538 4863 
L 1656 4863 
L 1656 3950 
L 538 3950 
L 538 4863 
z
" transform="scale(0.015625)"/>
      <path id="DejaVuSans-Bold-6e" d="M 4056 2131 
L 4056 0 
L 2931 0 
L 2931 347 
L 2931 1631 
Q 2931 2084 2911 2256 
Q 2891 2428 2841 2509 
Q 2775 2619 2662 2680 
Q 2550 2741 2406 2741 
Q 2056 2741 1856 2470 
Q 1656 2200 1656 1722 
L 1656 0 
L 538 0 
L 538 3500 
L 1656 3500 
L 1656 2988 
Q 1909 3294 2193 3439 
Q 2478 3584 2822 3584 
Q 3428 3584 3742 3212 
Q 4056 2841 4056 2131 
z
" transform="scale(0.015625)"/>
      <path id="DejaVuSans-Bold-20" transform="scale(0.015625)"/>
      <path id="DejaVuSans-Bold-56" d="M 31 4666 
L 1241 4666 
L 2478 1222 
L 3713 4666 
L 4922 4666 
L 3194 0 
L 1759 0 
L 31 4666 
z
" transform="scale(0.015625)"/>
      <path id="DejaVuSans-Bold-61" d="M 2106 1575 
Q 1756 1575 1579 1456 
Q 1403 1338 1403 1106 
Q 1403 894 1545 773 
Q 1688 653 1941 653 
Q 2256 653 2472 879 
Q 2688 1106 2688 1447 
L 2688 1575 
L 2106 1575 
z
M 3816 1997 
L 3816 0 
L 2688 0 
L 2688 519 
Q 2463 200 2181 54 
Q 1900 -91 1497 -91 
Q 953 -91 614 226 
Q 275 544 275 1050 
Q 275 1666 698 1953 
Q 1122 2241 2028 2241 
L 2688 2241 
L 2688 2328 
Q 2688 2594 2478 2717 
Q 2269 2841 1825 2841 
Q 1466 2841 1156 2769 
Q 847 2697 581 2553 
L 581 3406 
Q 941 3494 1303 3539 
Q 1666 3584 2028 3584 
Q 2975 3584 3395 3211 
Q 3816 2838 3816 1997 
z
" transform="scale(0.015625)"/>
      <path id="DejaVuSans-Bold-6c" d="M 538 4863 
L 1656 4863 
L 1656 0 
L 538 0 
L 538 4863 
z
" transform="scale(0.015625)"/>
      <path id="DejaVuSans-Bold-75" d="M 500 1363 
L 500 3500 
L 1625 3500 
L 1625 3150 
Q 1625 2866 1622 2436 
Q 1619 2006 1619 1863 
Q 1619 1441 1641 1255 
Q 1663 1069 1716 984 
Q 1784 875 1895 815 
Q 2006 756 2150 756 
Q 2500 756 2700 1025 
Q 2900 1294 2900 1772 
L 2900 3500 
L 4019 3500 
L 4019 0 
L 2900 0 
L 2900 506 
Q 2647 200 2364 54 
Q 2081 -91 1741 -91 
Q 1134 -91 817 281 
Q 500 653 500 1363 
z
" transform="scale(0.015625)"/>
      <path id="DejaVuSans-Bold-65" d="M 4031 1759 
L 4031 1441 
L 1416 1441 
Q 1456 1047 1700 850 
Q 1944 653 2381 653 
Q 2734 653 3104 758 
Q 3475 863 3866 1075 
L 3866 213 
Q 3469 63 3072 -14 
Q 2675 -91 2278 -91 
Q 1328 -91 801 392 
Q 275 875 275 1747 
Q 275 2603 792 3093 
Q 1309 3584 2216 3584 
Q 3041 3584 3536 3087 
Q 4031 2591 4031 1759 
z
M 2881 2131 
Q 2881 2450 2695 2645 
Q 2509 2841 2209 2841 
Q 1884 2841 1681 2658 
Q 1478 2475 1428 2131 
L 2881 2131 
z
" transform="scale(0.015625)"/>
     </defs>
     <use xlink:href="#DejaVuSans-Bold-4d"/>
     <use xlink:href="#DejaVuSans-Bold-69" transform="translate(99.511719 0)"/>
     <use xlink:href="#DejaVuSans-Bold-6e" transform="translate(133.789062 0)"/>
     <use xlink:href="#DejaVuSans-Bold-20" transform="translate(204.980469 0)"/>
     <use xlink:href="#DejaVuSans-Bold-56" transform="translate(239.794922 0)"/>
     <use xlink:href="#DejaVuSans-Bold-61" transform="translate(311.6875 0)"/>
     <use xlink:href="#DejaVuSans-Bold-6c" transform="translate(379.167969 0)"/>
     <use xlink:href="#DejaVuSans-Bold-75" transform="translate(413.445312 0)"/>
     <use xlink:href="#DejaVuSans-Bold-65" transform="translate(484.636719 0)"/>
    </g>
   </g>
   <g id="text_26">
    <!-- Max Value -->
    <g transform="translate(721.1025 53.720312) scale(0.1 -0.1)">
     <defs>
      <path id="DejaVuSans-Bold-78" d="M 1422 1791 
L 159 3500 
L 1344 3500 
L 2059 2463 
L 2784 3500 
L 3969 3500 
L 2706 1797 
L 4031 0 
L 2847 0 
L 2059 1106 
L 1281 0 
L 97 0 
L 1422 1791 
z
" transform="scale(0.015625)"/>
     </defs>
     <use xlink:href="#DejaVuSans-Bold-4d"/>
     <use xlink:href="#DejaVuSans-Bold-61" transform="translate(99.511719 0)"/>
     <use xlink:href="#DejaVuSans-Bold-78" transform="translate(166.992188 0)"/>
     <use xlink:href="#DejaVuSans-Bold-20" transform="translate(231.494141 0)"/>
     <use xlink:href="#DejaVuSans-Bold-56" transform="translate(266.308594 0)"/>
     <use xlink:href="#DejaVuSans-Bold-61" transform="translate(338.201172 0)"/>
     <use xlink:href="#DejaVuSans-Bold-6c" transform="translate(405.681641 0)"/>
     <use xlink:href="#DejaVuSans-Bold-75" transform="translate(439.958984 0)"/>
     <use xlink:href="#DejaVuSans-Bold-65" transform="translate(511.150391 0)"/>
    </g>
   </g>
   <g id="text_27">
    <!-- Example inv (Subject 181, Trial 0) -->
    <g transform="translate(341.667188 37.2) scale(0.12 -0.12)">
     <defs>
      <path id="DejaVuSans-45" d="M 628 4666 
L 3578 4666 
L 3578 4134 
L 1259 4134 
L 1259 2753 
L 3481 2753 
L 3481 2222 
L 1259 2222 
L 1259 531 
L 3634 531 
L 3634 0 
L 628 0 
L 628 4666 
z
" transform="scale(0.015625)"/>
      <path id="DejaVuSans-78" d="M 3513 3500 
L 2247 1797 
L 3578 0 
L 2900 0 
L 1881 1375 
L 863 0 
L 184 0 
L 1544 1831 
L 300 3500 
L 978 3500 
L 1906 2253 
L 2834 3500 
L 3513 3500 
z
" transform="scale(0.015625)"/>
      <path id="DejaVuSans-76" d="M 191 3500 
L 800 3500 
L 1894 563 
L 2988 3500 
L 3597 3500 
L 2284 0 
L 1503 0 
L 191 3500 
z
" transform="scale(0.015625)"/>
      <path id="DejaVuSans-53" d="M 3425 4513 
L 3425 3897 
Q 3066 4069 2747 4153 
Q 2428 4238 2131 4238 
Q 1616 4238 1336 4038 
Q 1056 3838 1056 3469 
Q 1056 3159 1242 3001 
Q 1428 2844 1947 2747 
L 2328 2669 
Q 3034 2534 3370 2195 
Q 3706 1856 3706 1288 
Q 3706 609 3251 259 
Q 2797 -91 1919 -91 
Q 1588 -91 1214 -16 
Q 841 59 441 206 
L 441 856 
Q 825 641 1194 531 
Q 1563 422 1919 422 
Q 2459 422 2753 634 
Q 3047 847 3047 1241 
Q 3047 1584 2836 1778 
Q 2625 1972 2144 2069 
L 1759 2144 
Q 1053 2284 737 2584 
Q 422 2884 422 3419 
Q 422 4038 858 4394 
Q 1294 4750 2059 4750 
Q 2388 4750 2728 4690 
Q 3069 4631 3425 4513 
z
" transform="scale(0.015625)"/>
      <path id="DejaVuSans-62" d="M 3116 1747 
Q 3116 2381 2855 2742 
Q 2594 3103 2138 3103 
Q 1681 3103 1420 2742 
Q 1159 2381 1159 1747 
Q 1159 1113 1420 752 
Q 1681 391 2138 391 
Q 2594 391 2855 752 
Q 3116 1113 3116 1747 
z
M 1159 2969 
Q 1341 3281 1617 3432 
Q 1894 3584 2278 3584 
Q 2916 3584 3314 3078 
Q 3713 2572 3713 1747 
Q 3713 922 3314 415 
Q 2916 -91 2278 -91 
Q 1894 -91 1617 61 
Q 1341 213 1159 525 
L 1159 0 
L 581 0 
L 581 4863 
L 1159 4863 
L 1159 2969 
z
" transform="scale(0.015625)"/>
      <path id="DejaVuSans-6a" d="M 603 3500 
L 1178 3500 
L 1178 -63 
Q 1178 -731 923 -1031 
Q 669 -1331 103 -1331 
L -116 -1331 
L -116 -844 
L 38 -844 
Q 366 -844 484 -692 
Q 603 -541 603 -63 
L 603 3500 
z
M 603 4863 
L 1178 4863 
L 1178 4134 
L 603 4134 
L 603 4863 
z
" transform="scale(0.015625)"/>
      <path id="DejaVuSans-63" d="M 3122 3366 
L 3122 2828 
Q 2878 2963 2633 3030 
Q 2388 3097 2138 3097 
Q 1578 3097 1268 2742 
Q 959 2388 959 1747 
Q 959 1106 1268 751 
Q 1578 397 2138 397 
Q 2388 397 2633 464 
Q 2878 531 3122 666 
L 3122 134 
Q 2881 22 2623 -34 
Q 2366 -91 2075 -91 
Q 1284 -91 818 406 
Q 353 903 353 1747 
Q 353 2603 823 3093 
Q 1294 3584 2113 3584 
Q 2378 3584 2631 3529 
Q 2884 3475 3122 3366 
z
" transform="scale(0.015625)"/>
      <path id="DejaVuSans-38" d="M 2034 2216 
Q 1584 2216 1326 1975 
Q 1069 1734 1069 1313 
Q 1069 891 1326 650 
Q 1584 409 2034 409 
Q 2484 409 2743 651 
Q 3003 894 3003 1313 
Q 3003 1734 2745 1975 
Q 2488 2216 2034 2216 
z
M 1403 2484 
Q 997 2584 770 2862 
Q 544 3141 544 3541 
Q 544 4100 942 4425 
Q 1341 4750 2034 4750 
Q 2731 4750 3128 4425 
Q 3525 4100 3525 3541 
Q 3525 3141 3298 2862 
Q 3072 2584 2669 2484 
Q 3125 2378 3379 2068 
Q 3634 1759 3634 1313 
Q 3634 634 3220 271 
Q 2806 -91 2034 -91 
Q 1263 -91 848 271 
Q 434 634 434 1313 
Q 434 1759 690 2068 
Q 947 2378 1403 2484 
z
M 1172 3481 
Q 1172 3119 1398 2916 
Q 1625 2713 2034 2713 
Q 2441 2713 2670 2916 
Q 2900 3119 2900 3481 
Q 2900 3844 2670 4047 
Q 2441 4250 2034 4250 
Q 1625 4250 1398 4047 
Q 1172 3844 1172 3481 
z
" transform="scale(0.015625)"/>
      <path id="DejaVuSans-2c" d="M 750 794 
L 1409 794 
L 1409 256 
L 897 -744 
L 494 -744 
L 750 256 
L 750 794 
z
" transform="scale(0.015625)"/>
     </defs>
     <use xlink:href="#DejaVuSans-45"/>
     <use xlink:href="#DejaVuSans-78" transform="translate(63.183594 0)"/>
     <use xlink:href="#DejaVuSans-61" transform="translate(122.363281 0)"/>
     <use xlink:href="#DejaVuSans-6d" transform="translate(183.642578 0)"/>
     <use xlink:href="#DejaVuSans-70" transform="translate(281.054688 0)"/>
     <use xlink:href="#DejaVuSans-6c" transform="translate(344.53125 0)"/>
     <use xlink:href="#DejaVuSans-65" transform="translate(372.314453 0)"/>
     <use xlink:href="#DejaVuSans-20" transform="translate(433.837891 0)"/>
     <use xlink:href="#DejaVuSans-69" transform="translate(465.625 0)"/>
     <use xlink:href="#DejaVuSans-6e" transform="translate(493.408203 0)"/>
     <use xlink:href="#DejaVuSans-76" transform="translate(556.787109 0)"/>
     <use xlink:href="#DejaVuSans-20" transform="translate(615.966797 0)"/>
     <use xlink:href="#DejaVuSans-28" transform="translate(647.753906 0)"/>
     <use xlink:href="#DejaVuSans-53" transform="translate(686.767578 0)"/>
     <use xlink:href="#DejaVuSans-75" transform="translate(750.244141 0)"/>
     <use xlink:href="#DejaVuSans-62" transform="translate(813.623047 0)"/>
     <use xlink:href="#DejaVuSans-6a" transform="translate(877.099609 0)"/>
     <use xlink:href="#DejaVuSans-65" transform="translate(904.882812 0)"/>
     <use xlink:href="#DejaVuSans-63" transform="translate(966.40625 0)"/>
     <use xlink:href="#DejaVuSans-74" transform="translate(1021.386719 0)"/>
     <use xlink:href="#DejaVuSans-20" transform="translate(1060.595703 0)"/>
     <use xlink:href="#DejaVuSans-31" transform="translate(1092.382812 0)"/>
     <use xlink:href="#DejaVuSans-38" transform="translate(1156.005859 0)"/>
     <use xlink:href="#DejaVuSans-31" transform="translate(1219.628906 0)"/>
     <use xlink:href="#DejaVuSans-2c" transform="translate(1283.251953 0)"/>
     <use xlink:href="#DejaVuSans-20" transform="translate(1315.039062 0)"/>
     <use xlink:href="#DejaVuSans-54" transform="translate(1346.826172 0)"/>
     <use xlink:href="#DejaVuSans-72" transform="translate(1393.160156 0)"/>
     <use xlink:href="#DejaVuSans-69" transform="translate(1434.273438 0)"/>
     <use xlink:href="#DejaVuSans-61" transform="translate(1462.056641 0)"/>
     <use xlink:href="#DejaVuSans-6c" transform="translate(1523.335938 0)"/>
     <use xlink:href="#DejaVuSans-20" transform="translate(1551.119141 0)"/>
     <use xlink:href="#DejaVuSans-30" transform="translate(1582.90625 0)"/>
     <use xlink:href="#DejaVuSans-29" transform="translate(1646.529297 0)"/>
    </g>
   </g>
   <g id="PathCollection_1">
    <defs>
     <path id="m4562539ff3" d="M 0 3.872983 
C 1.027127 3.872983 2.012324 3.464901 2.738613 2.738613 
C 3.464901 2.012324 3.872983 1.027127 3.872983 0 
C 3.872983 -1.027127 3.464901 -2.012324 2.738613 -2.738613 
C 2.012324 -3.464901 1.027127 -3.872983 0 -3.872983 
C -1.027127 -3.872983 -2.012324 -3.464901 -2.738613 -2.738613 
C -3.464901 -2.012324 -3.872983 -1.027127 -3.872983 0 
C -3.872983 1.027127 -3.464901 2.012324 -2.738613 2.738613 
C -2.012324 3.464901 -1.027127 3.872983 0 3.872983 
z
" style="stroke: #000000"/>
    </defs>
    <g clip-path="url(#pb720a65a07)">
     <use xlink:href="#m4562539ff3" x="262.845" y="307.8" style="stroke: #000000"/>
     <use xlink:href="#m4562539ff3" x="721.1025" y="55.8" style="stroke: #000000"/>
    </g>
   </g>
  </g>
 </g>
 <defs>
  <clipPath id="pb720a65a07">
   <rect x="108" y="43.2" width="669.6" height="277.2"/>
  </clipPath>
 </defs>
</svg>
