<?xml version="1.0" encoding="utf-8" standalone="no"?>
<!DOCTYPE svg PUBLIC "-//W3C//DTD SVG 1.1//EN"
  "http://www.w3.org/Graphics/SVG/1.1/DTD/svg11.dtd">
<svg xmlns:xlink="http://www.w3.org/1999/xlink" width="864pt" height="360pt" viewBox="0 0 864 360" xmlns="http://www.w3.org/2000/svg" version="1.1">
 <metadata>
  <rdf:RDF xmlns:dc="http://purl.org/dc/elements/1.1/" xmlns:cc="http://creativecommons.org/ns#" xmlns:rdf="http://www.w3.org/1999/02/22-rdf-syntax-ns#">
   <cc:Work>
    <dc:type rdf:resource="http://purl.org/dc/dcmitype/StillImage"/>
    <dc:date>2025-12-17T12:24:41.005190</dc:date>
    <dc:format>image/svg+xml</dc:format>
    <dc:creator>
     <cc:Agent>
      <dc:title>Matplotlib v3.10.1, https://matplotlib.org/</dc:title>
     </cc:Agent>
    </dc:creator>
   </cc:Work>
  </rdf:RDF>
 </metadata>
 <defs>
  <style type="text/css">*{stroke-linejoin: round; stroke-linecap: butt}</style>
 </defs>
 <g id="figure_1">
  <g id="patch_1">
   <path d="M 0 360 
L 864 360 
L 864 0 
L 0 0 
z
" style="fill: #ffffff"/>
  </g>
  <g id="axes_1">
   <g id="patch_2">
    <path d="M 108 320.4 
L 777.6 320.4 
L 777.6 43.2 
L 108 43.2 
z
" style="fill: #ffffff"/>
   </g>
   <g id="matplotlib.axis_1">
    <g id="xtick_1">
     <g id="line2d_1">
      <defs>
       <path id="mc7347e4ba9" d="M 0 0 
L 0 3.5 
" style="stroke: #000000; stroke-width: 0.8"/>
      </defs>
      <g>
       <use xlink:href="#mc7347e4ba9" x="128.925" y="320.4" style="stroke: #000000; stroke-width: 0.8"/>
      </g>
     </g>
     <g id="text_1">
      <!-- 0 -->
      <g transform="translate(125.74375 334.998438) scale(0.1 -0.1)">
       <defs>
        <path id="DejaVuSans-30" d="M 2034 4250 
Q 1547 4250 1301 3770 
Q 1056 3291 1056 2328 
Q 1056 1369 1301 889 
Q 1547 409 2034 409 
Q 2525 409 2770 889 
Q 3016 1369 3016 2328 
Q 3016 3291 2770 3770 
Q 2525 4250 2034 4250 
z
M 2034 4750 
Q 2819 4750 3233 4129 
Q 3647 3509 3647 2328 
Q 3647 1150 3233 529 
Q 2819 -91 2034 -91 
Q 1250 -91 836 529 
Q 422 1150 422 2328 
Q 422 3509 836 4129 
Q 1250 4750 2034 4750 
z
" transform="scale(0.015625)"/>
       </defs>
       <use xlink:href="#DejaVuSans-30"/>
      </g>
     </g>
    </g>
    <g id="xtick_2">
     <g id="line2d_2">
      <g>
       <use xlink:href="#mc7347e4ba9" x="233.55" y="320.4" style="stroke: #000000; stroke-width: 0.8"/>
      </g>
     </g>
     <g id="text_2">
      <!-- 5 -->
      <g transform="translate(230.36875 334.998438) scale(0.1 -0.1)">
       <defs>
        <path id="DejaVuSans-35" d="M 691 4666 
L 3169 4666 
L 3169 4134 
L 1269 4134 
L 1269 2991 
Q 1406 3038 1543 3061 
Q 1681 3084 1819 3084 
Q 2600 3084 3056 2656 
Q 3513 2228 3513 1497 
Q 3513 744 3044 326 
Q 2575 -91 1722 -91 
Q 1428 -91 1123 -41 
Q 819 9 494 109 
L 494 744 
Q 775 591 1075 516 
Q 1375 441 1709 441 
Q 2250 441 2565 725 
Q 2881 1009 2881 1497 
Q 2881 1984 2565 2268 
Q 2250 2553 1709 2553 
Q 1456 2553 1204 2497 
Q 953 2441 691 2322 
L 691 4666 
z
" transform="scale(0.015625)"/>
       </defs>
       <use xlink:href="#DejaVuSans-35"/>
      </g>
     </g>
    </g>
    <g id="xtick_3">
     <g id="line2d_3">
      <g>
       <use xlink:href="#mc7347e4ba9" x="338.175" y="320.4" style="stroke: #000000; stroke-width: 0.8"/>
      </g>
     </g>
     <g id="text_3">
      <!-- 10 -->
      <g transform="translate(331.8125 334.998438) scale(0.1 -0.1)">
       <defs>
        <path id="DejaVuSans-31" d="M 794 531 
L 1825 531 
L 1825 4091 
L 703 3866 
L 703 4441 
L 1819 4666 
L 2450 4666 
L 2450 531 
L 3481 531 
L 3481 0 
L 794 0 
L 794 531 
z
" transform="scale(0.015625)"/>
       </defs>
       <use xlink:href="#DejaVuSans-31"/>
       <use xlink:href="#DejaVuSans-30" transform="translate(63.623047 0)"/>
      </g>
     </g>
    </g>
    <g id="xtick_4">
     <g id="line2d_4">
      <g>
       <use xlink:href="#mc7347e4ba9" x="442.8" y="320.4" style="stroke: #000000; stroke-width: 0.8"/>
      </g>
     </g>
     <g id="text_4">
      <!-- 15 -->
      <g transform="translate(436.4375 334.998438) scale(0.1 -0.1)">
       <use xlink:href="#DejaVuSans-31"/>
       <use xlink:href="#DejaVuSans-35" transform="translate(63.623047 0)"/>
      </g>
     </g>
    </g>
    <g id="xtick_5">
     <g id="line2d_5">
      <g>
       <use xlink:href="#mc7347e4ba9" x="547.425" y="320.4" style="stroke: #000000; stroke-width: 0.8"/>
      </g>
     </g>
     <g id="text_5">
      <!-- 20 -->
      <g transform="translate(541.0625 334.998438) scale(0.1 -0.1)">
       <defs>
        <path id="DejaVuSans-32" d="M 1228 531 
L 3431 531 
L 3431 0 
L 469 0 
L 469 531 
Q 828 903 1448 1529 
Q 2069 2156 2228 2338 
Q 2531 2678 2651 2914 
Q 2772 3150 2772 3378 
Q 2772 3750 2511 3984 
Q 2250 4219 1831 4219 
Q 1534 4219 1204 4116 
Q 875 4013 500 3803 
L 500 4441 
Q 881 4594 1212 4672 
Q 1544 4750 1819 4750 
Q 2544 4750 2975 4387 
Q 3406 4025 3406 3419 
Q 3406 3131 3298 2873 
Q 3191 2616 2906 2266 
Q 2828 2175 2409 1742 
Q 1991 1309 1228 531 
z
" transform="scale(0.015625)"/>
       </defs>
       <use xlink:href="#DejaVuSans-32"/>
       <use xlink:href="#DejaVuSans-30" transform="translate(63.623047 0)"/>
      </g>
     </g>
    </g>
    <g id="xtick_6">
     <g id="line2d_6">
      <g>
       <use xlink:href="#mc7347e4ba9" x="652.05" y="320.4" style="stroke: #000000; stroke-width: 0.8"/>
      </g>
     </g>
     <g id="text_6">
      <!-- 25 -->
      <g transform="translate(645.6875 334.998438) scale(0.1 -0.1)">
       <use xlink:href="#DejaVuSans-32"/>
       <use xlink:href="#DejaVuSans-35" transform="translate(63.623047 0)"/>
      </g>
     </g>
    </g>
    <g id="xtick_7">
     <g id="line2d_7">
      <g>
       <use xlink:href="#mc7347e4ba9" x="756.675" y="320.4" style="stroke: #000000; stroke-width: 0.8"/>
      </g>
     </g>
     <g id="text_7">
      <!-- 30 -->
      <g transform="translate(750.3125 334.998438) scale(0.1 -0.1)">
       <defs>
        <path id="DejaVuSans-33" d="M 2597 2516 
Q 3050 2419 3304 2112 
Q 3559 1806 3559 1356 
Q 3559 666 3084 287 
Q 2609 -91 1734 -91 
Q 1441 -91 1130 -33 
Q 819 25 488 141 
L 488 750 
Q 750 597 1062 519 
Q 1375 441 1716 441 
Q 2309 441 2620 675 
Q 2931 909 2931 1356 
Q 2931 1769 2642 2001 
Q 2353 2234 1838 2234 
L 1294 2234 
L 1294 2753 
L 1863 2753 
Q 2328 2753 2575 2939 
Q 2822 3125 2822 3475 
Q 2822 3834 2567 4026 
Q 2313 4219 1838 4219 
Q 1578 4219 1281 4162 
Q 984 4106 628 3988 
L 628 4550 
Q 988 4650 1302 4700 
Q 1616 4750 1894 4750 
Q 2613 4750 3031 4423 
Q 3450 4097 3450 3541 
Q 3450 3153 3228 2886 
Q 3006 2619 2597 2516 
z
" transform="scale(0.015625)"/>
       </defs>
       <use xlink:href="#DejaVuSans-33"/>
       <use xlink:href="#DejaVuSans-30" transform="translate(63.623047 0)"/>
      </g>
     </g>
    </g>
    <g id="text_8">
     <!-- Aligned Time (s) -->
     <g transform="translate(402.089844 348.676562) scale(0.1 -0.1)">
      <defs>
       <path id="DejaVuSans-41" d="M 2188 4044 
L 1331 1722 
L 3047 1722 
L 2188 4044 
z
M 1831 4666 
L 2547 4666 
L 4325 0 
L 3669 0 
L 3244 1197 
L 1141 1197 
L 716 0 
L 50 0 
L 1831 4666 
z
" transform="scale(0.015625)"/>
       <path id="DejaVuSans-6c" d="M 603 4863 
L 1178 4863 
L 1178 0 
L 603 0 
L 603 4863 
z
" transform="scale(0.015625)"/>
       <path id="DejaVuSans-69" d="M 603 3500 
L 1178 3500 
L 1178 0 
L 603 0 
L 603 3500 
z
M 603 4863 
L 1178 4863 
L 1178 4134 
L 603 4134 
L 603 4863 
z
" transform="scale(0.015625)"/>
       <path id="DejaVuSans-67" d="M 2906 1791 
Q 2906 2416 2648 2759 
Q 2391 3103 1925 3103 
Q 1463 3103 1205 2759 
Q 947 2416 947 1791 
Q 947 1169 1205 825 
Q 1463 481 1925 481 
Q 2391 481 2648 825 
Q 2906 1169 2906 1791 
z
M 3481 434 
Q 3481 -459 3084 -895 
Q 2688 -1331 1869 -1331 
Q 1566 -1331 1297 -1286 
Q 1028 -1241 775 -1147 
L 775 -588 
Q 1028 -725 1275 -790 
Q 1522 -856 1778 -856 
Q 2344 -856 2625 -561 
Q 2906 -266 2906 331 
L 2906 616 
Q 2728 306 2450 153 
Q 2172 0 1784 0 
Q 1141 0 747 490 
Q 353 981 353 1791 
Q 353 2603 747 3093 
Q 1141 3584 1784 3584 
Q 2172 3584 2450 3431 
Q 2728 3278 2906 2969 
L 2906 3500 
L 3481 3500 
L 3481 434 
z
" transform="scale(0.015625)"/>
       <path id="DejaVuSans-6e" d="M 3513 2113 
L 3513 0 
L 2938 0 
L 2938 2094 
Q 2938 2591 2744 2837 
Q 2550 3084 2163 3084 
Q 1697 3084 1428 2787 
Q 1159 2491 1159 1978 
L 1159 0 
L 581 0 
L 581 3500 
L 1159 3500 
L 1159 2956 
Q 1366 3272 1645 3428 
Q 1925 3584 2291 3584 
Q 2894 3584 3203 3211 
Q 3513 2838 3513 2113 
z
" transform="scale(0.015625)"/>
       <path id="DejaVuSans-65" d="M 3597 1894 
L 3597 1613 
L 953 1613 
Q 991 1019 1311 708 
Q 1631 397 2203 397 
Q 2534 397 2845 478 
Q 3156 559 3463 722 
L 3463 178 
Q 3153 47 2828 -22 
Q 2503 -91 2169 -91 
Q 1331 -91 842 396 
Q 353 884 353 1716 
Q 353 2575 817 3079 
Q 1281 3584 2069 3584 
Q 2775 3584 3186 3129 
Q 3597 2675 3597 1894 
z
M 3022 2063 
Q 3016 2534 2758 2815 
Q 2500 3097 2075 3097 
Q 1594 3097 1305 2825 
Q 1016 2553 972 2059 
L 3022 2063 
z
" transform="scale(0.015625)"/>
       <path id="DejaVuSans-64" d="M 2906 2969 
L 2906 4863 
L 3481 4863 
L 3481 0 
L 2906 0 
L 2906 525 
Q 2725 213 2448 61 
Q 2172 -91 1784 -91 
Q 1150 -91 751 415 
Q 353 922 353 1747 
Q 353 2572 751 3078 
Q 1150 3584 1784 3584 
Q 2172 3584 2448 3432 
Q 2725 3281 2906 2969 
z
M 947 1747 
Q 947 1113 1208 752 
Q 1469 391 1925 391 
Q 2381 391 2643 752 
Q 2906 1113 2906 1747 
Q 2906 2381 2643 2742 
Q 2381 3103 1925 3103 
Q 1469 3103 1208 2742 
Q 947 2381 947 1747 
z
" transform="scale(0.015625)"/>
       <path id="DejaVuSans-20" transform="scale(0.015625)"/>
       <path id="DejaVuSans-54" d="M -19 4666 
L 3928 4666 
L 3928 4134 
L 2272 4134 
L 2272 0 
L 1638 0 
L 1638 4134 
L -19 4134 
L -19 4666 
z
" transform="scale(0.015625)"/>
       <path id="DejaVuSans-6d" d="M 3328 2828 
Q 3544 3216 3844 3400 
Q 4144 3584 4550 3584 
Q 5097 3584 5394 3201 
Q 5691 2819 5691 2113 
L 5691 0 
L 5113 0 
L 5113 2094 
Q 5113 2597 4934 2840 
Q 4756 3084 4391 3084 
Q 3944 3084 3684 2787 
Q 3425 2491 3425 1978 
L 3425 0 
L 2847 0 
L 2847 2094 
Q 2847 2600 2669 2842 
Q 2491 3084 2119 3084 
Q 1678 3084 1418 2786 
Q 1159 2488 1159 1978 
L 1159 0 
L 581 0 
L 581 3500 
L 1159 3500 
L 1159 2956 
Q 1356 3278 1631 3431 
Q 1906 3584 2284 3584 
Q 2666 3584 2933 3390 
Q 3200 3197 3328 2828 
z
" transform="scale(0.015625)"/>
       <path id="DejaVuSans-28" d="M 1984 4856 
Q 1566 4138 1362 3434 
Q 1159 2731 1159 2009 
Q 1159 1288 1364 580 
Q 1569 -128 1984 -844 
L 1484 -844 
Q 1016 -109 783 600 
Q 550 1309 550 2009 
Q 550 2706 781 3412 
Q 1013 4119 1484 4856 
L 1984 4856 
z
" transform="scale(0.015625)"/>
       <path id="DejaVuSans-73" d="M 2834 3397 
L 2834 2853 
Q 2591 2978 2328 3040 
Q 2066 3103 1784 3103 
Q 1356 3103 1142 2972 
Q 928 2841 928 2578 
Q 928 2378 1081 2264 
Q 1234 2150 1697 2047 
L 1894 2003 
Q 2506 1872 2764 1633 
Q 3022 1394 3022 966 
Q 3022 478 2636 193 
Q 2250 -91 1575 -91 
Q 1294 -91 989 -36 
Q 684 19 347 128 
L 347 722 
Q 666 556 975 473 
Q 1284 391 1588 391 
Q 1994 391 2212 530 
Q 2431 669 2431 922 
Q 2431 1156 2273 1281 
Q 2116 1406 1581 1522 
L 1381 1569 
Q 847 1681 609 1914 
Q 372 2147 372 2553 
Q 372 3047 722 3315 
Q 1072 3584 1716 3584 
Q 2034 3584 2315 3537 
Q 2597 3491 2834 3397 
z
" transform="scale(0.015625)"/>
       <path id="DejaVuSans-29" d="M 513 4856 
L 1013 4856 
Q 1481 4119 1714 3412 
Q 1947 2706 1947 2009 
Q 1947 1309 1714 600 
Q 1481 -109 1013 -844 
L 513 -844 
Q 928 -128 1133 580 
Q 1338 1288 1338 2009 
Q 1338 2731 1133 3434 
Q 928 4138 513 4856 
z
" transform="scale(0.015625)"/>
      </defs>
      <use xlink:href="#DejaVuSans-41"/>
      <use xlink:href="#DejaVuSans-6c" transform="translate(68.408203 0)"/>
      <use xlink:href="#DejaVuSans-69" transform="translate(96.191406 0)"/>
      <use xlink:href="#DejaVuSans-67" transform="translate(123.974609 0)"/>
      <use xlink:href="#DejaVuSans-6e" transform="translate(187.451172 0)"/>
      <use xlink:href="#DejaVuSans-65" transform="translate(250.830078 0)"/>
      <use xlink:href="#DejaVuSans-64" transform="translate(312.353516 0)"/>
      <use xlink:href="#DejaVuSans-20" transform="translate(375.830078 0)"/>
      <use xlink:href="#DejaVuSans-54" transform="translate(407.617188 0)"/>
      <use xlink:href="#DejaVuSans-69" transform="translate(465.576172 0)"/>
      <use xlink:href="#DejaVuSans-6d" transform="translate(493.359375 0)"/>
      <use xlink:href="#DejaVuSans-65" transform="translate(590.771484 0)"/>
      <use xlink:href="#DejaVuSans-20" transform="translate(652.294922 0)"/>
      <use xlink:href="#DejaVuSans-28" transform="translate(684.082031 0)"/>
      <use xlink:href="#DejaVuSans-73" transform="translate(723.095703 0)"/>
      <use xlink:href="#DejaVuSans-29" transform="translate(775.195312 0)"/>
     </g>
    </g>
   </g>
   <g id="matplotlib.axis_2">
    <g id="ytick_1">
     <g id="line2d_8">
      <defs>
       <path id="m73de4f2e8a" d="M 0 0 
L -3.5 0 
" style="stroke: #000000; stroke-width: 0.8"/>
      </defs>
      <g>
       <use xlink:href="#m73de4f2e8a" x="108" y="295.637491" style="stroke: #000000; stroke-width: 0.8"/>
      </g>
     </g>
     <g id="text_9">
      <!-- 32.5 -->
      <g style="fill: #808080" transform="translate(78.734375 299.43671) scale(0.1 -0.1)">
       <defs>
        <path id="DejaVuSans-2e" d="M 684 794 
L 1344 794 
L 1344 0 
L 684 0 
L 684 794 
z
" transform="scale(0.015625)"/>
       </defs>
       <use xlink:href="#DejaVuSans-33"/>
       <use xlink:href="#DejaVuSans-32" transform="translate(63.623047 0)"/>
       <use xlink:href="#DejaVuSans-2e" transform="translate(127.246094 0)"/>
       <use xlink:href="#DejaVuSans-35" transform="translate(159.033203 0)"/>
      </g>
     </g>
    </g>
    <g id="ytick_2">
     <g id="line2d_9">
      <g>
       <use xlink:href="#m73de4f2e8a" x="108" y="257.148539" style="stroke: #000000; stroke-width: 0.8"/>
      </g>
     </g>
     <g id="text_10">
      <!-- 35.0 -->
      <g style="fill: #808080" transform="translate(78.734375 260.947758) scale(0.1 -0.1)">
       <use xlink:href="#DejaVuSans-33"/>
       <use xlink:href="#DejaVuSans-35" transform="translate(63.623047 0)"/>
       <use xlink:href="#DejaVuSans-2e" transform="translate(127.246094 0)"/>
       <use xlink:href="#DejaVuSans-30" transform="translate(159.033203 0)"/>
      </g>
     </g>
    </g>
    <g id="ytick_3">
     <g id="line2d_10">
      <g>
       <use xlink:href="#m73de4f2e8a" x="108" y="218.659587" style="stroke: #000000; stroke-width: 0.8"/>
      </g>
     </g>
     <g id="text_11">
      <!-- 37.5 -->
      <g style="fill: #808080" transform="translate(78.734375 222.458805) scale(0.1 -0.1)">
       <defs>
        <path id="DejaVuSans-37" d="M 525 4666 
L 3525 4666 
L 3525 4397 
L 1831 0 
L 1172 0 
L 2766 4134 
L 525 4134 
L 525 4666 
z
" transform="scale(0.015625)"/>
       </defs>
       <use xlink:href="#DejaVuSans-33"/>
       <use xlink:href="#DejaVuSans-37" transform="translate(63.623047 0)"/>
       <use xlink:href="#DejaVuSans-2e" transform="translate(127.246094 0)"/>
       <use xlink:href="#DejaVuSans-35" transform="translate(159.033203 0)"/>
      </g>
     </g>
    </g>
    <g id="ytick_4">
     <g id="line2d_11">
      <g>
       <use xlink:href="#m73de4f2e8a" x="108" y="180.170634" style="stroke: #000000; stroke-width: 0.8"/>
      </g>
     </g>
     <g id="text_12">
      <!-- 40.0 -->
      <g style="fill: #808080" transform="translate(78.734375 183.969853) scale(0.1 -0.1)">
       <defs>
        <path id="DejaVuSans-34" d="M 2419 4116 
L 825 1625 
L 2419 1625 
L 2419 4116 
z
M 2253 4666 
L 3047 4666 
L 3047 1625 
L 3713 1625 
L 3713 1100 
L 3047 1100 
L 3047 0 
L 2419 0 
L 2419 1100 
L 313 1100 
L 313 1709 
L 2253 4666 
z
" transform="scale(0.015625)"/>
       </defs>
       <use xlink:href="#DejaVuSans-34"/>
       <use xlink:href="#DejaVuSans-30" transform="translate(63.623047 0)"/>
       <use xlink:href="#DejaVuSans-2e" transform="translate(127.246094 0)"/>
       <use xlink:href="#DejaVuSans-30" transform="translate(159.033203 0)"/>
      </g>
     </g>
    </g>
    <g id="ytick_5">
     <g id="line2d_12">
      <g>
       <use xlink:href="#m73de4f2e8a" x="108" y="141.681682" style="stroke: #000000; stroke-width: 0.8"/>
      </g>
     </g>
     <g id="text_13">
      <!-- 42.5 -->
      <g style="fill: #808080" transform="translate(78.734375 145.480901) scale(0.1 -0.1)">
       <use xlink:href="#DejaVuSans-34"/>
       <use xlink:href="#DejaVuSans-32" transform="translate(63.623047 0)"/>
       <use xlink:href="#DejaVuSans-2e" transform="translate(127.246094 0)"/>
       <use xlink:href="#DejaVuSans-35" transform="translate(159.033203 0)"/>
      </g>
     </g>
    </g>
    <g id="ytick_6">
     <g id="line2d_13">
      <g>
       <use xlink:href="#m73de4f2e8a" x="108" y="103.19273" style="stroke: #000000; stroke-width: 0.8"/>
      </g>
     </g>
     <g id="text_14">
      <!-- 45.0 -->
      <g style="fill: #808080" transform="translate(78.734375 106.991949) scale(0.1 -0.1)">
       <use xlink:href="#DejaVuSans-34"/>
       <use xlink:href="#DejaVuSans-35" transform="translate(63.623047 0)"/>
       <use xlink:href="#DejaVuSans-2e" transform="translate(127.246094 0)"/>
       <use xlink:href="#DejaVuSans-30" transform="translate(159.033203 0)"/>
      </g>
     </g>
    </g>
    <g id="ytick_7">
     <g id="line2d_14">
      <g>
       <use xlink:href="#m73de4f2e8a" x="108" y="64.703778" style="stroke: #000000; stroke-width: 0.8"/>
      </g>
     </g>
     <g id="text_15">
      <!-- 47.5 -->
      <g style="fill: #808080" transform="translate(78.734375 68.502996) scale(0.1 -0.1)">
       <use xlink:href="#DejaVuSans-34"/>
       <use xlink:href="#DejaVuSans-37" transform="translate(63.623047 0)"/>
       <use xlink:href="#DejaVuSans-2e" transform="translate(127.246094 0)"/>
       <use xlink:href="#DejaVuSans-35" transform="translate(159.033203 0)"/>
      </g>
     </g>
    </g>
    <g id="text_16">
     <!-- Temperature (°C) -->
     <g style="fill: #808080" transform="translate(72.654687 224.951562) rotate(-90) scale(0.1 -0.1)">
      <defs>
       <path id="DejaVuSans-70" d="M 1159 525 
L 1159 -1331 
L 581 -1331 
L 581 3500 
L 1159 3500 
L 1159 2969 
Q 1341 3281 1617 3432 
Q 1894 3584 2278 3584 
Q 2916 3584 3314 3078 
Q 3713 2572 3713 1747 
Q 3713 922 3314 415 
Q 2916 -91 2278 -91 
Q 1894 -91 1617 61 
Q 1341 213 1159 525 
z
M 3116 1747 
Q 3116 2381 2855 2742 
Q 2594 3103 2138 3103 
Q 1681 3103 1420 2742 
Q 1159 2381 1159 1747 
Q 1159 1113 1420 752 
Q 1681 391 2138 391 
Q 2594 391 2855 752 
Q 3116 1113 3116 1747 
z
" transform="scale(0.015625)"/>
       <path id="DejaVuSans-72" d="M 2631 2963 
Q 2534 3019 2420 3045 
Q 2306 3072 2169 3072 
Q 1681 3072 1420 2755 
Q 1159 2438 1159 1844 
L 1159 0 
L 581 0 
L 581 3500 
L 1159 3500 
L 1159 2956 
Q 1341 3275 1631 3429 
Q 1922 3584 2338 3584 
Q 2397 3584 2469 3576 
Q 2541 3569 2628 3553 
L 2631 2963 
z
" transform="scale(0.015625)"/>
       <path id="DejaVuSans-61" d="M 2194 1759 
Q 1497 1759 1228 1600 
Q 959 1441 959 1056 
Q 959 750 1161 570 
Q 1363 391 1709 391 
Q 2188 391 2477 730 
Q 2766 1069 2766 1631 
L 2766 1759 
L 2194 1759 
z
M 3341 1997 
L 3341 0 
L 2766 0 
L 2766 531 
Q 2569 213 2275 61 
Q 1981 -91 1556 -91 
Q 1019 -91 701 211 
Q 384 513 384 1019 
Q 384 1609 779 1909 
Q 1175 2209 1959 2209 
L 2766 2209 
L 2766 2266 
Q 2766 2663 2505 2880 
Q 2244 3097 1772 3097 
Q 1472 3097 1187 3025 
Q 903 2953 641 2809 
L 641 3341 
Q 956 3463 1253 3523 
Q 1550 3584 1831 3584 
Q 2591 3584 2966 3190 
Q 3341 2797 3341 1997 
z
" transform="scale(0.015625)"/>
       <path id="DejaVuSans-74" d="M 1172 4494 
L 1172 3500 
L 2356 3500 
L 2356 3053 
L 1172 3053 
L 1172 1153 
Q 1172 725 1289 603 
Q 1406 481 1766 481 
L 2356 481 
L 2356 0 
L 1766 0 
Q 1100 0 847 248 
Q 594 497 594 1153 
L 594 3053 
L 172 3053 
L 172 3500 
L 594 3500 
L 594 4494 
L 1172 4494 
z
" transform="scale(0.015625)"/>
       <path id="DejaVuSans-75" d="M 544 1381 
L 544 3500 
L 1119 3500 
L 1119 1403 
Q 1119 906 1312 657 
Q 1506 409 1894 409 
Q 2359 409 2629 706 
Q 2900 1003 2900 1516 
L 2900 3500 
L 3475 3500 
L 3475 0 
L 2900 0 
L 2900 538 
Q 2691 219 2414 64 
Q 2138 -91 1772 -91 
Q 1169 -91 856 284 
Q 544 659 544 1381 
z
M 1991 3584 
L 1991 3584 
z
" transform="scale(0.015625)"/>
       <path id="DejaVuSans-b0" d="M 1600 4347 
Q 1350 4347 1178 4173 
Q 1006 4000 1006 3750 
Q 1006 3503 1178 3333 
Q 1350 3163 1600 3163 
Q 1850 3163 2022 3333 
Q 2194 3503 2194 3750 
Q 2194 3997 2020 4172 
Q 1847 4347 1600 4347 
z
M 1600 4750 
Q 1800 4750 1984 4673 
Q 2169 4597 2303 4453 
Q 2447 4313 2519 4134 
Q 2591 3956 2591 3750 
Q 2591 3338 2302 3052 
Q 2013 2766 1594 2766 
Q 1172 2766 890 3047 
Q 609 3328 609 3750 
Q 609 4169 896 4459 
Q 1184 4750 1600 4750 
z
" transform="scale(0.015625)"/>
       <path id="DejaVuSans-43" d="M 4122 4306 
L 4122 3641 
Q 3803 3938 3442 4084 
Q 3081 4231 2675 4231 
Q 1875 4231 1450 3742 
Q 1025 3253 1025 2328 
Q 1025 1406 1450 917 
Q 1875 428 2675 428 
Q 3081 428 3442 575 
Q 3803 722 4122 1019 
L 4122 359 
Q 3791 134 3420 21 
Q 3050 -91 2638 -91 
Q 1578 -91 968 557 
Q 359 1206 359 2328 
Q 359 3453 968 4101 
Q 1578 4750 2638 4750 
Q 3056 4750 3426 4639 
Q 3797 4528 4122 4306 
z
" transform="scale(0.015625)"/>
      </defs>
      <use xlink:href="#DejaVuSans-54"/>
      <use xlink:href="#DejaVuSans-65" transform="translate(44.083984 0)"/>
      <use xlink:href="#DejaVuSans-6d" transform="translate(105.607422 0)"/>
      <use xlink:href="#DejaVuSans-70" transform="translate(203.019531 0)"/>
      <use xlink:href="#DejaVuSans-65" transform="translate(266.496094 0)"/>
      <use xlink:href="#DejaVuSans-72" transform="translate(328.019531 0)"/>
      <use xlink:href="#DejaVuSans-61" transform="translate(369.132812 0)"/>
      <use xlink:href="#DejaVuSans-74" transform="translate(430.412109 0)"/>
      <use xlink:href="#DejaVuSans-75" transform="translate(469.621094 0)"/>
      <use xlink:href="#DejaVuSans-72" transform="translate(533 0)"/>
      <use xlink:href="#DejaVuSans-65" transform="translate(571.863281 0)"/>
      <use xlink:href="#DejaVuSans-20" transform="translate(633.386719 0)"/>
      <use xlink:href="#DejaVuSans-28" transform="translate(665.173828 0)"/>
      <use xlink:href="#DejaVuSans-b0" transform="translate(704.1875 0)"/>
      <use xlink:href="#DejaVuSans-43" transform="translate(754.1875 0)"/>
      <use xlink:href="#DejaVuSans-29" transform="translate(824.011719 0)"/>
     </g>
    </g>
   </g>
   <g id="line2d_15">
    <path d="M 105.9075 75.511475 
L 108 73.06871 
L 110.0925 71.041625 
L 112.185 68.552673 
L 116.37 64.285898 
L 118.4625 62.471418 
L 120.555 61.030832 
L 122.6475 58.853457 
L 124.74 58.211974 
L 126.8325 56.962 
L 128.925 56.328582 
L 131.0175 56.280195 
L 133.11 55.825659 
L 135.2025 56.18489 
L 137.295 56.18489 
L 139.3875 56.346177 
L 141.48 56.980328 
L 143.5725 56.826372 
L 145.665 56.962 
L 147.7575 56.954669 
L 149.85 56.54412 
L 151.9425 56.808044 
L 154.035 56.313186 
L 156.1275 55.979615 
L 158.22 56.338845 
L 160.3125 56.192221 
L 162.405 55.8 
L 164.4975 56.280195 
L 166.59 56.595438 
L 168.6825 56.54412 
L 170.775 56.790449 
L 174.96 56.723735 
L 177.0525 56.954669 
L 179.145 56.610101 
L 181.2375 56.775053 
L 183.33 56.51846 
L 185.4225 56.720069 
L 187.515 56.566113 
L 195.885 56.588107 
L 197.9775 57.049975 
L 200.07 56.621098 
L 202.1625 56.676082 
L 204.255 56.980328 
L 206.3475 56.800713 
L 210.5325 57.005987 
L 212.625 56.720069 
L 214.7175 56.569779 
L 216.81 56.621098 
L 218.9025 56.852031 
L 220.995 56.800713 
L 223.0875 56.313186 
L 225.18 56.54412 
L 227.2725 56.51846 
L 229.365 57.159943 
L 241.92 56.954669 
L 244.0125 56.723735 
L 246.105 57.108624 
L 250.29 56.808044 
L 252.3825 56.983993 
L 254.475 56.676082 
L 256.5675 57.031646 
L 258.66 56.569779 
L 260.7525 56.826372 
L 262.845 56.749394 
L 267.03 56.918012 
L 269.1225 56.874025 
L 271.215 56.302189 
L 273.3075 57.339558 
L 277.4925 56.698076 
L 279.585 57.423867 
L 283.77 56.749394 
L 287.955 56.749394 
L 290.0475 56.980328 
L 292.14 56.918012 
L 294.2325 57.181937 
L 296.325 56.764057 
L 298.4175 56.54412 
L 300.51 57.082965 
L 302.6025 56.338845 
L 304.695 57.057306 
L 306.7875 57.093962 
L 308.88 57.247918 
L 310.9725 56.940006 
L 313.065 57.269911 
L 315.1575 56.918012 
L 317.25 56.980328 
L 319.3425 56.852031 
L 321.435 57.339558 
L 323.5275 56.595438 
L 327.7125 56.764057 
L 329.805 56.588107 
L 331.8975 56.78605 
L 333.99 57.225924 
L 340.2675 57.108624 
L 344.4525 59.623236 
L 346.545 62.343122 
L 348.6375 64.678118 
L 352.8225 70.642073 
L 354.915 72.753467 
L 357.0075 74.227044 
L 359.1 73.735852 
L 361.1925 74.069423 
L 363.285 72.760798 
L 367.47 70.818023 
L 371.655 70.451461 
L 382.1175 73.325303 
L 384.21 73.303309 
L 390.4875 72.753467 
L 392.58 71.895713 
L 394.6725 72.273272 
L 396.765 71.785745 
L 403.0425 72.452887 
L 409.32 72.379574 
L 411.4125 72.735139 
L 413.505 72.863435 
L 415.5975 72.632502 
L 417.69 72.093656 
L 419.7825 72.335587 
L 421.875 72.181631 
L 423.9675 72.70948 
L 426.06 72.016679 
L 428.1525 72.119316 
L 430.245 72.658161 
L 432.3375 72.298931 
L 434.43 72.581183 
L 436.5225 72.665492 
L 438.615 72.53353 
L 440.7075 72.53353 
L 442.8 72.313593 
L 444.8925 72.445555 
L 446.985 73.017391 
L 449.0775 73.017391 
L 451.17 72.225619 
L 453.2625 72.401568 
L 455.355 72.042338 
L 457.4475 72.812117 
L 459.54 72.32459 
L 463.725 72.445555 
L 465.8175 72.137644 
L 467.91 72.489543 
L 470.0025 72.042338 
L 472.095 72.478546 
L 476.28 72.511537 
L 478.3725 72.775461 
L 480.465 72.2916 
L 482.5575 72.335587 
L 484.65 72.687486 
L 486.7425 72.170634 
L 488.835 72.581183 
L 490.9275 72.221953 
L 495.1125 72.119316 
L 497.205 72.577518 
L 501.39 72.70948 
L 503.4825 72.489543 
L 507.6675 72.819448 
L 509.76 72.577518 
L 511.8525 72.196294 
L 513.945 72.298931 
L 518.13 71.96536 
L 520.2225 71.653783 
L 522.315 72.467549 
L 524.4075 72.423562 
L 526.5 72.606842 
L 530.685 72.504205 
L 532.7775 72.427227 
L 534.87 72.196294 
L 539.055 72.049669 
L 541.1475 72.2916 
L 543.24 72.797454 
L 545.3325 72.665492 
L 547.425 72.225619 
L 551.61 72.427227 
L 553.7025 72.221953 
L 555.795 72.581183 
L 557.8875 72.273272 
L 559.98 72.53353 
L 564.165 72.379574 
L 566.2575 72.247612 
L 568.35 72.621505 
L 570.4425 72.452887 
L 572.535 72.170634 
L 574.6275 72.093656 
L 587.1825 72.511537 
L 589.275 72.775461 
L 591.3675 72.70948 
L 593.46 72.093656 
L 595.5525 72.478546 
L 597.645 72.119316 
L 599.7375 72.071663 
L 601.83 72.269606 
L 603.9225 72.775461 
L 606.015 72.529865 
L 608.1075 72.170634 
L 612.2925 72.581183 
L 614.385 72.247612 
L 616.4775 72.027675 
L 618.57 72.555524 
L 620.6625 72.401568 
L 624.8475 72.2916 
L 626.94 71.829732 
L 629.0325 72.269606 
L 631.125 72.586315 
L 635.31 72.70948 
L 637.4025 72.452887 
L 639.495 72.32459 
L 641.5875 72.70948 
L 643.68 72.665492 
L 645.7725 72.760798 
L 647.865 72.350249 
L 649.9575 72.221953 
L 652.05 72.632502 
L 654.1425 72.529865 
L 658.3275 72.687486 
L 660.42 72.2916 
L 662.5125 72.489543 
L 666.6975 72.067997 
L 668.79 72.478546 
L 670.8825 72.32459 
L 672.975 72.632502 
L 675.0675 72.181631 
L 677.16 72.269606 
L 679.2525 73.017391 
L 681.345 72.357581 
L 683.4375 72.577518 
L 685.53 72.2916 
L 689.715 72.273272 
L 691.8075 72.32459 
L 693.9 72.196294 
L 695.9925 72.489543 
L 698.085 72.357581 
L 700.1775 72.68382 
L 702.27 72.581183 
L 704.3625 72.298931 
L 706.455 72.273272 
L 708.5475 72.760798 
L 710.64 72.665492 
L 712.7325 72.819448 
L 714.825 72.247612 
L 716.9175 71.917707 
L 719.01 72.577518 
L 723.195 72.093656 
L 727.38 72.735139 
L 733.6575 72.445555 
L 735.75 72.529865 
L 739.935 72.225619 
L 742.0275 72.599511 
L 746.2125 72.555524 
L 748.305 72.298931 
L 750.3975 72.606842 
L 754.5825 72.313593 
L 756.675 72.423562 
L 758.7675 72.2916 
L 765.045 72.273272 
L 767.1375 72.606842 
L 769.23 72.489543 
L 771.3225 72.599511 
L 773.415 72.225619 
L 775.5075 72.511537 
L 777.6 73.501252 
L 779.6925 76.756318 
L 779.6925 76.756318 
" clip-path="url(#peee60542ce)" style="fill: none; stroke: #808080; stroke-opacity: 0.7; stroke-width: 1.5; stroke-linecap: square"/>
   </g>
   <g id="patch_3">
    <path d="M 108 320.4 
L 108 43.2 
" style="fill: none; stroke: #000000; stroke-width: 0.8; stroke-linejoin: miter; stroke-linecap: square"/>
   </g>
   <g id="patch_4">
    <path d="M 777.6 320.4 
L 777.6 43.2 
" style="fill: none; stroke: #000000; stroke-width: 0.8; stroke-linejoin: miter; stroke-linecap: square"/>
   </g>
   <g id="patch_5">
    <path d="M 108 320.4 
L 777.6 320.4 
" style="fill: none; stroke: #000000; stroke-width: 0.8; stroke-linejoin: miter; stroke-linecap: square"/>
   </g>
   <g id="patch_6">
    <path d="M 108 43.2 
L 777.6 43.2 
" style="fill: none; stroke: #000000; stroke-width: 0.8; stroke-linejoin: miter; stroke-linecap: square"/>
   </g>
  </g>
  <g id="axes_2">
   <g id="matplotlib.axis_3">
    <g id="ytick_8">
     <g id="line2d_16">
      <defs>
       <path id="m0e4edb2230" d="M 0 0 
L 3.5 0 
" style="stroke: #000000; stroke-width: 0.8"/>
      </defs>
      <g>
       <use xlink:href="#m0e4edb2230" x="777.6" y="307.8" style="stroke: #000000; stroke-width: 0.8"/>
      </g>
     </g>
     <g id="text_17">
      <!-- 0 -->
      <g style="fill: #dc143c" transform="translate(784.6 311.599219) scale(0.1 -0.1)">
       <use xlink:href="#DejaVuSans-30"/>
      </g>
     </g>
    </g>
    <g id="ytick_9">
     <g id="line2d_17">
      <g>
       <use xlink:href="#m0e4edb2230" x="777.6" y="276.560331" style="stroke: #000000; stroke-width: 0.8"/>
      </g>
     </g>
     <g id="text_18">
      <!-- 10 -->
      <g style="fill: #dc143c" transform="translate(784.6 280.359549) scale(0.1 -0.1)">
       <use xlink:href="#DejaVuSans-31"/>
       <use xlink:href="#DejaVuSans-30" transform="translate(63.623047 0)"/>
      </g>
     </g>
    </g>
    <g id="ytick_10">
     <g id="line2d_18">
      <g>
       <use xlink:href="#m0e4edb2230" x="777.6" y="245.320661" style="stroke: #000000; stroke-width: 0.8"/>
      </g>
     </g>
     <g id="text_19">
      <!-- 20 -->
      <g style="fill: #dc143c" transform="translate(784.6 249.11988) scale(0.1 -0.1)">
       <use xlink:href="#DejaVuSans-32"/>
       <use xlink:href="#DejaVuSans-30" transform="translate(63.623047 0)"/>
      </g>
     </g>
    </g>
    <g id="ytick_11">
     <g id="line2d_19">
      <g>
       <use xlink:href="#m0e4edb2230" x="777.6" y="214.080992" style="stroke: #000000; stroke-width: 0.8"/>
      </g>
     </g>
     <g id="text_20">
      <!-- 30 -->
      <g style="fill: #dc143c" transform="translate(784.6 217.88021) scale(0.1 -0.1)">
       <use xlink:href="#DejaVuSans-33"/>
       <use xlink:href="#DejaVuSans-30" transform="translate(63.623047 0)"/>
      </g>
     </g>
    </g>
    <g id="ytick_12">
     <g id="line2d_20">
      <g>
       <use xlink:href="#m0e4edb2230" x="777.6" y="182.841322" style="stroke: #000000; stroke-width: 0.8"/>
      </g>
     </g>
     <g id="text_21">
      <!-- 40 -->
      <g style="fill: #dc143c" transform="translate(784.6 186.640541) scale(0.1 -0.1)">
       <use xlink:href="#DejaVuSans-34"/>
       <use xlink:href="#DejaVuSans-30" transform="translate(63.623047 0)"/>
      </g>
     </g>
    </g>
    <g id="ytick_13">
     <g id="line2d_21">
      <g>
       <use xlink:href="#m0e4edb2230" x="777.6" y="151.601653" style="stroke: #000000; stroke-width: 0.8"/>
      </g>
     </g>
     <g id="text_22">
      <!-- 50 -->
      <g style="fill: #dc143c" transform="translate(784.6 155.400872) scale(0.1 -0.1)">
       <use xlink:href="#DejaVuSans-35"/>
       <use xlink:href="#DejaVuSans-30" transform="translate(63.623047 0)"/>
      </g>
     </g>
    </g>
    <g id="ytick_14">
     <g id="line2d_22">
      <g>
       <use xlink:href="#m0e4edb2230" x="777.6" y="120.361983" style="stroke: #000000; stroke-width: 0.8"/>
      </g>
     </g>
     <g id="text_23">
      <!-- 60 -->
      <g style="fill: #dc143c" transform="translate(784.6 124.161202) scale(0.1 -0.1)">
       <defs>
        <path id="DejaVuSans-36" d="M 2113 2584 
Q 1688 2584 1439 2293 
Q 1191 2003 1191 1497 
Q 1191 994 1439 701 
Q 1688 409 2113 409 
Q 2538 409 2786 701 
Q 3034 994 3034 1497 
Q 3034 2003 2786 2293 
Q 2538 2584 2113 2584 
z
M 3366 4563 
L 3366 3988 
Q 3128 4100 2886 4159 
Q 2644 4219 2406 4219 
Q 1781 4219 1451 3797 
Q 1122 3375 1075 2522 
Q 1259 2794 1537 2939 
Q 1816 3084 2150 3084 
Q 2853 3084 3261 2657 
Q 3669 2231 3669 1497 
Q 3669 778 3244 343 
Q 2819 -91 2113 -91 
Q 1303 -91 875 529 
Q 447 1150 447 2328 
Q 447 3434 972 4092 
Q 1497 4750 2381 4750 
Q 2619 4750 2861 4703 
Q 3103 4656 3366 4563 
z
" transform="scale(0.015625)"/>
       </defs>
       <use xlink:href="#DejaVuSans-36"/>
       <use xlink:href="#DejaVuSans-30" transform="translate(63.623047 0)"/>
      </g>
     </g>
    </g>
    <g id="ytick_15">
     <g id="line2d_23">
      <g>
       <use xlink:href="#m0e4edb2230" x="777.6" y="89.122314" style="stroke: #000000; stroke-width: 0.8"/>
      </g>
     </g>
     <g id="text_24">
      <!-- 70 -->
      <g style="fill: #dc143c" transform="translate(784.6 92.921533) scale(0.1 -0.1)">
       <use xlink:href="#DejaVuSans-37"/>
       <use xlink:href="#DejaVuSans-30" transform="translate(63.623047 0)"/>
      </g>
     </g>
    </g>
    <g id="ytick_16">
     <g id="line2d_24">
      <g>
       <use xlink:href="#m0e4edb2230" x="777.6" y="57.882645" style="stroke: #000000; stroke-width: 0.8"/>
      </g>
     </g>
     <g id="text_25">
      <!-- 80 -->
      <g style="fill: #dc143c" transform="translate(784.6 61.681863) scale(0.1 -0.1)">
       <defs>
        <path id="DejaVuSans-38" d="M 2034 2216 
Q 1584 2216 1326 1975 
Q 1069 1734 1069 1313 
Q 1069 891 1326 650 
Q 1584 409 2034 409 
Q 2484 409 2743 651 
Q 3003 894 3003 1313 
Q 3003 1734 2745 1975 
Q 2488 2216 2034 2216 
z
M 1403 2484 
Q 997 2584 770 2862 
Q 544 3141 544 3541 
Q 544 4100 942 4425 
Q 1341 4750 2034 4750 
Q 2731 4750 3128 4425 
Q 3525 4100 3525 3541 
Q 3525 3141 3298 2862 
Q 3072 2584 2669 2484 
Q 3125 2378 3379 2068 
Q 3634 1759 3634 1313 
Q 3634 634 3220 271 
Q 2806 -91 2034 -91 
Q 1263 -91 848 271 
Q 434 634 434 1313 
Q 434 1759 690 2068 
Q 947 2378 1403 2484 
z
M 1172 3481 
Q 1172 3119 1398 2916 
Q 1625 2713 2034 2713 
Q 2441 2713 2670 2916 
Q 2900 3119 2900 3481 
Q 2900 3844 2670 4047 
Q 2441 4250 2034 4250 
Q 1625 4250 1398 4047 
Q 1172 3844 1172 3481 
z
" transform="scale(0.015625)"/>
       </defs>
       <use xlink:href="#DejaVuSans-38"/>
       <use xlink:href="#DejaVuSans-30" transform="translate(63.623047 0)"/>
      </g>
     </g>
    </g>
    <g id="text_26">
     <!-- Pain Rating -->
     <g style="fill: #dc143c" transform="translate(808.923438 209.91875) rotate(-90) scale(0.1 -0.1)">
      <defs>
       <path id="DejaVuSans-50" d="M 1259 4147 
L 1259 2394 
L 2053 2394 
Q 2494 2394 2734 2622 
Q 2975 2850 2975 3272 
Q 2975 3691 2734 3919 
Q 2494 4147 2053 4147 
L 1259 4147 
z
M 628 4666 
L 2053 4666 
Q 2838 4666 3239 4311 
Q 3641 3956 3641 3272 
Q 3641 2581 3239 2228 
Q 2838 1875 2053 1875 
L 1259 1875 
L 1259 0 
L 628 0 
L 628 4666 
z
" transform="scale(0.015625)"/>
       <path id="DejaVuSans-52" d="M 2841 2188 
Q 3044 2119 3236 1894 
Q 3428 1669 3622 1275 
L 4263 0 
L 3584 0 
L 2988 1197 
Q 2756 1666 2539 1819 
Q 2322 1972 1947 1972 
L 1259 1972 
L 1259 0 
L 628 0 
L 628 4666 
L 2053 4666 
Q 2853 4666 3247 4331 
Q 3641 3997 3641 3322 
Q 3641 2881 3436 2590 
Q 3231 2300 2841 2188 
z
M 1259 4147 
L 1259 2491 
L 2053 2491 
Q 2509 2491 2742 2702 
Q 2975 2913 2975 3322 
Q 2975 3731 2742 3939 
Q 2509 4147 2053 4147 
L 1259 4147 
z
" transform="scale(0.015625)"/>
      </defs>
      <use xlink:href="#DejaVuSans-50"/>
      <use xlink:href="#DejaVuSans-61" transform="translate(55.802734 0)"/>
      <use xlink:href="#DejaVuSans-69" transform="translate(117.082031 0)"/>
      <use xlink:href="#DejaVuSans-6e" transform="translate(144.865234 0)"/>
      <use xlink:href="#DejaVuSans-20" transform="translate(208.244141 0)"/>
      <use xlink:href="#DejaVuSans-52" transform="translate(240.03125 0)"/>
      <use xlink:href="#DejaVuSans-61" transform="translate(307.263672 0)"/>
      <use xlink:href="#DejaVuSans-74" transform="translate(368.542969 0)"/>
      <use xlink:href="#DejaVuSans-69" transform="translate(407.751953 0)"/>
      <use xlink:href="#DejaVuSans-6e" transform="translate(435.535156 0)"/>
      <use xlink:href="#DejaVuSans-67" transform="translate(498.914062 0)"/>
     </g>
    </g>
   </g>
   <g id="line2d_25">
    <path d="M 105.9075 257.816529 
L 108 248.444628 
L 110.0925 241.155372 
L 112.185 237.733884 
L 114.2775 235.323967 
L 116.37 220.775207 
L 118.4625 217.72562 
L 120.555 214.080992 
L 122.6475 214.080992 
L 124.74 209.395041 
L 126.8325 207.386777 
L 128.925 199.710744 
L 131.0175 196.229752 
L 133.11 191.692562 
L 135.2025 177.634711 
L 137.295 172.94876 
L 139.3875 164.543802 
L 141.48 162.535537 
L 143.5725 153.163636 
L 145.665 141.783471 
L 147.7575 132.857851 
L 149.85 129.733884 
L 151.9425 114.560331 
L 154.035 104.221488 
L 156.1275 95.890909 
L 158.22 97.452893 
L 160.3125 94.477686 
L 162.405 93.808264 
L 164.4975 86.890909 
L 166.59 85.998347 
L 168.6825 80.642975 
L 170.775 77.25124 
L 172.8675 77.072727 
L 174.96 76.105785 
L 177.0525 71.940496 
L 179.145 71.271074 
L 181.2375 69.33719 
L 183.33 71.940496 
L 185.4225 71.717355 
L 187.515 71.717355 
L 189.6075 64.130579 
L 191.7 63.238017 
L 193.7925 63.684298 
L 195.885 68.147107 
L 197.9775 67.254545 
L 200.07 63.609917 
L 202.1625 65.02314 
L 204.255 65.692562 
L 206.3475 70.378512 
L 208.44 61.006612 
L 210.5325 67.254545 
L 212.625 65.02314 
L 214.7175 64.130579 
L 216.81 62.047934 
L 218.9025 61.899174 
L 220.995 64.130579 
L 223.0875 59.965289 
L 225.18 68.816529 
L 227.2725 61.006612 
L 229.365 59.667769 
L 231.4575 60.560331 
L 233.55 65.915702 
L 235.6425 65.469421 
L 237.735 62.345455 
L 239.8275 64.755372 
L 241.92 59.444628 
L 244.0125 58.403306 
L 246.105 58.403306 
L 248.1975 59.221488 
L 250.29 58.775207 
L 252.3825 62.791736 
L 254.475 57.436364 
L 256.5675 58.923967 
L 258.66 62.047934 
L 260.7525 57.361983 
L 262.845 55.8 
L 264.9375 60.560331 
L 267.03 58.775207 
L 269.1225 59.667769 
L 271.215 57.436364 
L 273.3075 56.320661 
L 275.4 58.775207 
L 277.4925 60.11405 
L 279.585 58.775207 
L 281.6775 58.923967 
L 283.77 57.882645 
L 285.8625 62.047934 
L 287.955 60.48595 
L 290.0475 59.444628 
L 292.14 59.667769 
L 294.2325 60.11405 
L 296.325 64.57686 
L 298.4175 62.568595 
L 300.51 69.857851 
L 302.6025 73.502479 
L 304.695 74.543802 
L 308.88 81.535537 
L 310.9725 85.105785 
L 313.065 90.461157 
L 315.1575 87.33719 
L 317.25 89.122314 
L 319.3425 90.684298 
L 321.435 95.370248 
L 323.5275 87.560331 
L 325.62 95.370248 
L 327.7125 93.585124 
L 329.805 94.031405 
L 331.8975 96.709091 
L 333.99 98.494215 
L 336.0825 94.031405 
L 338.175 96.709091 
L 340.2675 93.808264 
L 342.36 97.973554 
L 344.4525 95.890909 
L 346.545 99.535537 
L 348.6375 101.097521 
L 350.73 99.014876 
L 352.8225 100.279339 
L 354.915 94.923967 
L 357.0075 94.923967 
L 359.1 96.41157 
L 361.1925 98.494215 
L 363.285 97.973554 
L 365.3775 99.535537 
L 367.47 96.709091 
L 369.5625 95.370248 
L 371.655 100.056198 
L 373.7475 95.890909 
L 375.84 95.370248 
L 377.9325 92.766942 
L 380.025 98.494215 
L 382.1175 101.618182 
L 386.3025 115.899174 
L 388.395 123.932231 
L 390.4875 126.609917 
L 392.58 127.502479 
L 394.6725 133.378512 
L 396.765 137.02314 
L 398.8575 144.833058 
L 400.95 146.395041 
L 403.0425 150.560331 
L 405.135 157.849587 
L 407.2275 156.064463 
L 409.32 158.295868 
L 411.4125 168.783471 
L 413.505 178.155372 
L 417.69 181.279339 
L 419.7825 179.271074 
L 421.875 175.700826 
L 423.9675 181.056198 
L 426.06 185.965289 
L 428.1525 189.609917 
L 430.245 197.940496 
L 432.3375 201.064463 
L 434.43 194.816529 
L 436.5225 195.33719 
L 438.615 202.477686 
L 440.7075 204.26281 
L 442.8 206.940496 
L 444.8925 206.047934 
L 446.985 204.26281 
L 449.0775 210.957025 
L 451.17 214.973554 
L 453.2625 216.163636 
L 455.355 218.766942 
L 457.4475 220.849587 
L 459.54 218.766942 
L 461.6325 224.345455 
L 463.725 225.238017 
L 465.8175 225.238017 
L 467.91 224.791736 
L 470.0025 221.890909 
L 472.095 232.304132 
L 474.1875 235.94876 
L 476.28 239.072727 
L 478.3725 249.33719 
L 480.465 257.816529 
L 482.5575 261.833058 
L 484.65 263.618182 
L 486.7425 267.709091 
L 488.835 276.560331 
L 490.9275 284.370248 
L 493.02 291.138843 
L 495.1125 294.783471 
L 497.205 293.072727 
L 499.2975 307.8 
L 501.39 306.461157 
L 503.4825 307.8 
L 520.2225 307.8 
L 522.315 300.659504 
L 524.4075 302.444628 
L 526.5 307.8 
L 528.5925 305.196694 
L 530.685 305.717355 
L 532.7775 306.758678 
L 534.87 305.717355 
L 536.9625 306.758678 
L 539.055 294.857851 
L 541.1475 285.48595 
L 543.24 295.750413 
L 545.3325 293.519008 
L 547.425 285.48595 
L 549.5175 285.48595 
L 551.61 285.932231 
L 553.7025 283.328926 
L 555.795 282.808264 
L 557.8875 280.72562 
L 559.98 276.560331 
L 562.0725 274.328926 
L 564.165 275.667769 
L 566.2575 277.452893 
L 568.35 279.684298 
L 570.4425 278.642975 
L 572.535 282.287603 
L 574.6275 275.519008 
L 576.72 273.957025 
L 578.8125 280.204959 
L 580.905 275.667769 
L 582.9975 274.775207 
L 585.09 276.11405 
L 587.1825 273.882645 
L 591.3675 272.915702 
L 593.46 269.271074 
L 595.5525 267.709091 
L 597.645 272.395041 
L 599.7375 273.436364 
L 601.83 271.65124 
L 603.9225 270.312397 
L 608.1075 273.436364 
L 610.2 267.18843 
L 612.2925 273.436364 
L 614.385 274.998347 
L 616.4775 273.436364 
L 620.6625 269.866116 
L 622.755 267.18843 
L 624.8475 273.882645 
L 626.94 269.866116 
L 629.0325 274.775207 
L 631.125 272.186777 
L 633.2175 271.87438 
L 635.31 267.709091 
L 637.4025 268.750413 
L 643.68 267.18843 
L 645.7725 268.750413 
L 647.865 267.18843 
L 649.9575 270.833058 
L 652.05 269.791736 
L 654.1425 265.626446 
L 656.235 267.18843 
L 658.3275 267.18843 
L 660.42 271.65124 
L 662.5125 271.65124 
L 664.605 269.866116 
L 666.6975 274.998347 
L 668.79 266.667769 
L 670.8825 267.709091 
L 672.975 270.833058 
L 675.0675 272.543802 
L 677.16 272.990083 
L 679.2525 268.973554 
L 681.345 272.543802 
L 683.4375 267.18843 
L 685.53 269.866116 
L 687.6225 272.990083 
L 689.715 271.353719 
L 691.8075 270.312397 
L 693.9 267.18843 
L 695.9925 268.527273 
L 698.085 270.758678 
L 700.1775 268.750413 
L 704.3625 274.998347 
L 706.455 268.750413 
L 708.5475 271.87438 
L 710.64 273.882645 
L 712.7325 273.436364 
L 714.825 267.18843 
L 716.9175 270.758678 
L 719.01 270.758678 
L 721.1025 270.312397 
L 723.195 270.833058 
L 725.2875 267.18843 
L 727.38 265.626446 
L 729.4725 267.18843 
L 733.6575 267.18843 
L 735.75 272.395041 
L 737.8425 269.791736 
L 742.0275 269.866116 
L 744.12 269.419835 
L 746.2125 270.758678 
L 748.305 267.18843 
L 750.3975 270.312397 
L 752.49 271.353719 
L 754.5825 271.204959 
L 756.675 271.204959 
L 758.7675 268.973554 
L 760.86 273.436364 
L 762.9525 272.915702 
L 765.045 270.833058 
L 767.1375 272.915702 
L 769.23 268.973554 
L 771.3225 269.419835 
L 773.415 272.990083 
L 775.5075 273.436364 
L 777.6 268.080992 
L 779.6925 268.080992 
L 779.6925 268.080992 
" clip-path="url(#peee60542ce)" style="fill: none; stroke: #dc143c; stroke-width: 2; stroke-linecap: square"/>
   </g>
   <g id="patch_7">
    <path d="M 108 320.4 
L 108 43.2 
" style="fill: none; stroke: #000000; stroke-width: 0.8; stroke-linejoin: miter; stroke-linecap: square"/>
   </g>
   <g id="patch_8">
    <path d="M 777.6 320.4 
L 777.6 43.2 
" style="fill: none; stroke: #000000; stroke-width: 0.8; stroke-linejoin: miter; stroke-linecap: square"/>
   </g>
   <g id="patch_9">
    <path d="M 108 320.4 
L 777.6 320.4 
" style="fill: none; stroke: #000000; stroke-width: 0.8; stroke-linejoin: miter; stroke-linecap: square"/>
   </g>
   <g id="patch_10">
    <path d="M 108 43.2 
L 777.6 43.2 
" style="fill: none; stroke: #000000; stroke-width: 0.8; stroke-linejoin: miter; stroke-linecap: square"/>
   </g>
   <g id="text_27">
    <!-- Min Value -->
    <g transform="translate(444.050625 305.720312) scale(0.1 -0.1)">
     <defs>
      <path id="DejaVuSans-Bold-4d" d="M 588 4666 
L 2119 4666 
L 3181 2169 
L 4250 4666 
L 5778 4666 
L 5778 0 
L 4641 0 
L 4641 3413 
L 3566 897 
L 2803 897 
L 1728 3413 
L 1728 0 
L 588 0 
L 588 4666 
z
" transform="scale(0.015625)"/>
      <path id="DejaVuSans-Bold-69" d="M 538 3500 
L 1656 3500 
L 1656 0 
L 538 0 
L 538 3500 
z
M 538 4863 
L 1656 4863 
L 1656 3950 
L 538 3950 
L 538 4863 
z
" transform="scale(0.015625)"/>
      <path id="DejaVuSans-Bold-6e" d="M 4056 2131 
L 4056 0 
L 2931 0 
L 2931 347 
L 2931 1631 
Q 2931 2084 2911 2256 
Q 2891 2428 2841 2509 
Q 2775 2619 2662 2680 
Q 2550 2741 2406 2741 
Q 2056 2741 1856 2470 
Q 1656 2200 1656 1722 
L 1656 0 
L 538 0 
L 538 3500 
L 1656 3500 
L 1656 2988 
Q 1909 3294 2193 3439 
Q 2478 3584 2822 3584 
Q 3428 3584 3742 3212 
Q 4056 2841 4056 2131 
z
" transform="scale(0.015625)"/>
      <path id="DejaVuSans-Bold-20" transform="scale(0.015625)"/>
      <path id="DejaVuSans-Bold-56" d="M 31 4666 
L 1241 4666 
L 2478 1222 
L 3713 4666 
L 4922 4666 
L 3194 0 
L 1759 0 
L 31 4666 
z
" transform="scale(0.015625)"/>
      <path id="DejaVuSans-Bold-61" d="M 2106 1575 
Q 1756 1575 1579 1456 
Q 1403 1338 1403 1106 
Q 1403 894 1545 773 
Q 1688 653 1941 653 
Q 2256 653 2472 879 
Q 2688 1106 2688 1447 
L 2688 1575 
L 2106 1575 
z
M 3816 1997 
L 3816 0 
L 2688 0 
L 2688 519 
Q 2463 200 2181 54 
Q 1900 -91 1497 -91 
Q 953 -91 614 226 
Q 275 544 275 1050 
Q 275 1666 698 1953 
Q 1122 2241 2028 2241 
L 2688 2241 
L 2688 2328 
Q 2688 2594 2478 2717 
Q 2269 2841 1825 2841 
Q 1466 2841 1156 2769 
Q 847 2697 581 2553 
L 581 3406 
Q 941 3494 1303 3539 
Q 1666 3584 2028 3584 
Q 2975 3584 3395 3211 
Q 3816 2838 3816 1997 
z
" transform="scale(0.015625)"/>
      <path id="DejaVuSans-Bold-6c" d="M 538 4863 
L 1656 4863 
L 1656 0 
L 538 0 
L 538 4863 
z
" transform="scale(0.015625)"/>
      <path id="DejaVuSans-Bold-75" d="M 500 1363 
L 500 3500 
L 1625 3500 
L 1625 3150 
Q 1625 2866 1622 2436 
Q 1619 2006 1619 1863 
Q 1619 1441 1641 1255 
Q 1663 1069 1716 984 
Q 1784 875 1895 815 
Q 2006 756 2150 756 
Q 2500 756 2700 1025 
Q 2900 1294 2900 1772 
L 2900 3500 
L 4019 3500 
L 4019 0 
L 2900 0 
L 2900 506 
Q 2647 200 2364 54 
Q 2081 -91 1741 -91 
Q 1134 -91 817 281 
Q 500 653 500 1363 
z
" transform="scale(0.015625)"/>
      <path id="DejaVuSans-Bold-65" d="M 4031 1759 
L 4031 1441 
L 1416 1441 
Q 1456 1047 1700 850 
Q 1944 653 2381 653 
Q 2734 653 3104 758 
Q 3475 863 3866 1075 
L 3866 213 
Q 3469 63 3072 -14 
Q 2675 -91 2278 -91 
Q 1328 -91 801 392 
Q 275 875 275 1747 
Q 275 2603 792 3093 
Q 1309 3584 2216 3584 
Q 3041 3584 3536 3087 
Q 4031 2591 4031 1759 
z
M 2881 2131 
Q 2881 2450 2695 2645 
Q 2509 2841 2209 2841 
Q 1884 2841 1681 2658 
Q 1478 2475 1428 2131 
L 2881 2131 
z
" transform="scale(0.015625)"/>
     </defs>
     <use xlink:href="#DejaVuSans-Bold-4d"/>
     <use xlink:href="#DejaVuSans-Bold-69" transform="translate(99.511719 0)"/>
     <use xlink:href="#DejaVuSans-Bold-6e" transform="translate(133.789062 0)"/>
     <use xlink:href="#DejaVuSans-Bold-20" transform="translate(204.980469 0)"/>
     <use xlink:href="#DejaVuSans-Bold-56" transform="translate(239.794922 0)"/>
     <use xlink:href="#DejaVuSans-Bold-61" transform="translate(311.6875 0)"/>
     <use xlink:href="#DejaVuSans-Bold-6c" transform="translate(379.167969 0)"/>
     <use xlink:href="#DejaVuSans-Bold-75" transform="translate(413.445312 0)"/>
     <use xlink:href="#DejaVuSans-Bold-65" transform="translate(484.636719 0)"/>
    </g>
   </g>
   <g id="text_28">
    <!-- Max Value -->
    <g transform="translate(262.845 53.720312) scale(0.1 -0.1)">
     <defs>
      <path id="DejaVuSans-Bold-78" d="M 1422 1791 
L 159 3500 
L 1344 3500 
L 2059 2463 
L 2784 3500 
L 3969 3500 
L 2706 1797 
L 4031 0 
L 2847 0 
L 2059 1106 
L 1281 0 
L 97 0 
L 1422 1791 
z
" transform="scale(0.015625)"/>
     </defs>
     <use xlink:href="#DejaVuSans-Bold-4d"/>
     <use xlink:href="#DejaVuSans-Bold-61" transform="translate(99.511719 0)"/>
     <use xlink:href="#DejaVuSans-Bold-78" transform="translate(166.992188 0)"/>
     <use xlink:href="#DejaVuSans-Bold-20" transform="translate(231.494141 0)"/>
     <use xlink:href="#DejaVuSans-Bold-56" transform="translate(266.308594 0)"/>
     <use xlink:href="#DejaVuSans-Bold-61" transform="translate(338.201172 0)"/>
     <use xlink:href="#DejaVuSans-Bold-6c" transform="translate(405.681641 0)"/>
     <use xlink:href="#DejaVuSans-Bold-75" transform="translate(439.958984 0)"/>
     <use xlink:href="#DejaVuSans-Bold-65" transform="translate(511.150391 0)"/>
    </g>
   </g>
   <g id="text_29">
    <!-- Example stepdown (Subject 153, Trial 6) -->
    <g transform="translate(321.519375 37.2) scale(0.12 -0.12)">
     <defs>
      <path id="DejaVuSans-45" d="M 628 4666 
L 3578 4666 
L 3578 4134 
L 1259 4134 
L 1259 2753 
L 3481 2753 
L 3481 2222 
L 1259 2222 
L 1259 531 
L 3634 531 
L 3634 0 
L 628 0 
L 628 4666 
z
" transform="scale(0.015625)"/>
      <path id="DejaVuSans-78" d="M 3513 3500 
L 2247 1797 
L 3578 0 
L 2900 0 
L 1881 1375 
L 863 0 
L 184 0 
L 1544 1831 
L 300 3500 
L 978 3500 
L 1906 2253 
L 2834 3500 
L 3513 3500 
z
" transform="scale(0.015625)"/>
      <path id="DejaVuSans-6f" d="M 1959 3097 
Q 1497 3097 1228 2736 
Q 959 2375 959 1747 
Q 959 1119 1226 758 
Q 1494 397 1959 397 
Q 2419 397 2687 759 
Q 2956 1122 2956 1747 
Q 2956 2369 2687 2733 
Q 2419 3097 1959 3097 
z
M 1959 3584 
Q 2709 3584 3137 3096 
Q 3566 2609 3566 1747 
Q 3566 888 3137 398 
Q 2709 -91 1959 -91 
Q 1206 -91 779 398 
Q 353 888 353 1747 
Q 353 2609 779 3096 
Q 1206 3584 1959 3584 
z
" transform="scale(0.015625)"/>
      <path id="DejaVuSans-77" d="M 269 3500 
L 844 3500 
L 1563 769 
L 2278 3500 
L 2956 3500 
L 3675 769 
L 4391 3500 
L 4966 3500 
L 4050 0 
L 3372 0 
L 2619 2869 
L 1863 0 
L 1184 0 
L 269 3500 
z
" transform="scale(0.015625)"/>
      <path id="DejaVuSans-53" d="M 3425 4513 
L 3425 3897 
Q 3066 4069 2747 4153 
Q 2428 4238 2131 4238 
Q 1616 4238 1336 4038 
Q 1056 3838 1056 3469 
Q 1056 3159 1242 3001 
Q 1428 2844 1947 2747 
L 2328 2669 
Q 3034 2534 3370 2195 
Q 3706 1856 3706 1288 
Q 3706 609 3251 259 
Q 2797 -91 1919 -91 
Q 1588 -91 1214 -16 
Q 841 59 441 206 
L 441 856 
Q 825 641 1194 531 
Q 1563 422 1919 422 
Q 2459 422 2753 634 
Q 3047 847 3047 1241 
Q 3047 1584 2836 1778 
Q 2625 1972 2144 2069 
L 1759 2144 
Q 1053 2284 737 2584 
Q 422 2884 422 3419 
Q 422 4038 858 4394 
Q 1294 4750 2059 4750 
Q 2388 4750 2728 4690 
Q 3069 4631 3425 4513 
z
" transform="scale(0.015625)"/>
      <path id="DejaVuSans-62" d="M 3116 1747 
Q 3116 2381 2855 2742 
Q 2594 3103 2138 3103 
Q 1681 3103 1420 2742 
Q 1159 2381 1159 1747 
Q 1159 1113 1420 752 
Q 1681 391 2138 391 
Q 2594 391 2855 752 
Q 3116 1113 3116 1747 
z
M 1159 2969 
Q 1341 3281 1617 3432 
Q 1894 3584 2278 3584 
Q 2916 3584 3314 3078 
Q 3713 2572 3713 1747 
Q 3713 922 3314 415 
Q 2916 -91 2278 -91 
Q 1894 -91 1617 61 
Q 1341 213 1159 525 
L 1159 0 
L 581 0 
L 581 4863 
L 1159 4863 
L 1159 2969 
z
" transform="scale(0.015625)"/>
      <path id="DejaVuSans-6a" d="M 603 3500 
L 1178 3500 
L 1178 -63 
Q 1178 -731 923 -1031 
Q 669 -1331 103 -1331 
L -116 -1331 
L -116 -844 
L 38 -844 
Q 366 -844 484 -692 
Q 603 -541 603 -63 
L 603 3500 
z
M 603 4863 
L 1178 4863 
L 1178 4134 
L 603 4134 
L 603 4863 
z
" transform="scale(0.015625)"/>
      <path id="DejaVuSans-63" d="M 3122 3366 
L 3122 2828 
Q 2878 2963 2633 3030 
Q 2388 3097 2138 3097 
Q 1578 3097 1268 2742 
Q 959 2388 959 1747 
Q 959 1106 1268 751 
Q 1578 397 2138 397 
Q 2388 397 2633 464 
Q 2878 531 3122 666 
L 3122 134 
Q 2881 22 2623 -34 
Q 2366 -91 2075 -91 
Q 1284 -91 818 406 
Q 353 903 353 1747 
Q 353 2603 823 3093 
Q 1294 3584 2113 3584 
Q 2378 3584 2631 3529 
Q 2884 3475 3122 3366 
z
" transform="scale(0.015625)"/>
      <path id="DejaVuSans-2c" d="M 750 794 
L 1409 794 
L 1409 256 
L 897 -744 
L 494 -744 
L 750 256 
L 750 794 
z
" transform="scale(0.015625)"/>
     </defs>
     <use xlink:href="#DejaVuSans-45"/>
     <use xlink:href="#DejaVuSans-78" transform="translate(63.183594 0)"/>
     <use xlink:href="#DejaVuSans-61" transform="translate(122.363281 0)"/>
     <use xlink:href="#DejaVuSans-6d" transform="translate(183.642578 0)"/>
     <use xlink:href="#DejaVuSans-70" transform="translate(281.054688 0)"/>
     <use xlink:href="#DejaVuSans-6c" transform="translate(344.53125 0)"/>
     <use xlink:href="#DejaVuSans-65" transform="translate(372.314453 0)"/>
     <use xlink:href="#DejaVuSans-20" transform="translate(433.837891 0)"/>
     <use xlink:href="#DejaVuSans-73" transform="translate(465.625 0)"/>
     <use xlink:href="#DejaVuSans-74" transform="translate(517.724609 0)"/>
     <use xlink:href="#DejaVuSans-65" transform="translate(556.933594 0)"/>
     <use xlink:href="#DejaVuSans-70" transform="translate(618.457031 0)"/>
     <use xlink:href="#DejaVuSans-64" transform="translate(681.933594 0)"/>
     <use xlink:href="#DejaVuSans-6f" transform="translate(745.410156 0)"/>
     <use xlink:href="#DejaVuSans-77" transform="translate(806.591797 0)"/>
     <use xlink:href="#DejaVuSans-6e" transform="translate(888.378906 0)"/>
     <use xlink:href="#DejaVuSans-20" transform="translate(951.757812 0)"/>
     <use xlink:href="#DejaVuSans-28" transform="translate(983.544922 0)"/>
     <use xlink:href="#DejaVuSans-53" transform="translate(1022.558594 0)"/>
     <use xlink:href="#DejaVuSans-75" transform="translate(1086.035156 0)"/>
     <use xlink:href="#DejaVuSans-62" transform="translate(1149.414062 0)"/>
     <use xlink:href="#DejaVuSans-6a" transform="translate(1212.890625 0)"/>
     <use xlink:href="#DejaVuSans-65" transform="translate(1240.673828 0)"/>
     <use xlink:href="#DejaVuSans-63" transform="translate(1302.197266 0)"/>
     <use xlink:href="#DejaVuSans-74" transform="translate(1357.177734 0)"/>
     <use xlink:href="#DejaVuSans-20" transform="translate(1396.386719 0)"/>
     <use xlink:href="#DejaVuSans-31" transform="translate(1428.173828 0)"/>
     <use xlink:href="#DejaVuSans-35" transform="translate(1491.796875 0)"/>
     <use xlink:href="#DejaVuSans-33" transform="translate(1555.419922 0)"/>
     <use xlink:href="#DejaVuSans-2c" transform="translate(1619.042969 0)"/>
     <use xlink:href="#DejaVuSans-20" transform="translate(1650.830078 0)"/>
     <use xlink:href="#DejaVuSans-54" transform="translate(1682.617188 0)"/>
     <use xlink:href="#DejaVuSans-72" transform="translate(1728.951172 0)"/>
     <use xlink:href="#DejaVuSans-69" transform="translate(1770.064453 0)"/>
     <use xlink:href="#DejaVuSans-61" transform="translate(1797.847656 0)"/>
     <use xlink:href="#DejaVuSans-6c" transform="translate(1859.126953 0)"/>
     <use xlink:href="#DejaVuSans-20" transform="translate(1886.910156 0)"/>
     <use xlink:href="#DejaVuSans-36" transform="translate(1918.697266 0)"/>
     <use xlink:href="#DejaVuSans-29" transform="translate(1982.320312 0)"/>
    </g>
   </g>
   <g id="PathCollection_1">
    <defs>
     <path id="m1e375c7410" d="M 0 3.872983 
C 1.027127 3.872983 2.012324 3.464901 2.738613 2.738613 
C 3.464901 2.012324 3.872983 1.027127 3.872983 0 
C 3.872983 -1.027127 3.464901 -2.012324 2.738613 -2.738613 
C 2.012324 -3.464901 1.027127 -3.872983 0 -3.872983 
C -1.027127 -3.872983 -2.012324 -3.464901 -2.738613 -2.738613 
C -3.464901 -2.012324 -3.872983 -1.027127 -3.872983 0 
C -3.872983 1.027127 -3.464901 2.012324 -2.738613 2.738613 
C -2.012324 3.464901 -1.027127 3.872983 0 3.872983 
z
" style="stroke: #000000"/>
    </defs>
    <g clip-path="url(#peee60542ce)">
     <use xlink:href="#m1e375c7410" x="499.2975" y="307.8" style="stroke: #000000"/>
     <use xlink:href="#m1e375c7410" x="262.845" y="55.8" style="stroke: #000000"/>
    </g>
   </g>
  </g>
 </g>
 <defs>
  <clipPath id="peee60542ce">
   <rect x="108" y="43.2" width="669.6" height="277.2"/>
  </clipPath>
 </defs>
</svg>
